{
DisplayStrings = (
N,
/aplfunctionalsymbolquadcircle
);
customParameters = (
{
name = "glyphOrder";
value = (
    ".notdef",
    B,
    C,
    D,
    E,
    F,
    G,
    H,
    I,
    J,
    K,
    L,
    M,
    N,
    O,
    P,
    Q,
    R,
    S,
    T,
    U,
    V,
    W,
    X,
    Y,
    Z,
    a,
    b,
    c,
    d,
    e,
    f,
    g,
    h,
    i,
    j,
    k,
    l,
    m,
    n,
    o,
    p,
    q,
    r,
    s,
    t,
    u,
    v,
    w,
    x,
    y,
    z,
    space,
    newGlyph,
    vfevef,
    asterisk,
    parenleft
);
}
);
date = "2014-11-20 16:35:09 +0000";
familyName = "starred font-family";
fontMaster = (
{
ascender = 448;
capHeight = 0;
customParameters = (
{
name = "typoAscender";
value = "448";
},
{
name = "typoDescender";
value = "-64";
},
{
name = "typoLineGap";
value = "46";
},
{
name = "underlinePosition";
value = "-64";
}
);
descender = "-64";
id = "E8827009-6BC8-4B70-BCEC-AB542FFF6A4D";
weightValue = 500;
widthValue = 5;
xHeight = 0;
}
);
glyphs = (
{
glyphname = "B";
lastChange = "2015-04-15 12:38:09 +0100";
layers = (
{
layerId = "E8827009-6BC8-4B70-BCEC-AB542FFF6A4D";
name = "Regular";
paths = (
{
closed = 1;
nodes = (
"384 160 LINE",
"336 160 LINE",
"336 0 LINE",
"240 0 LINE",
"240 128 LINE",
"144 128 LINE",
"144 0 LINE",
"48 0 LINE",
"48 160 LINE",
"0 160 LINE",
"192 384 LINE"
);
}
);
width = 384;
}
);
unicode = 0042;
},
{
glyphname = "C";
lastChange = "2015-02-09 15:01:35 +0100";
layers = (
{
layerId = "E8827009-6BC8-4B70-BCEC-AB542FFF6A4D";
name = "Regular";
paths = (
{
closed = 1;
nodes = (
"322 416 LINE",
"146 416 LINE SMOOTH",
"113 416 OFFCURVE",
"87 390 OFFCURVE",
"87 358 CURVE SMOOTH",
"87 174 LINE",
"59 174 LINE SMOOTH",
"27 174 OFFCURVE",
"0 147 OFFCURVE",
"0 118 CURVE SMOOTH",
"0 85 OFFCURVE",
"27 59 OFFCURVE",
"59 59 CURVE SMOOTH",
"87 59 LINE",
"87 27 LINE SMOOTH",
"87 -6 OFFCURVE",
"113 -32 OFFCURVE",
"146 -32 CURVE SMOOTH",
"430 -32 LINE SMOOTH",
"461 -32 OFFCURVE",
"487 -6 OFFCURVE",
"487 27 CURVE SMOOTH",
"489 248 LINE"
);
},
{
closed = 1;
nodes = (
"386 267 LINE",
"340 267 LINE",
"340 316 LINE"
);
},
{
closed = 1;
nodes = (
"146 59 LINE",
"306 59 LINE SMOOTH",
"338 59 OFFCURVE",
"364 85 OFFCURVE",
"364 118 CURVE SMOOTH",
"364 147 OFFCURVE",
"338 174 OFFCURVE",
"306 174 CURVE SMOOTH",
"146 174 LINE",
"146 358 LINE",
"282 358 LINE",
"282 267 LINE SMOOTH",
"282 236 OFFCURVE",
"308 210 OFFCURVE",
"340 210 CURVE SMOOTH",
"430 210 LINE",
"430 27 LINE",
"146 27 LINE"
);
}
);
width = 489;
}
);
unicode = 0043;
},
{
glyphname = "D";
lastChange = "2015-02-09 15:02:17 +0100";
layers = (
{
layerId = "E8827009-6BC8-4B70-BCEC-AB542FFF6A4D";
name = "Regular";
paths = (
{
closed = 1;
nodes = (
"329 416 LINE",
"122 416 LINE SMOOTH",
"104 416 OFFCURVE",
"92 401 OFFCURVE",
"92 384 CURVE SMOOTH",
"92 335 LINE",
"148 335 LINE",
"148 357 LINE",
"305 357 LINE",
"437 225 LINE",
"437 25 LINE",
"148 25 LINE",
"148 96 LINE",
"92 96 LINE",
"92 0 LINE SMOOTH",
"92 -17 OFFCURVE",
"104 -32 OFFCURVE",
"122 -32 CURVE SMOOTH",
"462 -32 LINE SMOOTH",
"479 -32 OFFCURVE",
"494 -17 OFFCURVE",
"494 0 CURVE SMOOTH",
"494 249 LINE"
);
},
{
closed = 1;
nodes = (
"295 52 OFFCURVE",
"302 118 OFFCURVE",
"270 147 CURVE SMOOTH",
"238 177 OFFCURVE",
"175 184 OFFCURVE",
"127 182 CURVE",
"129 132 LINE",
"129 132 OFFCURVE",
"127 116 OFFCURVE",
"114 125 CURVE SMOOTH",
"102 135 OFFCURVE",
"4 215 OFFCURVE",
"4 215 CURVE SMOOTH",
"4 215 OFFCURVE",
"-6 222 OFFCURVE",
"4 232 CURVE",
"109 318 LINE",
"109 318 OFFCURVE",
"124 330 OFFCURVE",
"127 313 CURVE SMOOTH",
"127 298 OFFCURVE",
"127 262 OFFCURVE",
"127 262 CURVE SMOOTH",
"127 262 OFFCURVE",
"241 271 OFFCURVE",
"287 207 CURVE SMOOTH",
"334 137 OFFCURVE",
"295 52 OFFCURVE",
"295 52 CURVE SMOOTH"
);
}
);
width = 494;
}
);
unicode = 0044;
},
{
glyphname = "E";
lastChange = "2015-03-27 14:35:08 +0100";
layers = (
{
layerId = "E8827009-6BC8-4B70-BCEC-AB542FFF6A4D";
name = "Regular";
paths = (
{
closed = 1;
nodes = (
"12 302 OFFCURVE",
"8 306 OFFCURVE",
"6 310 CURVE",
"5 314 OFFCURVE",
"5 317 OFFCURVE",
"7 318 CURVE",
"8 319 OFFCURVE",
"12 320 OFFCURVE",
"18 320 CURVE SMOOTH",
"209 320 LINE",
"400 320 LINE SMOOTH",
"406 320 OFFCURVE",
"410 319 OFFCURVE",
"412 318 CURVE",
"413 317 OFFCURVE",
"413 314 OFFCURVE",
"412 310 CURVE",
"410 306 OFFCURVE",
"406 302 OFFCURVE",
"399 299 CURVE",
"289 239 OFFCURVE",
"233 208 OFFCURVE",
"230 207 CURVE",
"225 204 OFFCURVE",
"218 203 OFFCURVE",
"209 203 CURVE SMOOTH",
"200 203 OFFCURVE",
"193 204 OFFCURVE",
"188 207 CURVE",
"185 208 OFFCURVE",
"129 239 OFFCURVE",
"19 299 CURVE"
);
},
{
closed = 1;
nodes = (
"413 296 OFFCURVE",
"415 296 OFFCURVE",
"416 296 CURVE",
"416 295 OFFCURVE",
"416 293 OFFCURVE",
"416 290 CURVE SMOOTH",
"416 85 LINE SMOOTH",
"416 80 OFFCURVE",
"414 76 OFFCURVE",
"409 71 CURVE SMOOTH",
"404 66 OFFCURVE",
"399 64 OFFCURVE",
"394 64 CURVE SMOOTH",
"209 64 LINE",
"24 64 LINE SMOOTH",
"19 64 OFFCURVE",
"13 66 OFFCURVE",
"8 71 CURVE SMOOTH",
"3 76 OFFCURVE",
"0 80 OFFCURVE",
"0 85 CURVE SMOOTH",
"0 290 LINE SMOOTH",
"0 296 OFFCURVE",
"3 298 OFFCURVE",
"9 295 CURVE SMOOTH",
"11 294 OFFCURVE",
"19 288 OFFCURVE",
"34 279 CURVE",
"49 269 OFFCURVE",
"67 257 OFFCURVE",
"89 242 CURVE SMOOTH",
"110 227 OFFCURVE",
"128 216 OFFCURVE",
"141 207 CURVE",
"58 114 LINE",
"56 112 OFFCURVE",
"56 110 OFFCURVE",
"57 109 CURVE SMOOTH",
"58 108 OFFCURVE",
"59 108 OFFCURVE",
"60 109 CURVE",
"61 109 OFFCURVE",
"62 109 OFFCURVE",
"63 110 CURVE",
"161 193 LINE",
"175 184 OFFCURVE",
"184 178 OFFCURVE",
"188 176 CURVE",
"193 173 OFFCURVE",
"200 172 OFFCURVE",
"209 172 CURVE SMOOTH",
"218 172 OFFCURVE",
"225 173 OFFCURVE",
"230 176 CURVE",
"234 178 OFFCURVE",
"243 184 OFFCURVE",
"257 193 CURVE",
"355 110 LINE",
"356 109 OFFCURVE",
"357 109 OFFCURVE",
"358 109 CURVE",
"359 108 OFFCURVE",
"360 108 OFFCURVE",
"361 109 CURVE SMOOTH",
"362 110 OFFCURVE",
"361 111 OFFCURVE",
"359 114 CURVE",
"277 207 LINE",
"290 216 OFFCURVE",
"308 227 OFFCURVE",
"329 242 CURVE SMOOTH",
"350 257 OFFCURVE",
"368 269 OFFCURVE",
"383 279 CURVE",
"398 288 OFFCURVE",
"406 294 OFFCURVE",
"408 295 CURVE"
);
}
);
width = 416;
}
);
unicode = 0045;
},
{
glyphname = "F";
lastChange = "2015-02-09 15:03:12 +0100";
layers = (
{
layerId = "E8827009-6BC8-4B70-BCEC-AB542FFF6A4D";
name = "Regular";
paths = (
{
closed = 1;
nodes = (
"104 315 LINE",
"104 270 LINE",
"296 270 LINE",
"296 315 LINE"
);
},
{
closed = 1;
nodes = (
"399 378 LINE SMOOTH",
"399 388 OFFCURVE",
"392 399 OFFCURVE",
"386 406 CURVE SMOOTH",
"378 413 OFFCURVE",
"368 416 OFFCURVE",
"358 416 CURVE SMOOTH",
"358 416 OFFCURVE",
"358 416 OFFCURVE",
"358 416 CURVE SMOOTH",
"38 416 LINE SMOOTH",
"17 416 OFFCURVE",
"0 399 OFFCURVE",
"0 378 CURVE SMOOTH",
"0 10 LINE SMOOTH",
"0 -12 OFFCURVE",
"17 -29 OFFCURVE",
"38 -29 CURVE SMOOTH",
"347 -29 LINE",
"347 -29 LINE",
"358 -32 OFFCURVE",
"364 -32 OFFCURVE",
"374 -32 CURVE SMOOTH",
"445 -32 OFFCURVE",
"500 24 OFFCURVE",
"500 93 CURVE SMOOTH",
"500 155 OFFCURVE",
"455 204 OFFCURVE",
"399 215 CURVE"
);
},
{
closed = 1;
nodes = (
"351 371 LINE",
"351 215 LINE",
"329 211 OFFCURVE",
"313 204 OFFCURVE",
"296 190 CURVE",
"296 219 LINE",
"104 219 LINE",
"104 169 LINE",
"278 169 LINE",
"264 155 OFFCURVE",
"257 138 OFFCURVE",
"254 117 CURVE",
"104 117 LINE",
"104 69 LINE",
"251 69 LINE",
"257 52 OFFCURVE",
"264 30 OFFCURVE",
"274 17 CURVE",
"45 17 LINE",
"45 371 LINE"
);
},
{
closed = 1;
nodes = (
"396 72 LINE",
"396 24 LINE",
"354 24 LINE",
"354 72 LINE",
"306 72 LINE",
"306 114 LINE",
"354 114 LINE",
"354 162 LINE",
"396 162 LINE",
"396 114 LINE",
"445 114 LINE",
"445 72 LINE"
);
}
);
width = 500;
}
);
unicode = 0046;
},
{
glyphname = "G";
lastChange = "2015-02-09 15:27:32 +0100";
layers = (
{
layerId = "E8827009-6BC8-4B70-BCEC-AB542FFF6A4D";
name = "Regular";
paths = (
{
closed = 1;
nodes = (
"1 192 LINE",
"1 193 OFFCURVE",
"1 196 OFFCURVE",
"1 200 CURVE",
"0 204 OFFCURVE",
"0 207 OFFCURVE",
"0 208 CURVE SMOOTH",
"0 265 OFFCURVE",
"20 314 OFFCURVE",
"61 355 CURVE SMOOTH",
"102 396 OFFCURVE",
"151 416 OFFCURVE",
"208 416 CURVE SMOOTH",
"209 416 OFFCURVE",
"212 416 OFFCURVE",
"216 416 CURVE",
"220 415 OFFCURVE",
"223 415 OFFCURVE",
"224 415 CURVE",
"224 383 LINE",
"224 192 LINE",
"33 192 LINE"
);
},
{
closed = 1;
nodes = (
"51 79 OFFCURVE",
"36 117 OFFCURVE",
"33 160 CURVE",
"256 160 LINE",
"256 383 LINE",
"299 380 OFFCURVE",
"337 365 OFFCURVE",
"370 338 CURVE SMOOTH",
"422 296 OFFCURVE",
"448 242 OFFCURVE",
"448 176 CURVE SMOOTH",
"448 119 OFFCURVE",
"428 70 OFFCURVE",
"387 29 CURVE SMOOTH",
"346 -12 OFFCURVE",
"297 -32 OFFCURVE",
"240 -32 CURVE SMOOTH",
"174 -32 OFFCURVE",
"120 -6 OFFCURVE",
"78 46 CURVE SMOOTH"
);
}
);
width = 448;
}
);
unicode = 0047;
},
{
glyphname = "H";
lastChange = "2015-05-12 08:12:08 +0100";
layers = (
{
layerId = "E8827009-6BC8-4B70-BCEC-AB542FFF6A4D";
name = "Regular";
paths = (
{
closed = 1;
nodes = (
"136 168 OFFCURVE",
"128 176 OFFCURVE",
"128 192 CURVE SMOOTH",
"128 208 OFFCURVE",
"136 216 OFFCURVE",
"152 216 CURVE SMOOTH",
"168 216 OFFCURVE",
"176 208 OFFCURVE",
"176 192 CURVE SMOOTH",
"176 176 OFFCURVE",
"168 168 OFFCURVE",
"152 168 CURVE SMOOTH"
);
},
{
closed = 1;
nodes = (
"208 168 OFFCURVE",
"200 176 OFFCURVE",
"200 192 CURVE SMOOTH",
"200 208 OFFCURVE",
"208 216 OFFCURVE",
"224 216 CURVE SMOOTH",
"240 216 OFFCURVE",
"248 208 OFFCURVE",
"248 192 CURVE SMOOTH",
"248 176 OFFCURVE",
"240 168 OFFCURVE",
"224 168 CURVE SMOOTH"
);
},
{
closed = 1;
nodes = (
"280 168 OFFCURVE",
"272 176 OFFCURVE",
"272 192 CURVE SMOOTH",
"272 208 OFFCURVE",
"280 216 OFFCURVE",
"296 216 CURVE SMOOTH",
"312 216 OFFCURVE",
"320 208 OFFCURVE",
"320 192 CURVE SMOOTH",
"320 176 OFFCURVE",
"312 168 OFFCURVE",
"296 168 CURVE SMOOTH"
);
},
{
closed = 1;
nodes = (
"7 175 LINE SMOOTH",
"2 180 OFFCURVE",
"0 185 OFFCURVE",
"0 192 CURVE SMOOTH",
"0 199 OFFCURVE",
"2 204 OFFCURVE",
"7 209 CURVE SMOOTH",
"119 321 LINE SMOOTH",
"124 326 OFFCURVE",
"129 328 OFFCURVE",
"136 328 CURVE SMOOTH",
"143 328 OFFCURVE",
"148 326 OFFCURVE",
"153 321 CURVE SMOOTH",
"158 316 OFFCURVE",
"160 311 OFFCURVE",
"160 304 CURVE SMOOTH",
"160 297 OFFCURVE",
"158 292 OFFCURVE",
"153 287 CURVE SMOOTH",
"58 192 LINE",
"153 97 LINE SMOOTH",
"158 92 OFFCURVE",
"160 87 OFFCURVE",
"160 80 CURVE SMOOTH",
"160 73 OFFCURVE",
"158 68 OFFCURVE",
"153 63 CURVE SMOOTH",
"148 58 OFFCURVE",
"143 56 OFFCURVE",
"136 56 CURVE SMOOTH",
"129 56 OFFCURVE",
"124 58 OFFCURVE",
"119 63 CURVE SMOOTH"
);
},
{
closed = 1;
nodes = (
"390 192 LINE",
"295 287 LINE SMOOTH",
"290 292 OFFCURVE",
"288 297 OFFCURVE",
"288 304 CURVE SMOOTH",
"288 311 OFFCURVE",
"290 316 OFFCURVE",
"295 321 CURVE SMOOTH",
"300 326 OFFCURVE",
"305 328 OFFCURVE",
"312 328 CURVE SMOOTH",
"319 328 OFFCURVE",
"324 326 OFFCURVE",
"329 321 CURVE SMOOTH",
"441 209 LINE SMOOTH",
"446 204 OFFCURVE",
"448 199 OFFCURVE",
"448 192 CURVE SMOOTH",
"448 185 OFFCURVE",
"446 180 OFFCURVE",
"441 175 CURVE SMOOTH",
"329 63 LINE SMOOTH",
"324 58 OFFCURVE",
"319 56 OFFCURVE",
"312 56 CURVE SMOOTH",
"305 56 OFFCURVE",
"300 58 OFFCURVE",
"295 63 CURVE SMOOTH",
"290 68 OFFCURVE",
"288 73 OFFCURVE",
"288 80 CURVE SMOOTH",
"288 87 OFFCURVE",
"290 92 OFFCURVE",
"295 97 CURVE SMOOTH"
);
}
);
width = 448;
}
);
unicode = 0048;
},
{
glyphname = "I";
lastChange = "2015-02-09 15:04:25 +0100";
layers = (
{
layerId = "E8827009-6BC8-4B70-BCEC-AB542FFF6A4D";
name = "Regular";
paths = (
{
closed = 1;
nodes = (
"100 415 OFFCURVE",
"0 315 OFFCURVE",
"0 189 CURVE SMOOTH",
"0 67 OFFCURVE",
"100 -33 OFFCURVE",
"222 -33 CURVE SMOOTH",
"348 -33 OFFCURVE",
"448 67 OFFCURVE",
"448 189 CURVE SMOOTH",
"448 315 OFFCURVE",
"348 415 OFFCURVE",
"222 415 CURVE SMOOTH"
);
},
{
closed = 1;
nodes = (
"184 28 LINE",
"184 250 LINE",
"255 250 LINE",
"255 28 LINE"
);
},
{
closed = 1;
nodes = (
"184 298 LINE",
"184 372 LINE",
"255 372 LINE",
"255 298 LINE"
);
}
);
width = 448;
}
);
unicode = 0049;
},
{
glyphname = "J";
lastChange = "2015-02-09 15:05:37 +0100";
layers = (
{
layerId = "E8827009-6BC8-4B70-BCEC-AB542FFF6A4D";
name = "Regular";
paths = (
{
closed = 1;
nodes = (
"348 400 LINE",
"173 319 LINE",
"173 400 LINE",
"0 319 LINE",
"0 11 LINE",
"268 11 LINE",
"286 -5 OFFCURVE",
"312 -16 OFFCURVE",
"339 -16 CURVE SMOOTH",
"398 -16 OFFCURVE",
"447 33 OFFCURVE",
"447 92 CURVE SMOOTH",
"447 149 OFFCURVE",
"403 198 OFFCURVE",
"348 202 CURVE"
);
},
{
closed = 1;
nodes = (
"36 55 LINE",
"36 134 LINE",
"104 134 LINE",
"104 55 LINE"
);
},
{
closed = 1;
nodes = (
"36 175 LINE",
"36 256 LINE",
"104 256 LINE",
"104 175 LINE"
);
},
{
closed = 1;
nodes = (
"140 55 LINE",
"140 134 LINE",
"210 134 LINE",
"210 55 LINE"
);
},
{
closed = 1;
nodes = (
"140 175 LINE",
"140 256 LINE",
"210 256 LINE",
"210 175 LINE"
);
},
{
closed = 1;
nodes = (
"298 196 OFFCURVE",
"283 186 OFFCURVE",
"271 175 CURVE",
"245 175 LINE",
"245 256 LINE",
"313 256 LINE",
"313 200 LINE"
);
},
{
closed = 1;
nodes = (
"314 -1 LINE",
"314 137 LINE",
"362 137 LINE",
"362 -1 LINE"
);
},
{
closed = 1;
nodes = (
"314 148 LINE",
"314 183 LINE",
"362 183 LINE",
"362 148 LINE"
);
}
);
width = 447;
}
);
unicode = 004A;
},
{
glyphname = "K";
lastChange = "2015-02-09 15:05:53 +0100";
layers = (
{
layerId = "E8827009-6BC8-4B70-BCEC-AB542FFF6A4D";
name = "Regular";
paths = (
{
closed = 1;
nodes = (
"199 416 LINE",
"0 322 LINE",
"0 -32 LINE",
"401 -32 LINE",
"401 416 LINE",
"199 322 LINE"
);
},
{
closed = 1;
nodes = (
"42 19 LINE",
"42 110 LINE",
"121 110 LINE",
"121 19 LINE"
);
},
{
closed = 1;
nodes = (
"161 19 LINE",
"161 110 LINE",
"242 110 LINE",
"242 19 LINE"
);
},
{
closed = 1;
nodes = (
"282 19 LINE",
"282 110 LINE",
"361 110 LINE",
"361 19 LINE"
);
},
{
closed = 1;
nodes = (
"42 158 LINE",
"42 250 LINE",
"121 250 LINE",
"121 158 LINE"
);
},
{
closed = 1;
nodes = (
"161 158 LINE",
"161 250 LINE",
"242 250 LINE",
"242 158 LINE"
);
},
{
closed = 1;
nodes = (
"282 158 LINE",
"282 250 LINE",
"361 250 LINE",
"361 158 LINE"
);
}
);
width = 401;
}
);
unicode = 004B;
},
{
glyphname = "L";
lastChange = "2015-12-28 08:37:45 +0100";
layers = (
{
layerId = "E8827009-6BC8-4B70-BCEC-AB542FFF6A4D";
name = "Regular";
paths = (
{
closed = 1;
nodes = (
"41 -32 LINE SMOOTH",
"19 -32 OFFCURVE",
"0 -13 OFFCURVE",
"0 10 CURVE SMOOTH",
"0 192 LINE SMOOTH",
"0 215 OFFCURVE",
"19 234 OFFCURVE",
"41 234 CURVE SMOOTH",
"66 234 LINE",
"66 284 LINE SMOOTH",
"66 357 OFFCURVE",
"126 416 OFFCURVE",
"199 416 CURVE SMOOTH",
"272 416 OFFCURVE",
"332 357 OFFCURVE",
"332 284 CURVE SMOOTH",
"332 234 LINE",
"357 234 LINE SMOOTH",
"380 234 OFFCURVE",
"398 215 OFFCURVE",
"398 192 CURVE SMOOTH",
"398 10 LINE SMOOTH",
"398 -13 OFFCURVE",
"380 -32 OFFCURVE",
"357 -32 CURVE SMOOTH"
);
},
{
closed = 1;
nodes = (
"315 348 OFFCURVE",
"263 400 OFFCURVE",
"199 400 CURVE SMOOTH",
"135 400 OFFCURVE",
"83 348 OFFCURVE",
"83 284 CURVE SMOOTH",
"83 234 LINE",
"116 234 LINE",
"116 284 LINE SMOOTH",
"116 330 OFFCURVE",
"153 367 OFFCURVE",
"199 367 CURVE SMOOTH",
"245 367 OFFCURVE",
"282 330 OFFCURVE",
"282 284 CURVE SMOOTH",
"282 234 LINE",
"315 234 LINE",
"315 284 LINE SMOOTH"
);
},
{
closed = 1;
nodes = (
"133 234 LINE",
"265 234 LINE",
"265 284 LINE SMOOTH",
"265 320 OFFCURVE",
"236 350 OFFCURVE",
"199 350 CURVE SMOOTH",
"163 350 OFFCURVE",
"133 320 OFFCURVE",
"133 284 CURVE SMOOTH"
);
},
{
closed = 1;
nodes = (
"382 206 OFFCURVE",
"370 217 OFFCURVE",
"357 217 CURVE SMOOTH",
"324 217 LINE",
"274 217 LINE",
"124 217 LINE",
"75 217 LINE",
"41 217 LINE SMOOTH",
"28 217 OFFCURVE",
"17 206 OFFCURVE",
"17 192 CURVE SMOOTH",
"17 10 LINE SMOOTH",
"17 -4 OFFCURVE",
"28 -15 OFFCURVE",
"41 -15 CURVE SMOOTH",
"357 -15 LINE SMOOTH",
"370 -15 OFFCURVE",
"382 -4 OFFCURVE",
"382 10 CURVE SMOOTH",
"382 192 LINE SMOOTH"
);
},
{
closed = 1;
nodes = (
"232 62 LINE SMOOTH",
"233 59 OFFCURVE",
"232 57 OFFCURVE",
"231 55 CURVE SMOOTH",
"229 53 OFFCURVE",
"227 51 OFFCURVE",
"224 51 CURVE SMOOTH",
"174 51 LINE SMOOTH",
"172 51 OFFCURVE",
"169 53 OFFCURVE",
"168 55 CURVE SMOOTH",
"166 57 OFFCURVE",
"166 59 OFFCURVE",
"166 62 CURVE SMOOTH",
"178 109 LINE",
"170 115 OFFCURVE",
"166 124 OFFCURVE",
"166 134 CURVE SMOOTH",
"166 153 OFFCURVE",
"181 168 OFFCURVE",
"199 168 CURVE SMOOTH",
"217 168 OFFCURVE",
"232 153 OFFCURVE",
"232 134 CURVE SMOOTH",
"232 124 OFFCURVE",
"228 115 OFFCURVE",
"220 109 CURVE"
);
},
{
closed = 1;
nodes = (
"190 151 OFFCURVE",
"183 144 OFFCURVE",
"183 134 CURVE SMOOTH",
"183 128 OFFCURVE",
"186 123 OFFCURVE",
"191 120 CURVE SMOOTH",
"195 118 OFFCURVE",
"196 114 OFFCURVE",
"195 111 CURVE SMOOTH",
"185 68 LINE",
"213 68 LINE",
"203 111 LINE SMOOTH",
"202 114 OFFCURVE",
"204 118 OFFCURVE",
"207 120 CURVE SMOOTH",
"212 123 OFFCURVE",
"216 128 OFFCURVE",
"216 134 CURVE SMOOTH",
"216 144 OFFCURVE",
"208 151 OFFCURVE",
"199 151 CURVE SMOOTH"
);
}
);
width = 398;
}
);
unicode = 004C;
},
{
glyphname = "M";
lastChange = "2015-02-09 15:07:35 +0100";
layers = (
{
layerId = "E8827009-6BC8-4B70-BCEC-AB542FFF6A4D";
name = "Regular";
paths = (
{
closed = 1;
nodes = (
"327 269 OFFCURVE",
"327 240 OFFCURVE",
"327 231 CURVE",
"335 223 OFFCURVE",
"339 211 OFFCURVE",
"339 194 CURVE SMOOTH",
"339 165 OFFCURVE",
"327 148 OFFCURVE",
"314 139 CURVE",
"310 115 OFFCURVE",
"298 98 OFFCURVE",
"289 89 CURVE",
"289 64 LINE",
"414 10 LINE",
"398 -32 LINE",
"260 31 LINE SMOOTH",
"251 35 OFFCURVE",
"247 43 OFFCURVE",
"247 52 CURVE SMOOTH",
"247 98 LINE SMOOTH",
"247 106 OFFCURVE",
"251 115 OFFCURVE",
"260 118 CURVE",
"260 118 OFFCURVE",
"260 118 OFFCURVE",
"260 118 CURVE SMOOTH",
"260 118 OFFCURVE",
"268 127 OFFCURVE",
"272 156 CURVE SMOOTH",
"272 169 OFFCURVE",
"277 173 OFFCURVE",
"289 177 CURVE",
"293 177 OFFCURVE",
"293 181 OFFCURVE",
"293 190 CURVE SMOOTH",
"293 194 OFFCURVE",
"293 194 OFFCURVE",
"293 198 CURVE",
"293 198 OFFCURVE",
"289 198 OFFCURVE",
"289 202 CURVE SMOOTH",
"280 207 OFFCURVE",
"277 215 OFFCURVE",
"280 223 CURVE",
"280 223 OFFCURVE",
"285 240 OFFCURVE",
"280 261 CURVE",
"280 261 OFFCURVE",
"314 261 OFFCURVE",
"327 269 CURVE"
);
},
{
closed = 1;
nodes = (
"134 240 OFFCURVE",
"138 223 OFFCURVE",
"138 223 CURVE SMOOTH",
"138 215 OFFCURVE",
"138 207 OFFCURVE",
"130 202 CURVE SMOOTH",
"130 198 OFFCURVE",
"126 198 OFFCURVE",
"126 198 CURVE",
"126 194 OFFCURVE",
"122 194 OFFCURVE",
"122 190 CURVE SMOOTH",
"122 177 OFFCURVE",
"130 177 OFFCURVE",
"130 177 CURVE SMOOTH",
"138 173 OFFCURVE",
"147 169 OFFCURVE",
"147 156 CURVE SMOOTH",
"151 127 OFFCURVE",
"159 118 OFFCURVE",
"159 118 CURVE",
"168 115 OFFCURVE",
"172 106 OFFCURVE",
"172 98 CURVE SMOOTH",
"172 52 LINE SMOOTH",
"172 43 OFFCURVE",
"168 35 OFFCURVE",
"159 31 CURVE SMOOTH",
"17 -32 LINE",
"0 10 LINE",
"126 64 LINE",
"126 89 LINE",
"117 98 OFFCURVE",
"109 115 OFFCURVE",
"105 139 CURVE",
"92 148 OFFCURVE",
"80 165 OFFCURVE",
"80 194 CURVE SMOOTH",
"80 211 OFFCURVE",
"84 223 OFFCURVE",
"92 231 CURVE",
"92 240 OFFCURVE",
"88 269 OFFCURVE",
"92 273 CURVE",
"96 269 OFFCURVE",
"134 257 OFFCURVE",
"134 257 CURVE"
);
},
{
closed = 1;
nodes = (
"260 357 LINE",
"335 395 LINE",
"318 303 LINE",
"318 303 OFFCURVE",
"301 282 OFFCURVE",
"209 282 CURVE",
"209 282 LINE",
"113 282 OFFCURVE",
"101 303 OFFCURVE",
"101 303 CURVE",
"80 395 LINE",
"159 357 LINE",
"209 416 LINE"
);
}
);
width = 414;
}
);
unicode = 004D;
},
{
glyphname = "N";
lastChange = "2016-01-07 08:52:28 +0100";
layers = (
{
layerId = "E8827009-6BC8-4B70-BCEC-AB542FFF6A4D";
name = "Regular";
paths = (
{
closed = 1;
nodes = (
"382 301 LINE SMOOTH",
"391 301 OFFCURVE",
"399 298 OFFCURVE",
"406 292 CURVE",
"413 285 OFFCURVE",
"416 277 OFFCURVE",
"416 268 CURVE SMOOTH",
"416 66 LINE SMOOTH",
"416 57 OFFCURVE",
"413 49 OFFCURVE",
"406 42 CURVE SMOOTH",
"399 35 OFFCURVE",
"391 32 OFFCURVE",
"382 32 CURVE SMOOTH",
"34 32 LINE SMOOTH",
"25 32 OFFCURVE",
"17 35 OFFCURVE",
"10 42 CURVE SMOOTH",
"3 49 OFFCURVE",
"0 57 OFFCURVE",
"0 66 CURVE SMOOTH",
"0 268 LINE SMOOTH",
"0 277 OFFCURVE",
"3 285 OFFCURVE",
"10 292 CURVE",
"17 298 OFFCURVE",
"25 301 OFFCURVE",
"34 301 CURVE SMOOTH",
"103 301 LINE",
"142 341 LINE",
"148 348 OFFCURVE",
"156 352 OFFCURVE",
"167 352 CURVE SMOOTH",
"251 352 LINE SMOOTH",
"260 352 OFFCURVE",
"267 349 OFFCURVE",
"274 342 CURVE",
"274 342 LINE",
"315 301 LINE"
);
},
{
closed = 1;
nodes = (
"161 91 OFFCURVE",
"183 82 OFFCURVE",
"208 82 CURVE SMOOTH",
"233 82 OFFCURVE",
"255 91 OFFCURVE",
"273 110 CURVE SMOOTH",
"291 128 OFFCURVE",
"300 150 OFFCURVE",
"300 175 CURVE SMOOTH",
"300 200 OFFCURVE",
"291 222 OFFCURVE",
"273 241 CURVE SMOOTH",
"255 259 OFFCURVE",
"233 268 OFFCURVE",
"208 268 CURVE SMOOTH",
"183 268 OFFCURVE",
"161 259 OFFCURVE",
"143 241 CURVE SMOOTH",
"125 222 OFFCURVE",
"116 200 OFFCURVE",
"116 175 CURVE SMOOTH",
"116 150 OFFCURVE",
"125 128 OFFCURVE",
"143 110 CURVE SMOOTH"
);
},
{
closed = 1;
nodes = (
"362 253 OFFCURVE",
"367 248 OFFCURVE",
"376 248 CURVE SMOOTH",
"385 248 OFFCURVE",
"390 253 OFFCURVE",
"390 262 CURVE SMOOTH",
"390 271 OFFCURVE",
"385 276 OFFCURVE",
"376 276 CURVE SMOOTH",
"367 276 OFFCURVE",
"362 271 OFFCURVE",
"362 262 CURVE SMOOTH"
);
},
{
closed = 1;
nodes = (
"172 238 OFFCURVE",
"189 245 OFFCURVE",
"208 245 CURVE SMOOTH",
"227 245 OFFCURVE",
"244 238 OFFCURVE",
"258 225 CURVE",
"271 211 OFFCURVE",
"278 194 OFFCURVE",
"278 175 CURVE SMOOTH",
"278 156 OFFCURVE",
"271 139 OFFCURVE",
"258 126 CURVE SMOOTH",
"244 112 OFFCURVE",
"227 105 OFFCURVE",
"208 105 CURVE SMOOTH",
"189 105 OFFCURVE",
"172 112 OFFCURVE",
"159 126 CURVE",
"145 139 OFFCURVE",
"138 156 OFFCURVE",
"138 175 CURVE SMOOTH",
"138 194 OFFCURVE",
"145 211 OFFCURVE",
"159 225 CURVE SMOOTH"
);
}
);
width = 416;
}
);
unicode = 004E;
},
{
glyphname = "O";
lastChange = "2015-02-09 15:36:47 +0100";
layers = (
{
layerId = "E8827009-6BC8-4B70-BCEC-AB542FFF6A4D";
name = "Regular";
paths = (
{
closed = 1;
nodes = (
"239 230 OFFCURVE",
"229 191 OFFCURVE",
"209 147 CURVE SMOOTH",
"189 103 OFFCURVE",
"169 67 OFFCURVE",
"149 40 CURVE SMOOTH",
"119 0 LINE",
"116 4 OFFCURVE",
"111 10 OFFCURVE",
"106 17 CURVE SMOOTH",
"101 24 OFFCURVE",
"91 39 OFFCURVE",
"78 60 CURVE SMOOTH",
"64 81 OFFCURVE",
"52 101 OFFCURVE",
"42 122 CURVE",
"31 142 OFFCURVE",
"22 165 OFFCURVE",
"13 192 CURVE SMOOTH",
"4 219 OFFCURVE",
"0 243 OFFCURVE",
"0 264 CURVE SMOOTH",
"0 297 OFFCURVE",
"12 326 OFFCURVE",
"35 349 CURVE SMOOTH",
"58 372 OFFCURVE",
"86 384 OFFCURVE",
"119 384 CURVE SMOOTH",
"152 384 OFFCURVE",
"180 372 OFFCURVE",
"204 349 CURVE SMOOTH",
"227 326 OFFCURVE",
"239 297 OFFCURVE",
"239 264 CURVE SMOOTH"
);
},
{
closed = 1;
nodes = (
"91 212 OFFCURVE",
"104 206 OFFCURVE",
"119 206 CURVE SMOOTH",
"134 206 OFFCURVE",
"148 212 OFFCURVE",
"159 223 CURVE SMOOTH",
"170 234 OFFCURVE",
"176 247 OFFCURVE",
"176 262 CURVE SMOOTH",
"176 277 OFFCURVE",
"170 291 OFFCURVE",
"159 302 CURVE SMOOTH",
"148 313 OFFCURVE",
"134 319 OFFCURVE",
"119 319 CURVE SMOOTH",
"104 319 OFFCURVE",
"91 313 OFFCURVE",
"80 302 CURVE SMOOTH",
"69 291 OFFCURVE",
"63 277 OFFCURVE",
"63 262 CURVE SMOOTH",
"63 247 OFFCURVE",
"69 234 OFFCURVE",
"80 223 CURVE SMOOTH"
);
}
);
width = 239;
}
);
unicode = 004F;
},
{
glyphname = "P";
lastChange = "2015-02-09 15:08:55 +0100";
layers = (
{
background = {
paths = (
{
closed = 1;
nodes = (
"626 434 LINE",
"626 728 LINE",
"304 728 LINE",
"304 434 LINE",
"0 434 LINE",
"0 109 LINE",
"304 109 LINE",
"304 -198 LINE",
"626 -198 LINE",
"626 109 LINE",
"927 109 LINE",
"927 434 LINE"
);
}
);
};
layerId = "E8827009-6BC8-4B70-BCEC-AB542FFF6A4D";
name = "Regular";
paths = (
{
closed = 1;
nodes = (
"384 224 LINE",
"384 160 LINE",
"224 160 LINE",
"224 0 LINE",
"160 0 LINE",
"160 160 LINE",
"0 160 LINE",
"0 224 LINE",
"160 224 LINE",
"160 384 LINE",
"224 384 LINE",
"224 224 LINE"
);
}
);
width = 384;
}
);
unicode = 0050;
},
{
glyphname = "Q";
lastChange = "2015-04-29 07:59:05 +0100";
layers = (
{
layerId = "E8827009-6BC8-4B70-BCEC-AB542FFF6A4D";
name = "Regular";
paths = (
{
closed = 1;
nodes = (
"427 110 OFFCURVE",
"445 99 OFFCURVE",
"446 90 CURVE",
"448 0 LINE",
"350 0 LINE",
"350 47 OFFCURVE",
"350 73 OFFCURVE",
"349 77 CURVE",
"348 82 OFFCURVE",
"348 87 OFFCURVE",
"347 90 CURVE SMOOTH",
"346 93 OFFCURVE",
"341 99 OFFCURVE",
"332 106 CURVE SMOOTH",
"323 113 OFFCURVE",
"311 120 OFFCURVE",
"294 127 CURVE",
"292 128 OFFCURVE",
"289 129 OFFCURVE",
"285 131 CURVE",
"280 132 OFFCURVE",
"277 133 OFFCURVE",
"275 134 CURVE",
"278 135 OFFCURVE",
"280 137 OFFCURVE",
"282 138 CURVE SMOOTH",
"284 139 OFFCURVE",
"286 141 OFFCURVE",
"287 142 CURVE SMOOTH",
"288 143 OFFCURVE",
"289 144 OFFCURVE",
"290 146 CURVE",
"290 148 OFFCURVE",
"290 150 OFFCURVE",
"290 151 CURVE SMOOTH",
"290 152 OFFCURVE",
"290 154 OFFCURVE",
"290 157 CURVE SMOOTH",
"290 160 OFFCURVE",
"290 161 OFFCURVE",
"290 162 CURVE SMOOTH",
"290 168 OFFCURVE",
"288 174 OFFCURVE",
"284 181 CURVE",
"280 187 OFFCURVE",
"277 196 OFFCURVE",
"275 209 CURVE",
"274 213 OFFCURVE",
"273 217 OFFCURVE",
"272 220 CURVE",
"270 223 OFFCURVE",
"268 229 OFFCURVE",
"266 237 CURVE",
"265 240 OFFCURVE",
"265 244 OFFCURVE",
"266 248 CURVE SMOOTH",
"267 252 OFFCURVE",
"267 254 OFFCURVE",
"267 255 CURVE SMOOTH",
"267 257 OFFCURVE",
"267 260 OFFCURVE",
"266 265 CURVE SMOOTH",
"265 270 OFFCURVE",
"265 274 OFFCURVE",
"265 277 CURVE",
"264 288 OFFCURVE",
"269 299 OFFCURVE",
"278 311 CURVE SMOOTH",
"287 323 OFFCURVE",
"302 329 OFFCURVE",
"322 329 CURVE SMOOTH",
"342 329 OFFCURVE",
"357 323 OFFCURVE",
"367 311 CURVE",
"376 298 OFFCURVE",
"381 287 OFFCURVE",
"380 277 CURVE",
"380 274 OFFCURVE",
"380 270 OFFCURVE",
"379 265 CURVE SMOOTH",
"378 260 OFFCURVE",
"378 257 OFFCURVE",
"378 255 CURVE SMOOTH",
"378 254 OFFCURVE",
"379 252 OFFCURVE",
"380 249 CURVE SMOOTH",
"381 246 OFFCURVE",
"380 242 OFFCURVE",
"379 237 CURVE",
"377 229 OFFCURVE",
"375 223 OFFCURVE",
"374 220 CURVE",
"372 217 OFFCURVE",
"371 213 OFFCURVE",
"370 209 CURVE",
"368 196 OFFCURVE",
"365 187 OFFCURVE",
"361 180 CURVE",
"356 173 OFFCURVE",
"354 167 OFFCURVE",
"354 162 CURVE SMOOTH",
"354 148 OFFCURVE",
"356 140 OFFCURVE",
"359 137 CURVE SMOOTH",
"360 136 OFFCURVE",
"372 132 OFFCURVE",
"393 123 CURVE"
);
},
{
closed = 1;
nodes = (
"325 0 LINE",
"162 0 LINE",
"0 0 LINE",
"0 43 OFFCURVE",
"1 69 OFFCURVE",
"2 77 CURVE",
"5 89 OFFCURVE",
"28 103 OFFCURVE",
"71 120 CURVE SMOOTH",
"98 130 OFFCURVE",
"113 137 OFFCURVE",
"116 141 CURVE",
"119 144 OFFCURVE",
"121 156 OFFCURVE",
"121 175 CURVE SMOOTH",
"121 182 OFFCURVE",
"118 188 OFFCURVE",
"113 195 CURVE",
"108 201 OFFCURVE",
"104 212 OFFCURVE",
"101 229 CURVE SMOOTH",
"100 234 OFFCURVE",
"99 239 OFFCURVE",
"97 243 CURVE",
"94 247 OFFCURVE",
"92 254 OFFCURVE",
"90 265 CURVE SMOOTH",
"89 270 OFFCURVE",
"89 275 OFFCURVE",
"90 280 CURVE",
"91 284 OFFCURVE",
"91 287 OFFCURVE",
"91 288 CURVE",
"90 297 OFFCURVE",
"89 307 OFFCURVE",
"88 317 CURVE SMOOTH",
"87 330 OFFCURVE",
"92 345 OFFCURVE",
"105 361 CURVE SMOOTH",
"117 376 OFFCURVE",
"136 384 OFFCURVE",
"162 384 CURVE SMOOTH",
"188 384 OFFCURVE",
"207 376 OFFCURVE",
"220 360 CURVE SMOOTH",
"233 344 OFFCURVE",
"238 330 OFFCURVE",
"237 317 CURVE SMOOTH",
"236 307 OFFCURVE",
"235 297 OFFCURVE",
"234 288 CURVE",
"234 287 OFFCURVE",
"235 284 OFFCURVE",
"236 280 CURVE SMOOTH",
"237 276 OFFCURVE",
"237 271 OFFCURVE",
"236 265 CURVE SMOOTH",
"234 254 OFFCURVE",
"232 247 OFFCURVE",
"229 243 CURVE SMOOTH",
"226 239 OFFCURVE",
"225 234 OFFCURVE",
"224 229 CURVE SMOOTH",
"221 212 OFFCURVE",
"217 201 OFFCURVE",
"212 195 CURVE",
"207 188 OFFCURVE",
"204 182 OFFCURVE",
"204 175 CURVE SMOOTH",
"204 164 OFFCURVE",
"204 158 OFFCURVE",
"204 155 CURVE SMOOTH",
"204 152 OFFCURVE",
"205 149 OFFCURVE",
"207 144 CURVE SMOOTH",
"209 139 OFFCURVE",
"212 136 OFFCURVE",
"216 135 CURVE",
"220 133 OFFCURVE",
"226 130 OFFCURVE",
"235 127 CURVE",
"237 126 OFFCURVE",
"243 124 OFFCURVE",
"254 120 CURVE SMOOTH",
"297 103 OFFCURVE",
"320 89 OFFCURVE",
"323 77 CURVE",
"324 69 OFFCURVE",
"325 53 OFFCURVE",
"325 30 CURVE SMOOTH"
);
}
);
width = 448;
}
);
unicode = 0051;
},
{
glyphname = "R";
lastChange = "2015-05-12 08:53:44 +0100";
layers = (
{
layerId = "E8827009-6BC8-4B70-BCEC-AB542FFF6A4D";
name = "Regular";
paths = (
{
closed = 1;
nodes = (
"224 140 LINE",
"96 256 LINE",
"176 256 LINE",
"176 352 LINE",
"272 352 LINE",
"272 256 LINE",
"352 256 LINE"
);
},
{
closed = 1;
nodes = (
"433 151 LINE",
"445 144 OFFCURVE",
"450 134 OFFCURVE",
"448 119 CURVE SMOOTH",
"439 52 LINE SMOOTH",
"437 39 OFFCURVE",
"428 32 OFFCURVE",
"411 32 CURVE SMOOTH",
"37 32 LINE SMOOTH",
"20 32 OFFCURVE",
"11 39 OFFCURVE",
"9 52 CURVE SMOOTH",
"0 119 LINE SMOOTH",
"-2 134 OFFCURVE",
"3 144 OFFCURVE",
"14 151 CURVE",
"86 206 LINE",
"128 206 LINE",
"66 144 LINE",
"116 144 LINE SMOOTH",
"119 144 OFFCURVE",
"121 143 OFFCURVE",
"122 141 CURVE",
"140 96 LINE",
"308 96 LINE",
"326 141 LINE",
"327 143 OFFCURVE",
"329 144 OFFCURVE",
"331 144 CURVE SMOOTH",
"382 144 LINE",
"320 206 LINE",
"362 206 LINE"
);
}
);
width = 448;
}
);
unicode = 0052;
},
{
glyphname = "S";
lastChange = "2015-02-09 15:29:20 +0100";
layers = (
{
layerId = "E8827009-6BC8-4B70-BCEC-AB542FFF6A4D";
name = "Regular";
paths = (
{
closed = 1;
nodes = (
"118 130 LINE",
"90 -32 LINE",
"236 45 LINE",
"382 -32 LINE",
"354 130 LINE",
"471 245 LINE",
"308 269 LINE",
"236 416 LINE",
"163 269 LINE",
"0 245 LINE"
);
}
);
width = 471;
}
);
unicode = 0053;
},
{
glyphname = "T";
lastChange = "2015-05-12 08:20:04 +0100";
layers = (
{
layerId = "E8827009-6BC8-4B70-BCEC-AB542FFF6A4D";
name = "Regular";
paths = (
{
closed = 1;
nodes = (
"96 32 LINE",
"96 352 LINE",
"160 352 LINE",
"160 32 LINE"
);
},
{
closed = 1;
nodes = (
"0 32 LINE",
"0 128 LINE",
"64 128 LINE",
"64 32 LINE"
);
},
{
closed = 1;
nodes = (
"192 32 LINE",
"192 192 LINE",
"256 192 LINE",
"256 32 LINE"
);
},
{
closed = 1;
nodes = (
"288 32 LINE",
"288 256 LINE",
"352 256 LINE",
"352 32 LINE"
);
}
);
width = 352;
}
);
unicode = 0054;
},
{
glyphname = "U";
lastChange = "2015-05-08 09:39:20 +0100";
layers = (
{
layerId = "E8827009-6BC8-4B70-BCEC-AB542FFF6A4D";
name = "Regular";
paths = (
{
closed = 1;
nodes = (
"192 304 LINE",
"320 304 LINE",
"320 0 LINE",
"0 0 LINE",
"0 304 LINE",
"128 304 LINE",
"128 288 LINE",
"16 288 LINE",
"16 16 LINE",
"304 16 LINE",
"304 288 LINE",
"192 288 LINE"
);
},
{
closed = 1;
nodes = (
"97 196 LINE",
"152 141 LINE",
"152 384 LINE",
"168 384 LINE",
"168 141 LINE",
"223 196 LINE",
"234 184 LINE",
"160 110 LINE",
"86 184 LINE"
);
}
);
width = 320;
}
);
unicode = 0055;
},
{
glyphname = "V";
lastChange = "2015-02-09 15:16:43 +0100";
layers = (
{
layerId = "E8827009-6BC8-4B70-BCEC-AB542FFF6A4D";
name = "Regular";
paths = (
{
closed = 1;
nodes = (
"414 338 LINE",
"415 335 OFFCURVE",
"416 333 OFFCURVE",
"416 332 CURVE SMOOTH",
"416 331 OFFCURVE",
"415 329 OFFCURVE",
"414 326 CURVE",
"165 6 LINE",
"161 2 OFFCURVE",
"158 0 OFFCURVE",
"156 0 CURVE SMOOTH",
"153 0 OFFCURVE",
"149 2 OFFCURVE",
"146 5 CURVE SMOOTH",
"5 141 LINE",
"2 144 LINE",
"1 147 OFFCURVE",
"0 149 OFFCURVE",
"0 150 CURVE SMOOTH",
"0 151 OFFCURVE",
"1 152 OFFCURVE",
"2 155 CURVE",
"4 157 LINE SMOOTH",
"23 177 OFFCURVE",
"37 192 OFFCURVE",
"48 203 CURVE SMOOTH",
"52 207 OFFCURVE",
"55 209 OFFCURVE",
"56 209 CURVE SMOOTH",
"59 209 OFFCURVE",
"62 207 OFFCURVE",
"66 203 CURVE SMOOTH",
"146 125 LINE",
"346 382 LINE",
"347 383 OFFCURVE",
"349 384 OFFCURVE",
"352 384 CURVE SMOOTH",
"354 384 OFFCURVE",
"356 383 OFFCURVE",
"359 382 CURVE"
);
}
);
width = 416;
}
);
unicode = 0056;
},
{
glyphname = "W";
lastChange = "2015-02-09 15:17:07 +0100";
layers = (
{
layerId = "E8827009-6BC8-4B70-BCEC-AB542FFF6A4D";
name = "Regular";
paths = (
{
closed = 1;
nodes = (
"353 384 LINE SMOOTH",
"362 384 OFFCURVE",
"369 381 OFFCURVE",
"375 376 CURVE",
"381 370 OFFCURVE",
"384 363 OFFCURVE",
"384 354 CURVE SMOOTH",
"384 33 LINE SMOOTH",
"384 24 OFFCURVE",
"381 17 OFFCURVE",
"375 10 CURVE SMOOTH",
"369 3 OFFCURVE",
"362 0 OFFCURVE",
"353 0 CURVE SMOOTH",
"33 0 LINE SMOOTH",
"24 0 OFFCURVE",
"17 3 OFFCURVE",
"10 10 CURVE SMOOTH",
"3 17 OFFCURVE",
"0 24 OFFCURVE",
"0 33 CURVE SMOOTH",
"0 354 LINE SMOOTH",
"0 363 OFFCURVE",
"3 370 OFFCURVE",
"10 376 CURVE SMOOTH",
"16 381 OFFCURVE",
"24 384 OFFCURVE",
"33 384 CURVE SMOOTH"
);
},
{
closed = 1;
nodes = (
"119 64 LINE",
"119 235 LINE",
"64 235 LINE",
"64 64 LINE"
);
},
{
closed = 1;
nodes = (
"123 299 OFFCURVE",
"120 306 OFFCURVE",
"115 312 CURVE",
"110 317 OFFCURVE",
"103 320 OFFCURVE",
"94 320 CURVE SMOOTH",
"85 320 OFFCURVE",
"78 317 OFFCURVE",
"73 312 CURVE SMOOTH",
"67 306 OFFCURVE",
"64 299 OFFCURVE",
"64 290 CURVE SMOOTH",
"64 282 OFFCURVE",
"67 275 OFFCURVE",
"72 270 CURVE",
"77 264 OFFCURVE",
"84 261 OFFCURVE",
"93 261 CURVE SMOOTH",
"102 261 OFFCURVE",
"109 264 OFFCURVE",
"115 270 CURVE SMOOTH",
"120 275 OFFCURVE",
"123 282 OFFCURVE",
"123 290 CURVE SMOOTH"
);
},
{
closed = 1;
nodes = (
"320 64 LINE",
"320 164 LINE SMOOTH",
"320 189 OFFCURVE",
"314 207 OFFCURVE",
"303 220 CURVE",
"291 233 OFFCURVE",
"276 239 OFFCURVE",
"257 239 CURVE SMOOTH",
"237 239 OFFCURVE",
"220 230 OFFCURVE",
"207 211 CURVE",
"207 235 LINE",
"152 235 LINE",
"152 64 LINE",
"207 64 LINE",
"207 161 LINE SMOOTH",
"207 168 OFFCURVE",
"208 172 OFFCURVE",
"209 175 CURVE",
"214 188 OFFCURVE",
"224 195 OFFCURVE",
"237 195 CURVE SMOOTH",
"256 195 OFFCURVE",
"265 183 OFFCURVE",
"265 158 CURVE SMOOTH",
"265 64 LINE"
);
}
);
width = 384;
}
);
unicode = 0057;
},
{
glyphname = "X";
lastChange = "2015-02-09 15:36:23 +0100";
layers = (
{
layerId = "E8827009-6BC8-4B70-BCEC-AB542FFF6A4D";
name = "Regular";
paths = (
{
closed = 1;
nodes = (
"380 61 LINE SMOOTH",
"383 58 OFFCURVE",
"384 55 OFFCURVE",
"384 51 CURVE SMOOTH",
"384 47 OFFCURVE",
"383 44 OFFCURVE",
"380 41 CURVE SMOOTH",
"342 4 LINE SMOOTH",
"339 1 OFFCURVE",
"336 0 OFFCURVE",
"333 0 CURVE SMOOTH",
"329 0 OFFCURVE",
"326 1 OFFCURVE",
"323 4 CURVE SMOOTH",
"192 135 LINE",
"61 4 LINE SMOOTH",
"58 1 OFFCURVE",
"55 0 OFFCURVE",
"52 0 CURVE SMOOTH",
"48 0 OFFCURVE",
"45 1 OFFCURVE",
"42 4 CURVE SMOOTH",
"4 41 LINE SMOOTH",
"1 44 OFFCURVE",
"0 47 OFFCURVE",
"0 51 CURVE SMOOTH",
"0 55 OFFCURVE",
"1 58 OFFCURVE",
"4 61 CURVE SMOOTH",
"136 192 LINE",
"4 322 LINE SMOOTH",
"-3 329 OFFCURVE",
"-3 335 OFFCURVE",
"4 342 CURVE SMOOTH",
"41 380 LINE",
"45 383 OFFCURVE",
"48 384 OFFCURVE",
"51 384 CURVE SMOOTH",
"55 384 OFFCURVE",
"58 383 OFFCURVE",
"61 380 CURVE SMOOTH",
"192 250 LINE",
"323 380 LINE",
"327 383 OFFCURVE",
"330 384 OFFCURVE",
"333 384 CURVE SMOOTH",
"337 384 OFFCURVE",
"340 383 OFFCURVE",
"343 380 CURVE SMOOTH",
"380 342 LINE SMOOTH",
"387 335 OFFCURVE",
"387 329 OFFCURVE",
"380 323 CURVE",
"248 193 LINE"
);
}
);
width = 385;
}
);
unicode = 0058;
},
{
glyphname = "Y";
lastChange = "2015-02-09 15:32:21 +0100";
layers = (
{
layerId = "E8827009-6BC8-4B70-BCEC-AB542FFF6A4D";
name = "Regular";
paths = (
{
closed = 1;
nodes = (
"109 393 OFFCURVE",
"162 415 OFFCURVE",
"224 415 CURVE SMOOTH",
"286 415 OFFCURVE",
"339 393 OFFCURVE",
"383 350 CURVE SMOOTH",
"426 306 OFFCURVE",
"448 253 OFFCURVE",
"448 191 CURVE SMOOTH",
"448 129 OFFCURVE",
"426 76 OFFCURVE",
"383 33 CURVE SMOOTH",
"339 -11 OFFCURVE",
"286 -33 OFFCURVE",
"224 -33 CURVE SMOOTH",
"162 -33 OFFCURVE",
"109 -11 OFFCURVE",
"66 33 CURVE SMOOTH",
"22 76 OFFCURVE",
"0 129 OFFCURVE",
"0 191 CURVE SMOOTH",
"0 253 OFFCURVE",
"22 306 OFFCURVE",
"66 350 CURVE SMOOTH"
);
},
{
closed = 1;
nodes = (
"257 191 LINE",
"333 266 LINE SMOOTH",
"337 270 OFFCURVE",
"337 274 OFFCURVE",
"333 278 CURVE SMOOTH",
"311 299 LINE SMOOTH",
"309 301 OFFCURVE",
"307 302 OFFCURVE",
"305 302 CURVE SMOOTH",
"304 302 OFFCURVE",
"302 301 OFFCURVE",
"300 299 CURVE SMOOTH",
"224 225 LINE",
"148 299 LINE SMOOTH",
"146 301 OFFCURVE",
"144 302 OFFCURVE",
"143 302 CURVE SMOOTH",
"141 302 OFFCURVE",
"139 301 OFFCURVE",
"137 299 CURVE SMOOTH",
"116 278 LINE SMOOTH",
"112 274 OFFCURVE",
"112 270 OFFCURVE",
"116 266 CURVE SMOOTH",
"192 191 LINE",
"116 115 LINE SMOOTH",
"115 114 OFFCURVE",
"114 113 OFFCURVE",
"114 110 CURVE SMOOTH",
"114 107 OFFCURVE",
"115 105 OFFCURVE",
"116 104 CURVE SMOOTH",
"137 82 LINE SMOOTH",
"138 81 OFFCURVE",
"140 80 OFFCURVE",
"143 80 CURVE SMOOTH",
"146 80 OFFCURVE",
"148 81 OFFCURVE",
"149 82 CURVE SMOOTH",
"224 158 LINE",
"300 83 LINE SMOOTH",
"302 81 OFFCURVE",
"304 80 OFFCURVE",
"305 80 CURVE SMOOTH",
"307 80 OFFCURVE",
"309 81 OFFCURVE",
"311 83 CURVE SMOOTH",
"332 104 LINE",
"334 105 OFFCURVE",
"335 107 OFFCURVE",
"335 110 CURVE SMOOTH",
"335 112 OFFCURVE",
"334 114 OFFCURVE",
"332 116 CURVE SMOOTH"
);
}
);
width = 448;
}
);
unicode = 0059;
},
{
glyphname = "Z";
lastChange = "2015-05-08 09:38:15 +0100";
layers = (
{
layerId = "E8827009-6BC8-4B70-BCEC-AB542FFF6A4D";
name = "Regular";
paths = (
{
closed = 1;
nodes = (
"208 335 LINE",
"288 335 LINE",
"288 320 LINE",
"268 320 LINE",
"244 29 LINE",
"244 21 OFFCURVE",
"241 14 OFFCURVE",
"236 9 CURVE SMOOTH",
"230 3 OFFCURVE",
"223 0 OFFCURVE",
"215 0 CURVE SMOOTH",
"74 0 LINE SMOOTH",
"66 0 OFFCURVE",
"59 3 OFFCURVE",
"54 9 CURVE",
"48 14 OFFCURVE",
"45 21 OFFCURVE",
"45 29 CURVE",
"21 320 LINE",
"0 320 LINE",
"0 335 LINE",
"80 335 LINE",
"80 355 LINE SMOOTH",
"80 363 OFFCURVE",
"83 370 OFFCURVE",
"89 376 CURVE SMOOTH",
"94 381 OFFCURVE",
"101 384 OFFCURVE",
"109 384 CURVE SMOOTH",
"179 384 LINE SMOOTH",
"187 384 OFFCURVE",
"194 381 OFFCURVE",
"200 376 CURVE",
"205 370 OFFCURVE",
"208 363 OFFCURVE",
"208 355 CURVE SMOOTH"
);
},
{
closed = 1;
nodes = (
"95 335 LINE",
"193 335 LINE",
"193 355 LINE SMOOTH",
"193 364 OFFCURVE",
"188 369 OFFCURVE",
"179 369 CURVE SMOOTH",
"109 369 LINE SMOOTH",
"100 369 OFFCURVE",
"95 364 OFFCURVE",
"95 355 CURVE SMOOTH"
);
},
{
closed = 1;
nodes = (
"91 47 LINE",
"105 47 LINE",
"94 288 LINE",
"80 288 LINE"
);
},
{
closed = 1;
nodes = (
"151 47 LINE",
"151 288 LINE",
"137 288 LINE",
"137 47 LINE"
);
},
{
closed = 1;
nodes = (
"197 47 LINE",
"208 288 LINE",
"194 288 LINE",
"183 47 LINE"
);
}
);
width = 288;
}
);
unicode = 005A;
},
{
glyphname = "a";
lastChange = "2015-02-09 15:28:14 +0100";
layers = (
{
layerId = "E8827009-6BC8-4B70-BCEC-AB542FFF6A4D";
name = "Regular";
paths = (
{
closed = 1;
nodes = (
"375 357 LINE",
"337 391 OFFCURVE",
"286 414 OFFCURVE",
"229 416 CURVE",
"229 355 LINE",
"270 355 OFFCURVE",
"305 339 OFFCURVE",
"334 313 CURVE"
);
},
{
closed = 1;
nodes = (
"229 -32 LINE",
"286 -30 OFFCURVE",
"337 -9 OFFCURVE",
"375 27 CURVE",
"334 70 LINE",
"305 45 OFFCURVE",
"270 29 OFFCURVE",
"229 29 CURVE"
);
},
{
closed = 1;
nodes = (
"59 343 LINE",
"25 306 OFFCURVE",
"2 256 OFFCURVE",
"0 202 CURVE",
"62 202 LINE",
"64 240 OFFCURVE",
"80 275 OFFCURVE",
"103 302 CURVE"
);
},
{
closed = 1;
nodes = (
"448 202 LINE",
"446 256 OFFCURVE",
"423 306 OFFCURVE",
"388 343 CURVE",
"345 302 LINE",
"369 275 OFFCURVE",
"385 240 OFFCURVE",
"387 202 CURVE"
);
},
{
closed = 1;
nodes = (
"214 416 LINE",
"159 414 OFFCURVE",
"109 391 OFFCURVE",
"71 357 CURVE",
"114 313 LINE",
"141 337 OFFCURVE",
"175 352 OFFCURVE",
"214 355 CURVE"
);
},
{
closed = 1;
nodes = (
"0 187 LINE",
"2 130 OFFCURVE",
"23 77 OFFCURVE",
"59 39 CURVE",
"103 82 LINE",
"77 109 OFFCURVE",
"62 146 OFFCURVE",
"62 187 CURVE"
);
},
{
closed = 1;
nodes = (
"387 146 OFFCURVE",
"371 109 OFFCURVE",
"345 82 CURVE",
"388 39 LINE",
"423 77 OFFCURVE",
"446 130 OFFCURVE",
"448 187 CURVE",
"387 187 LINE"
);
},
{
closed = 1;
nodes = (
"71 27 LINE",
"109 -7 OFFCURVE",
"159 -30 OFFCURVE",
"214 -32 CURVE",
"214 29 LINE",
"175 32 OFFCURVE",
"141 47 OFFCURVE",
"114 70 CURVE"
);
},
{
closed = 1;
nodes = (
"105 175 LINE",
"185 96 LINE",
"341 252 LINE",
"302 291 LINE",
"182 170 LINE",
"141 211 LINE"
);
}
);
width = 448;
}
);
unicode = 0061;
},
{
glyphname = "b";
lastChange = "2015-02-09 15:34:47 +0100";
layers = (
{
layerId = "E8827009-6BC8-4B70-BCEC-AB542FFF6A4D";
name = "Regular";
paths = (
{
closed = 1;
nodes = (
"304 288 LINE SMOOTH",
"326 288 OFFCURVE",
"345 280 OFFCURVE",
"361 265 CURVE",
"376 249 OFFCURVE",
"384 230 OFFCURVE",
"384 208 CURVE SMOOTH",
"384 176 LINE SMOOTH",
"384 154 OFFCURVE",
"376 135 OFFCURVE",
"361 120 CURVE SMOOTH",
"345 104 OFFCURVE",
"326 96 OFFCURVE",
"304 96 CURVE SMOOTH",
"192 96 LINE SMOOTH",
"158 96 OFFCURVE",
"134 112 OFFCURVE",
"119 144 CURVE SMOOTH",
"114 155 OFFCURVE",
"112 166 OFFCURVE",
"112 176 CURVE SMOOTH",
"112 208 LINE",
"160 208 LINE",
"160 176 LINE SMOOTH",
"160 167 OFFCURVE",
"163 159 OFFCURVE",
"169 153 CURVE SMOOTH",
"175 147 OFFCURVE",
"183 144 OFFCURVE",
"192 144 CURVE SMOOTH",
"304 144 LINE SMOOTH",
"313 144 OFFCURVE",
"321 147 OFFCURVE",
"327 153 CURVE SMOOTH",
"333 159 OFFCURVE",
"336 167 OFFCURVE",
"336 176 CURVE SMOOTH",
"336 208 LINE SMOOTH",
"336 217 OFFCURVE",
"333 225 OFFCURVE",
"327 231 CURVE SMOOTH",
"321 237 OFFCURVE",
"313 240 OFFCURVE",
"304 240 CURVE SMOOTH",
"288 240 LINE",
"286 249 OFFCURVE",
"282 258 OFFCURVE",
"277 266 CURVE SMOOTH",
"272 274 OFFCURVE",
"267 280 OFFCURVE",
"262 283 CURVE",
"256 288 LINE"
);
},
{
closed = 1;
nodes = (
"270 230 OFFCURVE",
"272 219 OFFCURVE",
"272 208 CURVE SMOOTH",
"272 176 LINE",
"224 176 LINE",
"224 208 LINE SMOOTH",
"224 217 OFFCURVE",
"221 225 OFFCURVE",
"215 231 CURVE SMOOTH",
"209 237 OFFCURVE",
"201 240 OFFCURVE",
"192 240 CURVE SMOOTH",
"80 240 LINE SMOOTH",
"71 240 OFFCURVE",
"63 237 OFFCURVE",
"57 231 CURVE SMOOTH",
"51 225 OFFCURVE",
"48 217 OFFCURVE",
"48 208 CURVE SMOOTH",
"48 176 LINE SMOOTH",
"48 167 OFFCURVE",
"51 159 OFFCURVE",
"57 153 CURVE SMOOTH",
"63 147 OFFCURVE",
"71 144 OFFCURVE",
"80 144 CURVE SMOOTH",
"96 144 LINE",
"98 135 OFFCURVE",
"102 126 OFFCURVE",
"107 118 CURVE SMOOTH",
"112 110 OFFCURVE",
"117 104 OFFCURVE",
"122 101 CURVE",
"128 96 LINE",
"80 96 LINE SMOOTH",
"58 96 OFFCURVE",
"39 104 OFFCURVE",
"24 120 CURVE",
"8 135 OFFCURVE",
"0 154 OFFCURVE",
"0 176 CURVE SMOOTH",
"0 208 LINE SMOOTH",
"0 230 OFFCURVE",
"8 249 OFFCURVE",
"24 265 CURVE SMOOTH",
"39 280 OFFCURVE",
"58 288 OFFCURVE",
"80 288 CURVE SMOOTH",
"192 288 LINE SMOOTH",
"208 288 OFFCURVE",
"223 284 OFFCURVE",
"237 275 CURVE SMOOTH",
"250 266 OFFCURVE",
"260 254 OFFCURVE",
"266 240 CURVE SMOOTH"
);
}
);
width = 384;
}
);
unicode = 0062;
},
{
glyphname = "c";
lastChange = "2015-05-19 11:24:09 +0100";
layers = (
{
layerId = "E8827009-6BC8-4B70-BCEC-AB542FFF6A4D";
name = "Regular";
paths = (
{
closed = 1;
nodes = (
"192 352 LINE",
"192 288 LINE",
"256 288 LINE",
"256 272 LINE",
"176 272 LINE",
"176 352 LINE"
);
},
{
closed = 1;
nodes = (
"213 384 LINE",
"288 309 LINE",
"288 48 LINE",
"240 48 LINE",
"240 0 LINE",
"0 0 LINE",
"0 336 LINE",
"48 336 LINE",
"48 384 LINE"
);
},
{
closed = 1;
nodes = (
"224 16 LINE",
"224 48 LINE",
"48 48 LINE",
"48 320 LINE",
"16 320 LINE",
"16 16 LINE"
);
},
{
closed = 1;
nodes = (
"272 64 LINE",
"272 302 LINE",
"207 368 LINE",
"64 368 LINE",
"64 64 LINE"
);
}
);
width = 288;
}
);
unicode = 0063;
},
{
glyphname = "d";
lastChange = "2015-02-09 15:14:30 +0100";
layers = (
{
layerId = "E8827009-6BC8-4B70-BCEC-AB542FFF6A4D";
name = "Regular";
paths = (
{
closed = 1;
nodes = (
"288 70 LINE",
"288 129 LINE",
"326 160 LINE",
"326 51 LINE SMOOTH",
"326 38 OFFCURVE",
"320 32 OFFCURVE",
"307 32 CURVE SMOOTH",
"19 32 LINE SMOOTH",
"14 32 OFFCURVE",
"9 34 OFFCURVE",
"6 38 CURVE",
"2 41 OFFCURVE",
"0 46 OFFCURVE",
"0 51 CURVE SMOOTH",
"0 269 LINE SMOOTH",
"0 282 OFFCURVE",
"6 288 OFFCURVE",
"19 288 CURVE SMOOTH",
"139 288 LINE",
"130 283 OFFCURVE",
"123 277 OFFCURVE",
"116 271 CURVE",
"109 264 OFFCURVE",
"103 259 OFFCURVE",
"100 256 CURVE",
"96 250 LINE",
"38 250 LINE",
"38 70 LINE"
);
},
{
closed = 1;
nodes = (
"256 224 LINE",
"215 224 OFFCURVE",
"184 217 OFFCURVE",
"163 204 CURVE SMOOTH",
"141 191 OFFCURVE",
"119 165 OFFCURVE",
"96 128 CURVE",
"96 133 OFFCURVE",
"97 139 OFFCURVE",
"98 146 CURVE SMOOTH",
"99 153 OFFCURVE",
"102 166 OFFCURVE",
"108 185 CURVE SMOOTH",
"114 204 OFFCURVE",
"122 220 OFFCURVE",
"133 235 CURVE",
"143 250 OFFCURVE",
"159 263 OFFCURVE",
"181 275 CURVE SMOOTH",
"202 286 OFFCURVE",
"227 292 OFFCURVE",
"256 292 CURVE",
"256 352 LINE",
"384 256 LINE",
"256 160 LINE"
);
}
);
width = 384;
}
);
unicode = 0064;
},
{
glyphname = "e";
lastChange = "2015-03-03 16:04:10 +0100";
layers = (
{
layerId = "E8827009-6BC8-4B70-BCEC-AB542FFF6A4D";
name = "Regular";
paths = (
{
closed = 1;
nodes = (
"384 154 LINE",
"340 154 LINE",
"336 141 OFFCURVE",
"330 128 OFFCURVE",
"323 115 CURVE",
"355 83 LINE",
"301 29 LINE",
"268 61 LINE",
"259 56 OFFCURVE",
"246 51 OFFCURVE",
"230 46 CURVE",
"230 0 LINE",
"154 0 LINE",
"154 46 LINE",
"137 51 OFFCURVE",
"124 56 OFFCURVE",
"116 61 CURVE",
"83 29 LINE",
"29 83 LINE",
"61 115 LINE",
"54 128 OFFCURVE",
"48 141 OFFCURVE",
"44 154 CURVE",
"0 154 LINE",
"0 230 LINE",
"43 230 LINE",
"48 248 OFFCURVE",
"54 262 OFFCURVE",
"59 271 CURVE",
"29 301 LINE",
"83 355 LINE",
"112 326 LINE",
"123 333 OFFCURVE",
"137 338 OFFCURVE",
"154 343 CURVE",
"154 384 LINE",
"230 384 LINE",
"230 343 LINE",
"247 338 OFFCURVE",
"261 333 OFFCURVE",
"272 326 CURVE",
"301 355 LINE",
"355 301 LINE",
"325 271 LINE",
"332 258 OFFCURVE",
"338 244 OFFCURVE",
"341 230 CURVE",
"384 230 LINE"
);
},
{
closed = 1;
nodes = (
"165 143 OFFCURVE",
"177 138 OFFCURVE",
"192 138 CURVE SMOOTH",
"207 138 OFFCURVE",
"219 143 OFFCURVE",
"230 154 CURVE SMOOTH",
"241 165 OFFCURVE",
"246 177 OFFCURVE",
"246 192 CURVE SMOOTH",
"246 207 OFFCURVE",
"241 219 OFFCURVE",
"230 230 CURVE SMOOTH",
"219 241 OFFCURVE",
"207 246 OFFCURVE",
"192 246 CURVE SMOOTH",
"177 246 OFFCURVE",
"165 241 OFFCURVE",
"154 230 CURVE SMOOTH",
"143 219 OFFCURVE",
"138 207 OFFCURVE",
"138 192 CURVE SMOOTH",
"138 177 OFFCURVE",
"143 165 OFFCURVE",
"154 154 CURVE SMOOTH"
);
}
);
width = 384;
}
);
unicode = 0065;
},
{
glyphname = "f";
lastChange = "2015-02-09 15:25:48 +0100";
layers = (
{
layerId = "E8827009-6BC8-4B70-BCEC-AB542FFF6A4D";
name = "Regular";
paths = (
{
closed = 1;
nodes = (
"103 271 LINE",
"103 316 LINE",
"300 316 LINE",
"300 271 LINE"
);
},
{
closed = 1;
nodes = (
"103 171 LINE",
"103 212 LINE",
"300 212 LINE",
"300 171 LINE"
);
},
{
closed = 1;
nodes = (
"103 68 LINE",
"103 113 LINE",
"300 113 LINE",
"300 68 LINE"
);
},
{
closed = 1;
nodes = (
"38 -32 LINE SMOOTH",
"17 -32 OFFCURVE",
"0 -15 OFFCURVE",
"0 6 CURVE SMOOTH",
"0 381 LINE SMOOTH",
"0 398 OFFCURVE",
"17 416 OFFCURVE",
"38 416 CURVE SMOOTH",
"362 416 LINE SMOOTH",
"382 416 OFFCURVE",
"400 398 OFFCURVE",
"400 381 CURVE SMOOTH",
"400 6 LINE SMOOTH",
"400 -15 OFFCURVE",
"382 -32 OFFCURVE",
"362 -32 CURVE SMOOTH"
);
},
{
closed = 1;
nodes = (
"358 13 LINE",
"358 375 LINE",
"45 375 LINE",
"45 13 LINE"
);
}
);
width = 400;
}
);
unicode = 0066;
},
{
glyphname = "g";
lastChange = "2015-02-09 15:25:39 +0100";
layers = (
{
layerId = "E8827009-6BC8-4B70-BCEC-AB542FFF6A4D";
name = "Regular";
paths = (
{
closed = 1;
nodes = (
"314 268 OFFCURVE",
"314 266 OFFCURVE",
"311 266 CURVE SMOOTH",
"265 266 LINE SMOOTH",
"265 266 OFFCURVE",
"263 268 OFFCURVE",
"263 268 CURVE SMOOTH",
"263 381 LINE SMOOTH",
"263 383 OFFCURVE",
"265 383 OFFCURVE",
"265 383 CURVE SMOOTH",
"311 383 LINE SMOOTH",
"314 383 OFFCURVE",
"314 383 OFFCURVE",
"314 381 CURVE SMOOTH",
"314 268 LINE SMOOTH"
);
},
{
closed = 1;
nodes = (
"448 328 OFFCURVE",
"448 330 OFFCURVE",
"446 330 CURVE",
"446 330 LINE",
"446 330 LINE SMOOTH",
"446 330 OFFCURVE",
"446 330 OFFCURVE",
"446 330 CURVE SMOOTH",
"362 416 LINE",
"362 416 OFFCURVE",
"362 416 OFFCURVE",
"362 416 CURVE",
"362 416 LINE",
"360 416 LINE",
"360 416 OFFCURVE",
"360 416 OFFCURVE",
"358 416 CURVE SMOOTH",
"358 416 OFFCURVE",
"358 416 OFFCURVE",
"358 416 CURVE SMOOTH",
"358 416 LINE",
"48 416 LINE SMOOTH",
"22 416 OFFCURVE",
"0 394 OFFCURVE",
"0 368 CURVE SMOOTH",
"0 19 LINE",
"0 19 LINE",
"0 -10 OFFCURVE",
"22 -32 OFFCURVE",
"48 -32 CURVE SMOOTH",
"397 -32 LINE SMOOTH",
"426 -32 OFFCURVE",
"448 -10 OFFCURVE",
"448 19 CURVE",
"448 19 OFFCURVE",
"448 19 OFFCURVE",
"448 19 CURVE",
"448 19 LINE",
"448 328 LINE"
);
},
{
closed = 1;
nodes = (
"84 385 LINE",
"84 394 OFFCURVE",
"92 401 OFFCURVE",
"99 401 CURVE SMOOTH",
"331 401 LINE SMOOTH",
"340 401 OFFCURVE",
"346 394 OFFCURVE",
"349 385 CURVE",
"349 385 LINE",
"349 266 LINE",
"349 266 LINE",
"349 266 OFFCURVE",
"349 266 OFFCURVE",
"349 264 CURVE SMOOTH",
"349 255 OFFCURVE",
"340 249 OFFCURVE",
"331 249 CURVE SMOOTH",
"99 249 LINE SMOOTH",
"90 249 OFFCURVE",
"84 255 OFFCURVE",
"84 264 CURVE SMOOTH",
"84 266 OFFCURVE",
"84 266 OFFCURVE",
"84 266 CURVE",
"84 266 LINE",
"84 385 LINE"
);
},
{
closed = 1;
nodes = (
"397 -5 OFFCURVE",
"388 -14 OFFCURVE",
"377 -14 CURVE SMOOTH",
"377 -14 OFFCURVE",
"377 -14 OFFCURVE",
"377 -14 CURVE",
"71 -14 LINE SMOOTH",
"71 -14 OFFCURVE",
"71 -14 OFFCURVE",
"71 -14 CURVE",
"60 -14 OFFCURVE",
"51 -5 OFFCURVE",
"51 6 CURVE SMOOTH",
"51 169 LINE SMOOTH",
"51 177 OFFCURVE",
"60 198 OFFCURVE",
"71 198 CURVE SMOOTH",
"377 198 LINE SMOOTH",
"388 198 OFFCURVE",
"397 177 OFFCURVE",
"397 169 CURVE SMOOTH",
"397 6 LINE SMOOTH"
);
}
);
width = 448;
}
);
unicode = 0067;
},
{
glyphname = "h";
lastChange = "2015-02-09 15:25:29 +0100";
layers = (
{
layerId = "E8827009-6BC8-4B70-BCEC-AB542FFF6A4D";
name = "Regular";
paths = (
{
closed = 1;
nodes = (
"312 265 OFFCURVE",
"310 263 OFFCURVE",
"308 263 CURVE SMOOTH",
"262 263 LINE SMOOTH",
"261 263 OFFCURVE",
"259 265 OFFCURVE",
"259 266 CURVE SMOOTH",
"259 379 LINE SMOOTH",
"259 381 OFFCURVE",
"261 382 OFFCURVE",
"262 382 CURVE SMOOTH",
"308 382 LINE SMOOTH",
"310 382 OFFCURVE",
"312 381 OFFCURVE",
"312 379 CURVE SMOOTH",
"312 266 LINE SMOOTH"
);
},
{
closed = 1;
nodes = (
"86 384 LINE",
"86 393 OFFCURVE",
"93 400 OFFCURVE",
"103 400 CURVE SMOOTH",
"329 400 LINE SMOOTH",
"339 400 OFFCURVE",
"345 393 OFFCURVE",
"347 384 CURVE",
"347 384 LINE",
"347 263 LINE",
"345 263 LINE",
"347 263 OFFCURVE",
"347 263 OFFCURVE",
"347 261 CURVE SMOOTH",
"347 252 OFFCURVE",
"339 246 OFFCURVE",
"329 246 CURVE SMOOTH",
"103 246 LINE SMOOTH",
"93 246 OFFCURVE",
"86 252 OFFCURVE",
"86 261 CURVE SMOOTH",
"86 263 OFFCURVE",
"86 263 OFFCURVE",
"86 263 CURVE",
"86 263 LINE",
"86 384 LINE"
);
},
{
closed = 1;
nodes = (
"448 324 LINE",
"448 324 LINE",
"448 326 OFFCURVE",
"448 327 OFFCURVE",
"447 328 CURVE",
"447 328 LINE",
"447 328 LINE SMOOTH",
"447 328 OFFCURVE",
"447 328 OFFCURVE",
"447 328 CURVE SMOOTH",
"360 415 LINE",
"359 415 OFFCURVE",
"359 415 OFFCURVE",
"359 416 CURVE",
"359 416 LINE",
"359 416 LINE",
"359 416 OFFCURVE",
"358 416 OFFCURVE",
"356 416 CURVE SMOOTH",
"356 416 OFFCURVE",
"356 416 OFFCURVE",
"356 416 CURVE",
"356 416 LINE",
"50 416 LINE SMOOTH",
"23 416 OFFCURVE",
"0 395 OFFCURVE",
"0 366 CURVE SMOOTH",
"0 19 LINE",
"0 19 LINE",
"0 -9 OFFCURVE",
"23 -32 OFFCURVE",
"50 -32 CURVE SMOOTH",
"213 -32 LINE",
"213 -14 LINE",
"71 -14 LINE SMOOTH",
"71 -14 OFFCURVE",
"71 -14 OFFCURVE",
"71 -14 CURVE",
"60 -14 OFFCURVE",
"50 -5 OFFCURVE",
"50 7 CURVE SMOOTH",
"50 171 LINE SMOOTH",
"50 183 OFFCURVE",
"60 193 OFFCURVE",
"71 193 CURVE SMOOTH",
"341 193 LINE",
"448 302 LINE"
);
},
{
closed = 1;
nodes = (
"503 302 LINE SMOOTH",
"497 309 OFFCURVE",
"488 309 OFFCURVE",
"480 302 CURVE SMOOTH",
"252 71 LINE",
"252 71 OFFCURVE",
"252 71 OFFCURVE",
"252 71 CURVE SMOOTH",
"250 69 OFFCURVE",
"249 66 OFFCURVE",
"249 65 CURVE",
"249 65 LINE",
"249 65 LINE",
"249 65 OFFCURVE",
"249 65 OFFCURVE",
"249 65 CURVE",
"249 -21 LINE",
"259 -32 LINE",
"347 -32 LINE",
"347 -32 LINE",
"348 -31 OFFCURVE",
"350 -31 OFFCURVE",
"351 -29 CURVE SMOOTH",
"580 203 LINE SMOOTH",
"587 210 OFFCURVE",
"587 220 OFFCURVE",
"580 226 CURVE SMOOTH"
);
},
{
closed = 1;
nodes = (
"562 215 LINE",
"534 185 LINE",
"464 256 LINE",
"493 284 LINE"
);
},
{
closed = 1;
nodes = (
"341 -11 LINE",
"305 -11 LINE",
"270 25 LINE",
"270 60 LINE",
"449 241 LINE",
"455 235 LINE",
"295 71 LINE",
"308 56 LINE",
"471 222 LINE",
"477 215 LINE",
"314 50 LINE",
"329 34 LINE",
"493 200 LINE",
"498 193 LINE",
"336 28 LINE",
"351 13 LINE",
"514 176 LINE",
"520 169 LINE",
"341 -11 LINE"
);
}
);
width = 585;
}
);
unicode = 0068;
},
{
glyphname = "i";
lastChange = "2015-03-31 14:43:45 +0100";
layers = (
{
layerId = "E8827009-6BC8-4B70-BCEC-AB542FFF6A4D";
name = "Regular";
paths = (
{
closed = 1;
nodes = (
"397 120 LINE",
"355 120 LINE",
"355 171 LINE",
"304 171 LINE",
"304 213 LINE",
"355 213 LINE",
"355 264 LINE",
"397 264 LINE",
"397 213 LINE",
"448 213 LINE",
"448 171 LINE",
"397 171 LINE"
);
},
{
closed = 1;
nodes = (
"384 0 LINE",
"192 0 LINE",
"0 0 LINE",
"0 17 OFFCURVE",
"1 31 OFFCURVE",
"2 40 CURVE",
"5 53 OFFCURVE",
"32 70 OFFCURVE",
"83 89 CURVE SMOOTH",
"91 92 OFFCURVE",
"101 95 OFFCURVE",
"112 99 CURVE SMOOTH",
"127 104 OFFCURVE",
"136 109 OFFCURVE",
"139 112 CURVE SMOOTH",
"142 115 OFFCURVE",
"143 123 OFFCURVE",
"143 138 CURVE SMOOTH",
"143 141 OFFCURVE",
"143 143 OFFCURVE",
"143 144 CURVE SMOOTH",
"143 152 OFFCURVE",
"140 160 OFFCURVE",
"134 168 CURVE",
"128 175 OFFCURVE",
"123 189 OFFCURVE",
"120 208 CURVE SMOOTH",
"119 215 OFFCURVE",
"117 220 OFFCURVE",
"114 224 CURVE SMOOTH",
"111 228 OFFCURVE",
"109 236 OFFCURVE",
"106 248 CURVE",
"104 254 OFFCURVE",
"104 260 OFFCURVE",
"106 265 CURVE",
"107 270 OFFCURVE",
"108 274 OFFCURVE",
"108 275 CURVE",
"107 286 OFFCURVE",
"105 297 OFFCURVE",
"104 308 CURVE SMOOTH",
"103 323 OFFCURVE",
"109 340 OFFCURVE",
"124 358 CURVE SMOOTH",
"139 375 OFFCURVE",
"161 384 OFFCURVE",
"192 384 CURVE SMOOTH",
"223 384 OFFCURVE",
"245 375 OFFCURVE",
"260 358 CURVE SMOOTH",
"275 340 OFFCURVE",
"281 323 OFFCURVE",
"280 308 CURVE SMOOTH",
"279 297 OFFCURVE",
"277 286 OFFCURVE",
"276 275 CURVE",
"276 274 OFFCURVE",
"277 270 OFFCURVE",
"279 265 CURVE",
"280 260 OFFCURVE",
"280 254 OFFCURVE",
"278 248 CURVE",
"275 236 OFFCURVE",
"273 228 OFFCURVE",
"270 224 CURVE SMOOTH",
"267 220 OFFCURVE",
"265 215 OFFCURVE",
"264 208 CURVE SMOOTH",
"261 189 OFFCURVE",
"256 175 OFFCURVE",
"250 168 CURVE",
"244 160 OFFCURVE",
"241 152 OFFCURVE",
"241 144 CURVE SMOOTH",
"241 124 OFFCURVE",
"243 113 OFFCURVE",
"247 110 CURVE",
"248 109 OFFCURVE",
"265 102 OFFCURVE",
"296 91 CURVE",
"297 90 OFFCURVE",
"299 90 OFFCURVE",
"301 89 CURVE",
"352 70 OFFCURVE",
"379 53 OFFCURVE",
"382 40 CURVE"
);
}
);
width = 448;
}
);
unicode = 0069;
},
{
glyphname = "j";
lastChange = "2015-02-09 15:25:06 +0100";
layers = (
{
layerId = "E8827009-6BC8-4B70-BCEC-AB542FFF6A4D";
name = "Regular";
paths = (
{
closed = 1;
nodes = (
"398 220 OFFCURVE",
"388 218 OFFCURVE",
"379 216 CURVE",
"379 217 OFFCURVE",
"380 219 OFFCURVE",
"379 221 CURVE SMOOTH",
"379 228 OFFCURVE",
"378 248 OFFCURVE",
"366 264 CURVE",
"368 291 OFFCURVE",
"368 335 OFFCURVE",
"340 371 CURVE SMOOTH",
"316 401 OFFCURVE",
"280 416 OFFCURVE",
"231 416 CURVE SMOOTH",
"182 416 OFFCURVE",
"146 401 OFFCURVE",
"122 371 CURVE SMOOTH",
"94 335 OFFCURVE",
"93 291 OFFCURVE",
"96 264 CURVE",
"84 248 OFFCURVE",
"83 228 OFFCURVE",
"82 221 CURVE SMOOTH",
"81 188 OFFCURVE",
"95 169 OFFCURVE",
"111 158 CURVE",
"116 130 OFFCURVE",
"126 113 OFFCURVE",
"135 102 CURVE",
"135 84 LINE",
"0 25 LINE",
"26 -32 LINE",
"179 36 LINE SMOOTH",
"190 41 OFFCURVE",
"197 52 OFFCURVE",
"197 65 CURVE SMOOTH",
"197 116 LINE SMOOTH",
"197 127 OFFCURVE",
"191 137 OFFCURVE",
"182 142 CURVE",
"180 144 OFFCURVE",
"173 154 OFFCURVE",
"171 181 CURVE SMOOTH",
"169 195 OFFCURVE",
"160 207 OFFCURVE",
"147 209 CURVE",
"147 209 OFFCURVE",
"144 210 OFFCURVE",
"144 217 CURVE SMOOTH",
"144 218 OFFCURVE",
"144 220 OFFCURVE",
"144 220 CURVE",
"147 222 OFFCURVE",
"149 222 OFFCURVE",
"150 224 CURVE SMOOTH",
"159 232 OFFCURVE",
"163 244 OFFCURVE",
"160 255 CURVE SMOOTH",
"157 268 OFFCURVE",
"152 310 OFFCURVE",
"171 332 CURVE SMOOTH",
"182 347 OFFCURVE",
"202 354 OFFCURVE",
"232 354 CURVE SMOOTH",
"260 354 OFFCURVE",
"280 347 OFFCURVE",
"291 332 CURVE SMOOTH",
"310 310 OFFCURVE",
"305 268 OFFCURVE",
"302 255 CURVE SMOOTH",
"299 244 OFFCURVE",
"303 232 OFFCURVE",
"312 224 CURVE SMOOTH",
"314 222 OFFCURVE",
"315 221 OFFCURVE",
"318 220 CURVE",
"318 220 OFFCURVE",
"318 218 OFFCURVE",
"318 217 CURVE SMOOTH",
"318 210 OFFCURVE",
"315 209 OFFCURVE",
"315 209 CURVE",
"302 207 OFFCURVE",
"293 195 OFFCURVE",
"291 181 CURVE SMOOTH",
"289 154 OFFCURVE",
"282 144 OFFCURVE",
"280 142 CURVE",
"271 137 OFFCURVE",
"265 127 OFFCURVE",
"265 116 CURVE SMOOTH",
"265 65 LINE SMOOTH",
"265 52 OFFCURVE",
"272 41 OFFCURVE",
"283 36 CURVE SMOOTH",
"302 28 LINE",
"324 -6 OFFCURVE",
"362 -30 OFFCURVE",
"407 -30 CURVE SMOOTH",
"475 -30 OFFCURVE",
"531 26 OFFCURVE",
"531 95 CURVE SMOOTH",
"531 162 OFFCURVE",
"475 220 OFFCURVE",
"407 220 CURVE SMOOTH"
);
},
{
closed = 1;
nodes = (
"378 -20 LINE",
"378 147 LINE",
"433 147 LINE",
"433 -20 LINE"
);
},
{
closed = 1;
nodes = (
"378 158 LINE",
"378 199 LINE",
"378 200 OFFCURVE",
"378 200 OFFCURVE",
"378 200 CURVE",
"433 200 LINE",
"433 158 LINE"
);
}
);
width = 531;
}
);
unicode = 006A;
},
{
glyphname = "k";
lastChange = "2015-05-12 08:32:43 +0100";
layers = (
{
layerId = "E8827009-6BC8-4B70-BCEC-AB542FFF6A4D";
name = "Regular";
paths = (
{
closed = 1;
nodes = (
"181 128 OFFCURVE",
"160 149 OFFCURVE",
"160 192 CURVE SMOOTH",
"160 235 OFFCURVE",
"181 256 OFFCURVE",
"224 256 CURVE SMOOTH",
"267 256 OFFCURVE",
"288 235 OFFCURVE",
"288 192 CURVE SMOOTH",
"288 149 OFFCURVE",
"267 128 OFFCURVE",
"224 128 CURVE SMOOTH"
);
},
{
closed = 1;
nodes = (
"135 80 LINE",
"125 89 OFFCURVE",
"119 94 OFFCURVE",
"117 96 CURVE SMOOTH",
"92 121 OFFCURVE",
"80 153 OFFCURVE",
"80 192 CURVE SMOOTH",
"80 231 OFFCURVE",
"92 263 OFFCURVE",
"117 288 CURVE SMOOTH",
"119 290 OFFCURVE",
"125 295 OFFCURVE",
"135 304 CURVE",
"158 279 LINE",
"145 270 OFFCURVE",
"134 258 OFFCURVE",
"125 242 CURVE SMOOTH",
"116 226 OFFCURVE",
"112 209 OFFCURVE",
"112 192 CURVE SMOOTH",
"112 175 OFFCURVE",
"116 158 OFFCURVE",
"125 142 CURVE SMOOTH",
"134 126 OFFCURVE",
"145 114 OFFCURVE",
"158 105 CURVE"
);
},
{
closed = 1;
nodes = (
"313 304 LINE",
"323 295 OFFCURVE",
"329 290 OFFCURVE",
"331 288 CURVE SMOOTH",
"356 263 OFFCURVE",
"368 231 OFFCURVE",
"368 192 CURVE SMOOTH",
"368 153 OFFCURVE",
"356 121 OFFCURVE",
"331 96 CURVE SMOOTH",
"329 94 OFFCURVE",
"323 89 OFFCURVE",
"313 80 CURVE",
"290 105 LINE",
"303 114 OFFCURVE",
"314 126 OFFCURVE",
"323 142 CURVE SMOOTH",
"332 158 OFFCURVE",
"336 175 OFFCURVE",
"336 192 CURVE SMOOTH",
"336 209 OFFCURVE",
"332 226 OFFCURVE",
"323 242 CURVE SMOOTH",
"314 258 OFFCURVE",
"303 270 OFFCURVE",
"290 279 CURVE"
);
},
{
closed = 1;
nodes = (
"32 165 OFFCURVE",
"38 140 OFFCURVE",
"49 115 CURVE SMOOTH",
"59 92 OFFCURVE",
"75 73 OFFCURVE",
"96 56 CURVE",
"73 32 LINE",
"65 39 OFFCURVE",
"59 44 OFFCURVE",
"56 48 CURVE",
"39 65 OFFCURVE",
"26 87 OFFCURVE",
"15 113 CURVE SMOOTH",
"5 138 OFFCURVE",
"0 164 OFFCURVE",
"0 192 CURVE SMOOTH",
"0 220 OFFCURVE",
"5 246 OFFCURVE",
"15 271 CURVE SMOOTH",
"26 297 OFFCURVE",
"39 319 OFFCURVE",
"56 336 CURVE",
"59 340 OFFCURVE",
"65 345 OFFCURVE",
"73 352 CURVE",
"96 328 LINE",
"88 321 OFFCURVE",
"79 312 OFFCURVE",
"70 301 CURVE",
"65 294 OFFCURVE",
"58 284 OFFCURVE",
"50 269 CURVE SMOOTH",
"45 260 OFFCURVE",
"40 247 OFFCURVE",
"37 232 CURVE SMOOTH",
"34 217 OFFCURVE",
"32 204 OFFCURVE",
"32 192 CURVE SMOOTH"
);
},
{
closed = 1;
nodes = (
"389 292 OFFCURVE",
"373 311 OFFCURVE",
"352 328 CURVE",
"375 352 LINE",
"383 345 OFFCURVE",
"389 340 OFFCURVE",
"392 336 CURVE",
"409 319 OFFCURVE",
"422 297 OFFCURVE",
"433 271 CURVE SMOOTH",
"443 246 OFFCURVE",
"448 219 OFFCURVE",
"448 192 CURVE SMOOTH",
"448 164 OFFCURVE",
"443 138 OFFCURVE",
"433 113 CURVE SMOOTH",
"422 87 OFFCURVE",
"409 65 OFFCURVE",
"392 48 CURVE SMOOTH",
"389 45 OFFCURVE",
"384 39 OFFCURVE",
"375 32 CURVE",
"352 56 LINE",
"373 73 OFFCURVE",
"389 92 OFFCURVE",
"399 115 CURVE SMOOTH",
"410 140 OFFCURVE",
"416 165 OFFCURVE",
"416 192 CURVE SMOOTH",
"416 219 OFFCURVE",
"410 244 OFFCURVE",
"399 269 CURVE SMOOTH"
);
}
);
width = 452;
}
);
unicode = 006B;
},
{
glyphname = "l";
lastChange = "2015-02-09 15:24:45 +0100";
layers = (
{
layerId = "E8827009-6BC8-4B70-BCEC-AB542FFF6A4D";
name = "Regular";
paths = (
{
closed = 1;
nodes = (
"376 358 LINE",
"338 394 OFFCURVE",
"286 416 OFFCURVE",
"231 416 CURVE",
"231 356 LINE",
"269 356 OFFCURVE",
"308 339 OFFCURVE",
"335 314 CURVE"
);
},
{
closed = 1;
nodes = (
"231 -32 LINE",
"286 -30 OFFCURVE",
"338 -7 OFFCURVE",
"376 28 CURVE",
"335 70 LINE",
"308 45 OFFCURVE",
"269 31 OFFCURVE",
"231 28 CURVE"
);
},
{
closed = 1;
nodes = (
"61 344 LINE",
"25 309 OFFCURVE",
"3 259 OFFCURVE",
"0 204 CURVE",
"61 204 LINE",
"63 240 OFFCURVE",
"80 276 OFFCURVE",
"102 303 CURVE"
);
},
{
closed = 1;
nodes = (
"448 204 LINE",
"446 259 OFFCURVE",
"423 309 OFFCURVE",
"390 344 CURVE",
"346 303 LINE",
"371 276 OFFCURVE",
"385 240 OFFCURVE",
"388 204 CURVE"
);
},
{
closed = 1;
nodes = (
"215 416 LINE",
"159 414 OFFCURVE",
"110 391 OFFCURVE",
"71 358 CURVE",
"116 314 LINE",
"140 339 OFFCURVE",
"176 353 OFFCURVE",
"215 356 CURVE"
);
},
{
closed = 1;
nodes = (
"0 188 LINE",
"3 130 OFFCURVE",
"25 77 OFFCURVE",
"61 39 CURVE",
"102 83 LINE",
"77 111 OFFCURVE",
"63 147 OFFCURVE",
"61 188 CURVE"
);
},
{
closed = 1;
nodes = (
"388 147 OFFCURVE",
"371 111 OFFCURVE",
"346 83 CURVE",
"390 39 LINE",
"426 77 OFFCURVE",
"448 130 OFFCURVE",
"448 188 CURVE",
"388 188 LINE"
);
},
{
closed = 1;
nodes = (
"71 28 LINE",
"110 -7 OFFCURVE",
"159 -30 OFFCURVE",
"215 -32 CURVE",
"215 28 LINE",
"176 31 OFFCURVE",
"140 47 OFFCURVE",
"116 70 CURVE"
);
},
{
closed = 1;
nodes = (
"297 111 LINE",
"308 122 LINE",
"267 163 LINE",
"264 158 OFFCURVE",
"261 154 OFFCURVE",
"256 152 CURVE"
);
},
{
closed = 1;
nodes = (
"157 284 LINE",
"134 262 LINE",
"176 221 LINE",
"181 229 OFFCURVE",
"190 237 OFFCURVE",
"198 240 CURVE"
);
},
{
closed = 1;
nodes = (
"138 124 LINE",
"154 108 LINE",
"195 149 LINE",
"190 152 OFFCURVE",
"184 158 OFFCURVE",
"179 165 CURVE"
);
},
{
closed = 1;
nodes = (
"305 270 LINE",
"299 276 LINE",
"258 235 LINE",
"261 232 OFFCURVE",
"264 232 OFFCURVE",
"264 229 CURVE"
);
},
{
closed = 1;
nodes = (
"215 83 LINE",
"234 83 LINE",
"234 141 LINE",
"231 141 OFFCURVE",
"228 141 OFFCURVE",
"225 141 CURVE SMOOTH",
"220 141 OFFCURVE",
"217 141 OFFCURVE",
"215 141 CURVE"
);
},
{
closed = 1;
nodes = (
"225 306 LINE",
"223 306 LINE",
"223 248 LINE",
"223 248 OFFCURVE",
"223 248 OFFCURVE",
"225 248 CURVE SMOOTH",
"225 248 OFFCURVE",
"225 248 OFFCURVE",
"225 248 CURVE"
);
},
{
closed = 1;
nodes = (
"335 191 LINE",
"335 201 LINE",
"277 201 LINE",
"277 199 OFFCURVE",
"277 196 OFFCURVE",
"277 193 CURVE SMOOTH",
"277 193 OFFCURVE",
"277 191 OFFCURVE",
"277 191 CURVE"
);
},
{
closed = 1;
nodes = (
"113 207 LINE",
"113 182 LINE",
"173 182 LINE",
"170 185 OFFCURVE",
"170 191 OFFCURVE",
"170 193 CURVE SMOOTH",
"170 199 OFFCURVE",
"170 204 OFFCURVE",
"173 207 CURVE"
);
}
);
width = 448;
}
);
unicode = 006C;
},
{
glyphname = "m";
lastChange = "2015-02-09 15:24:35 +0100";
layers = (
{
layerId = "E8827009-6BC8-4B70-BCEC-AB542FFF6A4D";
name = "Regular";
paths = (
{
closed = 1;
nodes = (
"280 232 OFFCURVE",
"280 219 OFFCURVE",
"278 214 CURVE",
"283 210 OFFCURVE",
"285 205 OFFCURVE",
"285 196 CURVE SMOOTH",
"286 183 OFFCURVE",
"280 175 OFFCURVE",
"273 171 CURVE",
"271 158 OFFCURVE",
"266 150 OFFCURVE",
"262 146 CURVE",
"262 135 LINE",
"321 107 LINE",
"314 88 LINE",
"247 118 LINE SMOOTH",
"244 119 OFFCURVE",
"241 123 OFFCURVE",
"241 129 CURVE SMOOTH",
"241 150 LINE SMOOTH",
"241 154 OFFCURVE",
"244 158 OFFCURVE",
"247 161 CURVE",
"247 161 OFFCURVE",
"247 161 OFFCURVE",
"247 161 CURVE SMOOTH",
"246 161 OFFCURVE",
"251 165 OFFCURVE",
"253 179 CURVE SMOOTH",
"253 184 OFFCURVE",
"256 188 OFFCURVE",
"261 188 CURVE",
"263 189 OFFCURVE",
"264 192 OFFCURVE",
"264 195 CURVE SMOOTH",
"264 197 OFFCURVE",
"264 197 OFFCURVE",
"263 198 CURVE",
"263 198 OFFCURVE",
"262 200 OFFCURVE",
"261 200 CURVE SMOOTH",
"258 202 OFFCURVE",
"256 207 OFFCURVE",
"256 210 CURVE SMOOTH",
"256 212 OFFCURVE",
"259 219 OFFCURVE",
"258 228 CURVE",
"258 228 OFFCURVE",
"272 230 OFFCURVE",
"278 233 CURVE"
);
},
{
closed = 1;
nodes = (
"186 219 OFFCURVE",
"189 212 OFFCURVE",
"189 210 CURVE",
"189 207 OFFCURVE",
"188 202 OFFCURVE",
"185 200 CURVE SMOOTH",
"184 200 OFFCURVE",
"184 198 OFFCURVE",
"183 198 CURVE",
"182 197 OFFCURVE",
"182 197 OFFCURVE",
"182 195 CURVE SMOOTH",
"182 189 OFFCURVE",
"185 188 OFFCURVE",
"185 188 CURVE SMOOTH",
"189 188 OFFCURVE",
"193 184 OFFCURVE",
"193 179 CURVE SMOOTH",
"194 164 OFFCURVE",
"200 160 OFFCURVE",
"200 160 CURVE",
"203 158 OFFCURVE",
"205 154 OFFCURVE",
"205 150 CURVE SMOOTH",
"205 129 LINE SMOOTH",
"205 123 OFFCURVE",
"202 119 OFFCURVE",
"198 118 CURVE SMOOTH",
"131 88 LINE",
"123 107 LINE",
"184 135 LINE",
"184 146 LINE",
"180 150 OFFCURVE",
"175 158 OFFCURVE",
"172 171 CURVE",
"166 175 OFFCURVE",
"159 183 OFFCURVE",
"161 196 CURVE SMOOTH",
"161 205 OFFCURVE",
"164 210 OFFCURVE",
"167 214 CURVE",
"166 219 OFFCURVE",
"166 233 OFFCURVE",
"167 234 CURVE",
"168 232 OFFCURVE",
"188 228 OFFCURVE",
"188 228 CURVE"
);
},
{
closed = 1;
nodes = (
"247 274 LINE",
"284 294 LINE",
"275 249 LINE",
"275 249 OFFCURVE",
"268 240 OFFCURVE",
"223 240 CURVE",
"223 240 LINE",
"178 240 OFFCURVE",
"171 249 OFFCURVE",
"171 249 CURVE",
"161 294 LINE",
"198 274 LINE",
"223 303 LINE"
);
},
{
closed = 1;
nodes = (
"377 356 LINE",
"338 393 OFFCURVE",
"286 415 OFFCURVE",
"231 416 CURVE",
"231 355 LINE",
"271 354 OFFCURVE",
"307 339 OFFCURVE",
"334 314 CURVE"
);
},
{
closed = 1;
nodes = (
"231 -32 LINE",
"286 -31 OFFCURVE",
"338 -9 OFFCURVE",
"377 28 CURVE",
"334 70 LINE",
"306 45 OFFCURVE",
"271 30 OFFCURVE",
"231 29 CURVE"
);
},
{
closed = 1;
nodes = (
"60 345 LINE",
"25 308 OFFCURVE",
"3 258 OFFCURVE",
"0 202 CURVE",
"61 202 LINE",
"63 241 OFFCURVE",
"79 275 OFFCURVE",
"102 302 CURVE"
);
},
{
closed = 1;
nodes = (
"448 202 LINE",
"446 258 OFFCURVE",
"423 308 OFFCURVE",
"388 345 CURVE",
"346 302 LINE",
"371 275 OFFCURVE",
"385 241 OFFCURVE",
"387 202 CURVE"
);
},
{
closed = 1;
nodes = (
"214 416 LINE",
"159 413 OFFCURVE",
"108 391 OFFCURVE",
"71 356 CURVE",
"114 314 LINE",
"141 339 OFFCURVE",
"176 353 OFFCURVE",
"214 355 CURVE"
);
},
{
closed = 1;
nodes = (
"0 186 LINE",
"1 130 OFFCURVE",
"23 78 OFFCURVE",
"60 39 CURVE",
"102 82 LINE",
"77 110 OFFCURVE",
"62 147 OFFCURVE",
"61 186 CURVE"
);
},
{
closed = 1;
nodes = (
"386 147 OFFCURVE",
"371 110 OFFCURVE",
"346 82 CURVE",
"388 39 LINE",
"425 78 OFFCURVE",
"447 130 OFFCURVE",
"448 186 CURVE",
"387 186 LINE"
);
},
{
closed = 1;
nodes = (
"71 28 LINE",
"108 -7 OFFCURVE",
"159 -30 OFFCURVE",
"214 -32 CURVE",
"214 29 LINE",
"176 31 OFFCURVE",
"141 47 OFFCURVE",
"114 70 CURVE"
);
}
);
width = 448;
}
);
unicode = 006D;
},
{
glyphname = "n";
lastChange = "2015-02-09 15:24:17 +0100";
layers = (
{
layerId = "E8827009-6BC8-4B70-BCEC-AB542FFF6A4D";
name = "Regular";
paths = (
{
closed = 1;
nodes = (
"60 238 OFFCURVE",
"83 281 OFFCURVE",
"118 309 CURVE",
"84 358 LINE",
"33 319 OFFCURVE",
"0 258 OFFCURVE",
"0 184 CURVE SMOOTH",
"0 164 OFFCURVE",
"2 146 OFFCURVE",
"8 128 CURVE",
"64 146 LINE",
"61 158 OFFCURVE",
"60 170 OFFCURVE",
"60 183 CURVE SMOOTH"
);
},
{
closed = 1;
nodes = (
"143 31 OFFCURVE",
"91 73 OFFCURVE",
"70 128 CURVE",
"13 110 LINE",
"41 31 OFFCURVE",
"116 -28 OFFCURVE",
"205 -32 CURVE",
"205 27 LINE"
);
},
{
closed = 1;
nodes = (
"342 68 OFFCURVE",
"288 30 OFFCURVE",
"229 27 CURVE",
"229 -32 LINE",
"313 -29 OFFCURVE",
"391 25 OFFCURVE",
"422 107 CURVE",
"365 126 LINE"
);
},
{
closed = 1;
nodes = (
"368 269 OFFCURVE",
"386 207 OFFCURVE",
"371 143 CURVE",
"427 124 LINE",
"451 212 OFFCURVE",
"425 301 OFFCURVE",
"355 356 CURVE",
"320 309 LINE"
);
},
{
closed = 1;
nodes = (
"185 353 OFFCURVE",
"258 351 OFFCURVE",
"307 318 CURVE",
"343 366 LINE",
"273 413 OFFCURVE",
"172 416 OFFCURVE",
"98 368 CURVE",
"132 319 LINE"
);
},
{
closed = 1;
nodes = (
"349 112 OFFCURVE",
"292 55 OFFCURVE",
"215 55 CURVE SMOOTH",
"145 55 OFFCURVE",
"88 112 OFFCURVE",
"88 183 CURVE SMOOTH",
"88 260 OFFCURVE",
"145 316 OFFCURVE",
"215 316 CURVE SMOOTH",
"292 316 OFFCURVE",
"349 260 OFFCURVE",
"349 183 CURVE SMOOTH"
);
}
);
width = 436;
}
);
unicode = 006E;
},
{
glyphname = "o";
lastChange = "2015-02-09 15:24:01 +0100";
layers = (
{
layerId = "E8827009-6BC8-4B70-BCEC-AB542FFF6A4D";
name = "Regular";
paths = (
{
closed = 1;
nodes = (
"60 238 OFFCURVE",
"83 281 OFFCURVE",
"118 309 CURVE",
"84 358 LINE",
"33 319 OFFCURVE",
"0 258 OFFCURVE",
"0 184 CURVE SMOOTH",
"0 164 OFFCURVE",
"2 146 OFFCURVE",
"8 128 CURVE",
"64 146 LINE",
"61 158 OFFCURVE",
"60 170 OFFCURVE",
"60 183 CURVE SMOOTH"
);
},
{
closed = 1;
nodes = (
"143 31 OFFCURVE",
"91 73 OFFCURVE",
"70 128 CURVE",
"13 110 LINE",
"41 31 OFFCURVE",
"116 -28 OFFCURVE",
"205 -32 CURVE",
"205 27 LINE"
);
},
{
closed = 1;
nodes = (
"342 68 OFFCURVE",
"288 30 OFFCURVE",
"229 27 CURVE",
"229 -32 LINE",
"313 -29 OFFCURVE",
"391 25 OFFCURVE",
"422 107 CURVE",
"365 126 LINE"
);
},
{
closed = 1;
nodes = (
"368 269 OFFCURVE",
"386 207 OFFCURVE",
"371 143 CURVE",
"427 124 LINE",
"451 212 OFFCURVE",
"425 301 OFFCURVE",
"355 356 CURVE",
"320 309 LINE"
);
},
{
closed = 1;
nodes = (
"185 353 OFFCURVE",
"258 351 OFFCURVE",
"307 318 CURVE",
"343 366 LINE",
"273 413 OFFCURVE",
"172 416 OFFCURVE",
"98 368 CURVE",
"132 319 LINE"
);
}
);
width = 436;
}
);
unicode = 006F;
},
{
glyphname = "p";
lastChange = "2015-04-23 10:58:15 +0100";
layers = (
{
layerId = "E8827009-6BC8-4B70-BCEC-AB542FFF6A4D";
name = "Regular";
paths = (
{
closed = 1;
nodes = (
"344 290 LINE",
"375 269 OFFCURVE",
"410 236 OFFCURVE",
"448 190 CURVE",
"432 173 OFFCURVE",
"421 161 OFFCURVE",
"414 154 CURVE SMOOTH",
"407 147 OFFCURVE",
"395 136 OFFCURVE",
"377 121 CURVE SMOOTH",
"359 105 OFFCURVE",
"344 93 OFFCURVE",
"331 86 CURVE SMOOTH",
"318 79 OFFCURVE",
"301 72 OFFCURVE",
"282 65 CURVE SMOOTH",
"263 58 OFFCURVE",
"243 55 OFFCURVE",
"224 55 CURVE SMOOTH",
"191 55 OFFCURVE",
"160 62 OFFCURVE",
"132 77 CURVE",
"55 0 LINE",
"32 23 LINE",
"103 94 LINE",
"83 108 OFFCURVE",
"49 141 OFFCURVE",
"0 192 CURVE",
"43 239 OFFCURVE",
"81 273 OFFCURVE",
"115 296 CURVE SMOOTH",
"149 318 OFFCURVE",
"185 329 OFFCURVE",
"224 329 CURVE SMOOTH",
"255 329 OFFCURVE",
"285 321 OFFCURVE",
"316 306 CURVE",
"393 384 LINE",
"416 361 LINE"
);
},
{
closed = 1;
nodes = (
"134 174 OFFCURVE",
"139 157 OFFCURVE",
"150 141 CURVE",
"177 168 LINE",
"174 174 OFFCURVE",
"172 182 OFFCURVE",
"172 192 CURVE SMOOTH",
"172 207 OFFCURVE",
"177 219 OFFCURVE",
"187 230 CURVE",
"197 240 OFFCURVE",
"209 245 OFFCURVE",
"224 245 CURVE SMOOTH",
"232 245 LINE",
"227 238 OFFCURVE",
"224 231 OFFCURVE",
"224 224 CURVE SMOOTH",
"224 221 OFFCURVE",
"224 218 OFFCURVE",
"225 216 CURVE",
"276 266 LINE",
"261 277 OFFCURVE",
"243 283 OFFCURVE",
"224 283 CURVE SMOOTH",
"199 283 OFFCURVE",
"178 274 OFFCURVE",
"161 256 CURVE SMOOTH",
"143 238 OFFCURVE",
"134 217 OFFCURVE",
"134 192 CURVE SMOOTH"
);
},
{
closed = 1;
nodes = (
"249 101 OFFCURVE",
"270 110 OFFCURVE",
"288 128 CURVE SMOOTH",
"305 146 OFFCURVE",
"314 167 OFFCURVE",
"314 192 CURVE SMOOTH",
"314 211 OFFCURVE",
"309 228 OFFCURVE",
"298 244 CURVE",
"248 193 LINE",
"250 192 OFFCURVE",
"253 192 OFFCURVE",
"256 192 CURVE SMOOTH",
"263 192 OFFCURVE",
"269 194 OFFCURVE",
"276 199 CURVE",
"276 192 LINE SMOOTH",
"276 177 OFFCURVE",
"271 165 OFFCURVE",
"261 155 CURVE",
"251 144 OFFCURVE",
"239 139 OFFCURVE",
"224 139 CURVE SMOOTH",
"215 139 OFFCURVE",
"207 141 OFFCURVE",
"200 145 CURVE",
"172 118 LINE",
"187 107 OFFCURVE",
"205 101 OFFCURVE",
"224 101 CURVE SMOOTH"
);
}
);
width = 448;
}
);
unicode = 0070;
},
{
glyphname = "q";
lastChange = "2015-02-09 15:32:46 +0100";
layers = (
{
layerId = "E8827009-6BC8-4B70-BCEC-AB542FFF6A4D";
name = "Regular";
paths = (
{
closed = 1;
nodes = (
"109 394 OFFCURVE",
"162 416 OFFCURVE",
"224 416 CURVE SMOOTH",
"286 416 OFFCURVE",
"339 394 OFFCURVE",
"383 351 CURVE SMOOTH",
"426 307 OFFCURVE",
"448 254 OFFCURVE",
"448 192 CURVE SMOOTH",
"448 130 OFFCURVE",
"426 77 OFFCURVE",
"383 34 CURVE SMOOTH",
"339 -10 OFFCURVE",
"286 -32 OFFCURVE",
"224 -32 CURVE SMOOTH",
"162 -32 OFFCURVE",
"109 -10 OFFCURVE",
"66 34 CURVE SMOOTH",
"22 77 OFFCURVE",
"0 130 OFFCURVE",
"0 192 CURVE SMOOTH",
"0 254 OFFCURVE",
"22 307 OFFCURVE",
"66 351 CURVE SMOOTH"
);
},
{
closed = 1;
nodes = (
"245 98 OFFCURVE",
"242 105 OFFCURVE",
"237 111 CURVE",
"231 117 OFFCURVE",
"224 120 OFFCURVE",
"215 120 CURVE SMOOTH",
"207 120 OFFCURVE",
"200 117 OFFCURVE",
"194 112 CURVE SMOOTH",
"188 107 OFFCURVE",
"185 100 OFFCURVE",
"185 91 CURVE SMOOTH",
"185 82 OFFCURVE",
"188 75 OFFCURVE",
"193 70 CURVE",
"198 64 OFFCURVE",
"205 61 OFFCURVE",
"213 61 CURVE SMOOTH",
"222 61 OFFCURVE",
"229 64 OFFCURVE",
"235 69 CURVE SMOOTH",
"241 74 OFFCURVE",
"244 80 OFFCURVE",
"244 89 CURVE"
);
},
{
closed = 1;
nodes = (
"301 228 OFFCURVE",
"305 240 OFFCURVE",
"305 253 CURVE SMOOTH",
"305 275 OFFCURVE",
"297 292 OFFCURVE",
"280 305 CURVE SMOOTH",
"264 317 OFFCURVE",
"243 323 OFFCURVE",
"218 323 CURVE SMOOTH",
"199 323 OFFCURVE",
"184 319 OFFCURVE",
"171 310 CURVE SMOOTH",
"152 297 OFFCURVE",
"143 275 OFFCURVE",
"143 242 CURVE",
"192 242 LINE",
"192 256 OFFCURVE",
"193 265 OFFCURVE",
"196 269 CURVE",
"202 279 OFFCURVE",
"211 284 OFFCURVE",
"222 284 CURVE SMOOTH",
"233 284 OFFCURVE",
"242 280 OFFCURVE",
"247 273 CURVE SMOOTH",
"252 266 OFFCURVE",
"255 258 OFFCURVE",
"255 250 CURVE SMOOTH",
"255 245 OFFCURVE",
"252 238 OFFCURVE",
"247 230 CURVE",
"246 227 OFFCURVE",
"242 224 OFFCURVE",
"237 220 CURVE",
"220 210 OFFCURVE",
"208 200 OFFCURVE",
"202 190 CURVE SMOOTH",
"197 181 OFFCURVE",
"193 168 OFFCURVE",
"192 149 CURVE",
"192 146 OFFCURVE",
"193 145 OFFCURVE",
"196 145 CURVE SMOOTH",
"235 145 LINE SMOOTH",
"238 145 OFFCURVE",
"240 146 OFFCURVE",
"240 149 CURVE SMOOTH",
"240 156 OFFCURVE",
"241 163 OFFCURVE",
"242 168 CURVE",
"244 174 OFFCURVE",
"248 180 OFFCURVE",
"254 185 CURVE",
"268 194 LINE SMOOTH",
"281 203 OFFCURVE",
"289 211 OFFCURVE",
"293 217 CURVE"
);
}
);
width = 448;
}
);
unicode = 0071;
},
{
glyphname = "r";
lastChange = "2015-02-09 15:23:23 +0100";
layers = (
{
layerId = "E8827009-6BC8-4B70-BCEC-AB542FFF6A4D";
name = "Regular";
paths = (
{
closed = 1;
nodes = (
"102 416 OFFCURVE",
"0 326 OFFCURVE",
"0 216 CURVE SMOOTH",
"0 156 OFFCURVE",
"27 105 OFFCURVE",
"69 68 CURVE",
"69 68 LINE SMOOTH",
"69 68 OFFCURVE",
"70 46 OFFCURVE",
"45 22 CURVE SMOOTH",
"21 -2 OFFCURVE",
"-13 -21 OFFCURVE",
"17 -25 CURVE SMOOTH",
"46 -27 OFFCURVE",
"71 -32 OFFCURVE",
"181 15 CURVE",
"181 15 LINE",
"196 13 OFFCURVE",
"217 11 OFFCURVE",
"232 11 CURVE SMOOTH",
"359 11 OFFCURVE",
"460 101 OFFCURVE",
"460 216 CURVE SMOOTH",
"460 326 OFFCURVE",
"359 416 OFFCURVE",
"232 416 CURVE SMOOTH"
);
},
{
closed = 1;
nodes = (
"332 105 OFFCURVE",
"337 152 OFFCURVE",
"314 175 CURVE SMOOTH",
"292 201 OFFCURVE",
"252 206 OFFCURVE",
"217 206 CURVE",
"217 165 LINE",
"217 165 OFFCURVE",
"216 152 OFFCURVE",
"202 160 CURVE SMOOTH",
"193 167 OFFCURVE",
"122 227 OFFCURVE",
"122 227 CURVE SMOOTH",
"122 227 OFFCURVE",
"115 232 OFFCURVE",
"122 240 CURVE",
"200 300 LINE",
"200 300 OFFCURVE",
"217 308 OFFCURVE",
"217 297 CURVE SMOOTH",
"217 285 OFFCURVE",
"217 259 OFFCURVE",
"217 259 CURVE SMOOTH",
"217 259 OFFCURVE",
"295 266 OFFCURVE",
"328 218 CURVE SMOOTH",
"362 166 OFFCURVE",
"332 105 OFFCURVE",
"332 105 CURVE SMOOTH"
);
}
);
width = 460;
}
);
unicode = 0072;
},
{
glyphname = "s";
lastChange = "2015-02-09 15:23:11 +0100";
layers = (
{
layerId = "E8827009-6BC8-4B70-BCEC-AB542FFF6A4D";
name = "Regular";
paths = (
{
closed = 1;
nodes = (
"204 309 OFFCURVE",
"199 395 OFFCURVE",
"131 415 CURVE",
"131 415 OFFCURVE",
"116 416 OFFCURVE",
"112 415 CURVE SMOOTH",
"107 413 OFFCURVE",
"112 409 OFFCURVE",
"121 401 CURVE SMOOTH",
"131 395 OFFCURVE",
"150 376 OFFCURVE",
"150 309 CURVE",
"114 309 LINE SMOOTH",
"114 309 OFFCURVE",
"106 309 OFFCURVE",
"113 298 CURVE SMOOTH",
"119 288 OFFCURVE",
"172 211 OFFCURVE",
"172 211 CURVE SMOOTH",
"172 211 OFFCURVE",
"176 206 OFFCURVE",
"180 211 CURVE SMOOTH",
"184 217 OFFCURVE",
"241 301 OFFCURVE",
"241 301 CURVE SMOOTH",
"241 301 OFFCURVE",
"246 310 OFFCURVE",
"237 310 CURVE SMOOTH",
"228 310 OFFCURVE",
"204 309 OFFCURVE",
"204 309 CURVE SMOOTH"
);
},
{
closed = 1;
nodes = (
"234 -22 OFFCURVE",
"224 -32 OFFCURVE",
"210 -32 CURVE SMOOTH",
"197 -32 OFFCURVE",
"187 -22 OFFCURVE",
"187 -11 CURVE SMOOTH",
"187 1 OFFCURVE",
"197 11 OFFCURVE",
"210 11 CURVE SMOOTH",
"224 11 OFFCURVE",
"234 1 OFFCURVE",
"234 -11 CURVE SMOOTH"
);
},
{
closed = 1;
nodes = (
"103 -22 OFFCURVE",
"92 -32 OFFCURVE",
"80 -32 CURVE SMOOTH",
"67 -32 OFFCURVE",
"57 -22 OFFCURVE",
"57 -11 CURVE SMOOTH",
"57 1 OFFCURVE",
"67 11 OFFCURVE",
"80 11 CURVE SMOOTH",
"92 11 OFFCURVE",
"103 1 OFFCURVE",
"103 -11 CURVE SMOOTH"
);
},
{
closed = 1;
nodes = (
"312 186 OFFCURVE",
"306 190 OFFCURVE",
"299 190 CURVE SMOOTH",
"248 185 LINE",
"248 185 OFFCURVE",
"248 185 OFFCURVE",
"248 185 CURVE",
"11 161 LINE SMOOTH",
"7 160 OFFCURVE",
"4 158 OFFCURVE",
"2 156 CURVE SMOOTH",
"0 153 OFFCURVE",
"0 149 OFFCURVE",
"1 147 CURVE SMOOTH",
"27 61 LINE SMOOTH",
"29 56 OFFCURVE",
"32 53 OFFCURVE",
"37 53 CURVE SMOOTH",
"238 53 LINE",
"238 37 LINE",
"46 37 LINE SMOOTH",
"40 37 OFFCURVE",
"35 32 OFFCURVE",
"35 26 CURVE SMOOTH",
"35 20 OFFCURVE",
"40 15 OFFCURVE",
"46 15 CURVE SMOOTH",
"249 15 LINE SMOOTH",
"255 15 OFFCURVE",
"260 20 OFFCURVE",
"260 26 CURVE SMOOTH",
"260 64 LINE",
"260 163 LINE",
"302 167 LINE SMOOTH",
"308 168 OFFCURVE",
"313 174 OFFCURVE",
"312 180 CURVE SMOOTH"
);
},
{
closed = 1;
nodes = (
"181 123 LINE",
"181 156 LINE",
"238 161 LINE",
"238 123 LINE"
);
},
{
closed = 1;
nodes = (
"101 123 LINE",
"99 147 LINE",
"160 153 LINE",
"159 123 LINE"
);
},
{
closed = 1;
nodes = (
"158 75 LINE",
"105 75 LINE",
"103 102 LINE",
"158 102 LINE"
);
},
{
closed = 1;
nodes = (
"238 102 LINE",
"238 75 LINE",
"180 75 LINE",
"181 102 LINE"
);
},
{
closed = 1;
nodes = (
"79 123 LINE",
"31 123 LINE",
"26 140 LINE",
"77 145 LINE"
);
},
{
closed = 1;
nodes = (
"80 102 LINE",
"83 75 LINE",
"46 75 LINE",
"38 102 LINE"
);
}
);
width = 312;
}
);
unicode = 0073;
},
{
glyphname = "t";
lastChange = "2015-02-09 15:22:56 +0100";
layers = (
{
layerId = "E8827009-6BC8-4B70-BCEC-AB542FFF6A4D";
name = "Regular";
paths = (
{
closed = 1;
nodes = (
"377 356 LINE",
"338 392 OFFCURVE",
"287 415 OFFCURVE",
"231 416 CURVE",
"231 356 LINE",
"270 354 OFFCURVE",
"306 338 OFFCURVE",
"335 314 CURVE"
);
},
{
closed = 1;
nodes = (
"231 -32 LINE",
"287 -31 OFFCURVE",
"338 -8 OFFCURVE",
"377 28 CURVE",
"335 70 LINE",
"306 46 OFFCURVE",
"270 30 OFFCURVE",
"231 28 CURVE"
);
},
{
closed = 1;
nodes = (
"60 344 LINE",
"24 308 OFFCURVE",
"3 258 OFFCURVE",
"0 202 CURVE",
"60 202 LINE",
"63 241 OFFCURVE",
"78 276 OFFCURVE",
"103 302 CURVE"
);
},
{
closed = 1;
nodes = (
"448 202 LINE",
"446 258 OFFCURVE",
"424 308 OFFCURVE",
"388 344 CURVE",
"346 302 LINE",
"371 276 OFFCURVE",
"386 241 OFFCURVE",
"387 202 CURVE"
);
},
{
closed = 1;
nodes = (
"214 416 LINE",
"159 414 OFFCURVE",
"109 392 OFFCURVE",
"72 356 CURVE",
"114 314 LINE",
"141 338 OFFCURVE",
"176 354 OFFCURVE",
"214 354 CURVE"
);
},
{
closed = 1;
nodes = (
"0 186 LINE",
"1 129 OFFCURVE",
"24 78 OFFCURVE",
"60 40 CURVE",
"103 82 LINE",
"78 110 OFFCURVE",
"62 146 OFFCURVE",
"60 186 CURVE"
);
},
{
closed = 1;
nodes = (
"387 146 OFFCURVE",
"371 110 OFFCURVE",
"346 82 CURVE",
"388 40 LINE",
"424 78 OFFCURVE",
"448 129 OFFCURVE",
"448 186 CURVE",
"388 186 LINE"
);
},
{
closed = 1;
nodes = (
"72 28 LINE",
"109 -8 OFFCURVE",
"159 -30 OFFCURVE",
"214 -32 CURVE",
"214 28 LINE",
"176 30 OFFCURVE",
"141 46 OFFCURVE",
"114 70 CURVE"
);
},
{
closed = 1;
nodes = (
"198 178 LINE",
"198 338 LINE",
"246 338 LINE",
"246 199 LINE",
"333 112 LINE",
"299 76 LINE"
);
}
);
width = 448;
}
);
unicode = 0074;
},
{
glyphname = "u";
lastChange = "2015-05-08 09:34:13 +0100";
layers = (
{
layerId = "E8827009-6BC8-4B70-BCEC-AB542FFF6A4D";
name = "Regular";
paths = (
{
closed = 1;
nodes = (
"384 0 LINE",
"192 0 LINE",
"0 0 LINE",
"0 17 OFFCURVE",
"1 31 OFFCURVE",
"2 40 CURVE",
"5 53 OFFCURVE",
"32 70 OFFCURVE",
"83 89 CURVE SMOOTH",
"91 92 OFFCURVE",
"101 95 OFFCURVE",
"112 99 CURVE SMOOTH",
"127 104 OFFCURVE",
"136 109 OFFCURVE",
"139 112 CURVE SMOOTH",
"142 115 OFFCURVE",
"143 123 OFFCURVE",
"143 138 CURVE SMOOTH",
"143 141 OFFCURVE",
"143 143 OFFCURVE",
"143 144 CURVE SMOOTH",
"143 152 OFFCURVE",
"140 160 OFFCURVE",
"134 168 CURVE",
"128 175 OFFCURVE",
"123 189 OFFCURVE",
"120 208 CURVE SMOOTH",
"119 215 OFFCURVE",
"117 220 OFFCURVE",
"114 224 CURVE SMOOTH",
"111 228 OFFCURVE",
"109 236 OFFCURVE",
"106 248 CURVE",
"104 254 OFFCURVE",
"104 260 OFFCURVE",
"106 265 CURVE",
"107 270 OFFCURVE",
"108 274 OFFCURVE",
"108 275 CURVE",
"107 286 OFFCURVE",
"105 297 OFFCURVE",
"104 308 CURVE SMOOTH",
"103 323 OFFCURVE",
"109 340 OFFCURVE",
"124 358 CURVE SMOOTH",
"139 375 OFFCURVE",
"161 384 OFFCURVE",
"192 384 CURVE SMOOTH",
"223 384 OFFCURVE",
"245 375 OFFCURVE",
"260 358 CURVE SMOOTH",
"275 340 OFFCURVE",
"281 323 OFFCURVE",
"280 308 CURVE SMOOTH",
"279 297 OFFCURVE",
"277 286 OFFCURVE",
"276 275 CURVE",
"276 274 OFFCURVE",
"277 270 OFFCURVE",
"279 265 CURVE",
"280 260 OFFCURVE",
"280 254 OFFCURVE",
"278 248 CURVE",
"275 236 OFFCURVE",
"273 228 OFFCURVE",
"270 224 CURVE SMOOTH",
"267 220 OFFCURVE",
"265 215 OFFCURVE",
"264 208 CURVE SMOOTH",
"261 189 OFFCURVE",
"256 175 OFFCURVE",
"250 168 CURVE",
"244 160 OFFCURVE",
"241 152 OFFCURVE",
"241 144 CURVE SMOOTH",
"241 124 OFFCURVE",
"243 113 OFFCURVE",
"247 110 CURVE",
"248 109 OFFCURVE",
"265 102 OFFCURVE",
"296 91 CURVE",
"297 90 OFFCURVE",
"299 90 OFFCURVE",
"301 89 CURVE",
"352 70 OFFCURVE",
"379 53 OFFCURVE",
"382 40 CURVE"
);
}
);
width = 384;
}
);
unicode = 0075;
},
{
glyphname = "v";
lastChange = "2015-04-23 10:52:10 +0100";
layers = (
{
layerId = "E8827009-6BC8-4B70-BCEC-AB542FFF6A4D";
name = "Regular";
paths = (
{
closed = 1;
nodes = (
"297 320 OFFCURVE",
"372 277 OFFCURVE",
"448 191 CURVE",
"430 173 OFFCURVE",
"419 162 OFFCURVE",
"414 157 CURVE SMOOTH",
"409 152 OFFCURVE",
"396 142 OFFCURVE",
"377 126 CURVE SMOOTH",
"358 110 OFFCURVE",
"342 99 OFFCURVE",
"330 93 CURVE SMOOTH",
"318 87 OFFCURVE",
"302 81 OFFCURVE",
"283 74 CURVE SMOOTH",
"263 67 OFFCURVE",
"243 64 OFFCURVE",
"224 64 CURVE SMOOTH",
"200 64 OFFCURVE",
"178 67 OFFCURVE",
"158 73 CURVE SMOOTH",
"138 79 OFFCURVE",
"118 89 OFFCURVE",
"98 104 CURVE SMOOTH",
"78 119 OFFCURVE",
"62 131 OFFCURVE",
"51 142 CURVE",
"40 152 OFFCURVE",
"23 169 OFFCURVE",
"0 192 CURVE",
"43 235 OFFCURVE",
"82 268 OFFCURVE",
"116 289 CURVE SMOOTH",
"149 310 OFFCURVE",
"185 320 OFFCURVE",
"224 320 CURVE SMOOTH"
);
},
{
closed = 1;
nodes = (
"178 110 OFFCURVE",
"199 101 OFFCURVE",
"224 101 CURVE SMOOTH",
"249 101 OFFCURVE",
"270 110 OFFCURVE",
"288 128 CURVE SMOOTH",
"305 146 OFFCURVE",
"314 167 OFFCURVE",
"314 192 CURVE SMOOTH",
"314 217 OFFCURVE",
"305 238 OFFCURVE",
"288 256 CURVE SMOOTH",
"270 274 OFFCURVE",
"249 283 OFFCURVE",
"224 283 CURVE SMOOTH",
"199 283 OFFCURVE",
"178 274 OFFCURVE",
"161 256 CURVE SMOOTH",
"143 238 OFFCURVE",
"134 217 OFFCURVE",
"134 192 CURVE SMOOTH",
"134 167 OFFCURVE",
"143 146 OFFCURVE",
"161 128 CURVE SMOOTH"
);
},
{
closed = 1;
nodes = (
"224 215 OFFCURVE",
"227 207 OFFCURVE",
"233 201 CURVE SMOOTH",
"239 195 OFFCURVE",
"247 192 OFFCURVE",
"256 192 CURVE SMOOTH",
"263 192 OFFCURVE",
"269 194 OFFCURVE",
"276 199 CURVE",
"276 192 LINE SMOOTH",
"276 177 OFFCURVE",
"271 165 OFFCURVE",
"261 155 CURVE",
"251 144 OFFCURVE",
"239 139 OFFCURVE",
"224 139 CURVE SMOOTH",
"209 139 OFFCURVE",
"197 144 OFFCURVE",
"187 155 CURVE",
"177 165 OFFCURVE",
"172 177 OFFCURVE",
"172 192 CURVE SMOOTH",
"172 207 OFFCURVE",
"177 219 OFFCURVE",
"187 230 CURVE",
"197 240 OFFCURVE",
"209 245 OFFCURVE",
"224 245 CURVE SMOOTH",
"232 245 LINE",
"227 238 OFFCURVE",
"224 231 OFFCURVE",
"224 224 CURVE SMOOTH"
);
}
);
width = 448;
}
);
unicode = 0076;
},
{
glyphname = "w";
lastChange = "2015-02-09 15:22:10 +0100";
layers = (
{
layerId = "E8827009-6BC8-4B70-BCEC-AB542FFF6A4D";
name = "Regular";
paths = (
{
closed = 1;
nodes = (
"355 77 OFFCURVE",
"355 30 OFFCURVE",
"355 12 CURVE SMOOTH",
"355 -32 OFFCURVE",
"309 -32 OFFCURVE",
"309 -32 CURVE SMOOTH",
"309 -32 OFFCURVE",
"84 -32 OFFCURVE",
"44 -32 CURVE SMOOTH",
"3 -32 OFFCURVE",
"0 20 OFFCURVE",
"0 20 CURVE SMOOTH",
"0 20 OFFCURVE",
"0 260 OFFCURVE",
"0 304 CURVE SMOOTH",
"0 348 OFFCURVE",
"42 349 OFFCURVE",
"42 349 CURVE",
"73 349 LINE",
"73 304 LINE",
"44 304 LINE",
"44 12 LINE",
"309 12 LINE",
"309 81 LINE",
"355 124 LINE"
);
},
{
closed = 1;
nodes = (
"266 349 OFFCURVE",
"232 354 OFFCURVE",
"221 380 CURVE SMOOTH",
"208 401 OFFCURVE",
"159 416 OFFCURVE",
"134 380 CURVE SMOOTH",
"121 363 OFFCURVE",
"104 349 OFFCURVE",
"89 349 CURVE SMOOTH",
"89 349 OFFCURVE",
"89 302 OFFCURVE",
"89 290 CURVE SMOOTH",
"89 277 OFFCURVE",
"99 277 OFFCURVE",
"99 277 CURVE SMOOTH",
"99 277 OFFCURVE",
"244 277 OFFCURVE",
"253 277 CURVE SMOOTH",
"267 277 OFFCURVE",
"266 295 OFFCURVE",
"266 295 CURVE",
"266 349 LINE"
);
},
{
closed = 1;
nodes = (
"164 328 OFFCURVE",
"157 340 OFFCURVE",
"157 350 CURVE SMOOTH",
"157 365 OFFCURVE",
"164 377 OFFCURVE",
"179 377 CURVE SMOOTH",
"194 377 OFFCURVE",
"203 365 OFFCURVE",
"203 350 CURVE SMOOTH",
"203 340 OFFCURVE",
"194 328 OFFCURVE",
"179 328 CURVE SMOOTH"
);
},
{
closed = 1;
nodes = (
"74 152 LINE",
"203 26 LINE",
"455 275 LINE",
"391 339 LINE",
"201 143 LINE",
"134 211 LINE"
);
}
);
width = 455;
}
);
unicode = 0077;
},
{
glyphname = "x";
lastChange = "2015-02-09 15:21:57 +0100";
layers = (
{
layerId = "E8827009-6BC8-4B70-BCEC-AB542FFF6A4D";
name = "Regular";
paths = (
{
closed = 1;
nodes = (
"220 400 OFFCURVE",
"207 396 OFFCURVE",
"196 392 CURVE",
"193 401 OFFCURVE",
"184 413 OFFCURVE",
"168 413 CURVE SMOOTH",
"164 413 OFFCURVE",
"161 412 OFFCURVE",
"158 411 CURVE SMOOTH",
"142 405 OFFCURVE",
"119 398 OFFCURVE",
"119 398 CURVE",
"80 385 LINE SMOOTH",
"71 382 OFFCURVE",
"65 376 OFFCURVE",
"63 370 CURVE SMOOTH",
"59 362 OFFCURVE",
"60 352 OFFCURVE",
"61 347 CURVE",
"50 343 OFFCURVE",
"39 340 OFFCURVE",
"29 337 CURVE SMOOTH",
"-12 323 OFFCURVE",
"3 279 OFFCURVE",
"3 279 CURVE",
"286 372 LINE",
"286 372 OFFCURVE",
"272 416 OFFCURVE",
"231 404 CURVE SMOOTH"
);
},
{
closed = 1;
nodes = (
"24 279 OFFCURVE",
"24 50 OFFCURVE",
"24 9 CURVE SMOOTH",
"24 -32 OFFCURVE",
"58 -32 OFFCURVE",
"58 -32 CURVE",
"150 -32 LINE",
"152 -32 LINE",
"246 -32 LINE",
"246 -32 OFFCURVE",
"280 -32 OFFCURVE",
"280 9 CURVE SMOOTH",
"280 50 OFFCURVE",
"280 279 OFFCURVE",
"280 279 CURVE SMOOTH",
"24 279 LINE SMOOTH"
);
},
{
closed = 1;
nodes = (
"75 5 LINE",
"75 251 LINE",
"102 251 LINE",
"102 5 LINE"
);
},
{
closed = 1;
nodes = (
"138 5 LINE",
"138 251 LINE",
"166 251 LINE",
"166 5 LINE"
);
},
{
closed = 1;
nodes = (
"202 5 LINE",
"202 251 LINE",
"231 251 LINE",
"231 5 LINE"
);
},
{
closed = 1;
nodes = (
"435 41 OFFCURVE",
"475 92 OFFCURVE",
"465 135 CURVE SMOOTH",
"455 177 OFFCURVE",
"413 213 OFFCURVE",
"373 239 CURVE",
"346 197 LINE",
"346 197 OFFCURVE",
"336 182 OFFCURVE",
"331 198 CURVE SMOOTH",
"325 215 OFFCURVE",
"286 328 OFFCURVE",
"286 328 CURVE SMOOTH",
"286 328 OFFCURVE",
"280 339 OFFCURVE",
"296 342 CURVE",
"427 355 LINE",
"427 355 OFFCURVE",
"447 356 OFFCURVE",
"438 343 CURVE SMOOTH",
"430 329 OFFCURVE",
"411 299 OFFCURVE",
"411 299 CURVE SMOOTH",
"411 299 OFFCURVE",
"506 250 OFFCURVE",
"510 169 CURVE SMOOTH",
"513 91 OFFCURVE",
"435 41 OFFCURVE",
"435 41 CURVE SMOOTH"
);
}
);
width = 510;
}
);
unicode = 0078;
},
{
glyphname = "y";
lastChange = "2015-05-29 07:28:18 +0100";
layers = (
{
layerId = "E8827009-6BC8-4B70-BCEC-AB542FFF6A4D";
name = "Regular";
paths = (
{
closed = 1;
nodes = (
"274 143 LINE",
"384 33 LINE",
"351 0 LINE",
"242 110 LINE",
"242 127 LINE",
"235 133 LINE",
"208 110 OFFCURVE",
"177 99 OFFCURVE",
"142 99 CURVE SMOOTH",
"103 99 OFFCURVE",
"69 113 OFFCURVE",
"42 141 CURVE",
"14 168 OFFCURVE",
"0 202 OFFCURVE",
"0 241 CURVE SMOOTH",
"0 280 OFFCURVE",
"14 314 OFFCURVE",
"42 342 CURVE SMOOTH",
"69 370 OFFCURVE",
"102 384 OFFCURVE",
"141 384 CURVE SMOOTH",
"180 384 OFFCURVE",
"214 370 OFFCURVE",
"242 342 CURVE SMOOTH",
"269 314 OFFCURVE",
"283 280 OFFCURVE",
"283 241 CURVE SMOOTH",
"283 206 OFFCURVE",
"272 175 OFFCURVE",
"249 148 CURVE",
"256 143 LINE"
);
},
{
closed = 1;
nodes = (
"92 153 OFFCURVE",
"115 143 OFFCURVE",
"142 143 CURVE SMOOTH",
"169 143 OFFCURVE",
"193 153 OFFCURVE",
"212 172 CURVE SMOOTH",
"231 191 OFFCURVE",
"241 214 OFFCURVE",
"241 241 CURVE SMOOTH",
"241 268 OFFCURVE",
"231 292 OFFCURVE",
"212 311 CURVE SMOOTH",
"193 330 OFFCURVE",
"169 340 OFFCURVE",
"142 340 CURVE SMOOTH",
"115 340 OFFCURVE",
"92 330 OFFCURVE",
"73 311 CURVE SMOOTH",
"54 292 OFFCURVE",
"44 268 OFFCURVE",
"44 241 CURVE SMOOTH",
"44 214 OFFCURVE",
"54 191 OFFCURVE",
"73 172 CURVE SMOOTH"
);
}
);
width = 384;
}
);
unicode = 0079;
},
{
glyphname = "z";
lastChange = "2015-02-09 15:21:28 +0100";
layers = (
{
layerId = "E8827009-6BC8-4B70-BCEC-AB542FFF6A4D";
name = "Regular";
paths = (
{
closed = 1;
nodes = (
"335 149 LINE SMOOTH",
"331 153 OFFCURVE",
"328 156 OFFCURVE",
"322 158 CURVE",
"337 183 OFFCURVE",
"345 210 OFFCURVE",
"345 240 CURVE SMOOTH",
"345 337 OFFCURVE",
"267 416 OFFCURVE",
"174 416 CURVE SMOOTH",
"79 416 OFFCURVE",
"0 337 OFFCURVE",
"0 240 CURVE SMOOTH",
"0 147 OFFCURVE",
"79 70 OFFCURVE",
"174 70 CURVE SMOOTH",
"208 70 OFFCURVE",
"234 79 OFFCURVE",
"261 95 CURVE",
"263 90 OFFCURVE",
"267 87 OFFCURVE",
"269 85 CURVE SMOOTH",
"371 -17 LINE SMOOTH",
"380 -27 OFFCURVE",
"392 -32 OFFCURVE",
"404 -32 CURVE SMOOTH",
"416 -32 OFFCURVE",
"428 -27 OFFCURVE",
"437 -17 CURVE SMOOTH",
"455 0 OFFCURVE",
"455 29 OFFCURVE",
"437 47 CURVE SMOOTH"
);
},
{
closed = 1;
nodes = (
"46 310 OFFCURVE",
"104 368 OFFCURVE",
"174 368 CURVE SMOOTH",
"241 368 OFFCURVE",
"299 310 OFFCURVE",
"299 240 CURVE SMOOTH",
"299 210 OFFCURVE",
"286 185 OFFCURVE",
"269 162 CURVE",
"269 162 LINE",
"256 151 LINE",
"258 151 LINE",
"234 130 OFFCURVE",
"208 117 OFFCURVE",
"174 117 CURVE SMOOTH",
"104 117 OFFCURVE",
"46 174 OFFCURVE",
"46 240 CURVE SMOOTH"
);
},
{
closed = 1;
nodes = (
"86 224 LINE",
"86 256 LINE",
"254 256 LINE",
"254 224 LINE"
);
}
);
width = 451;
}
);
unicode = 007A;
},
{
glyphname = "asterisk";
lastChange = "2015-05-18 08:55:53 +0100";
layers = (
{
layerId = "E8827009-6BC8-4B70-BCEC-AB542FFF6A4D";
name = "Regular";
paths = (
{
closed = 1;
nodes = (
"118 130 LINE",
"90 -32 LINE",
"235 45 LINE",
"235 416 LINE",
"163 269 LINE",
"0 245 LINE"
);
}
);
width = 234;
}
);
unicode = 002A;
},
{
glyphname = "parenleft";
lastChange = "2015-05-18 12:46:19 +0100";
layers = (
{
layerId = "E8827009-6BC8-4B70-BCEC-AB542FFF6A4D";
name = "Regular";
paths = (
{
closed = 1;
nodes = (
"-1 45 LINE",
"145 -32 LINE",
"118 130 LINE",
"235 245 LINE",
"72 269 LINE",
"-1 416 LINE"
);
}
);
width = 236;
}
);
unicode = 0028;
},
{
glyphname = "A";
lastChange = "2015-02-09 15:09:57 +0100";
layers = (
{
layerId = "E8827009-6BC8-4B70-BCEC-AB542FFF6A4D";
name = "Regular";
paths = (
{
closed = 1;
nodes = (
"384 48 LINE",
"374 48 LINE",
"354 79 LINE SMOOTH",
"330 118 OFFCURVE",
"305 144 OFFCURVE",
"279 156 CURVE SMOOTH",
"252 169 OFFCURVE",
"223 175 OFFCURVE",
"192 176 CURVE",
"192 96 LINE",
"0 224 LINE",
"192 352 LINE",
"192 272 LINE",
"253 269 OFFCURVE",
"300 251 OFFCURVE",
"335 216 CURVE SMOOTH",
"368 183 OFFCURVE",
"384 137 OFFCURVE",
"384 80 CURVE SMOOTH"
);
}
);
width = 384;
}
);
unicode = 0041;
},
{
glyphname = "Aacute";
layers = (
{
layerId = "E8827009-6BC8-4B70-BCEC-AB542FFF6A4D";
name = "Regular";
paths = (
{
closed = 1;
nodes = (
"352 96 LINE",
"248 208 LINE",
"322 208 LINE",
"319 240 OFFCURVE",
"305 267 OFFCURVE",
"280 288 CURVE SMOOTH",
"255 309 OFFCURVE",
"225 320 OFFCURVE",
"192 320 CURVE SMOOTH",
"157 320 OFFCURVE",
"127 308 OFFCURVE",
"102 283 CURVE SMOOTH",
"77 258 OFFCURVE",
"64 227 OFFCURVE",
"64 192 CURVE SMOOTH",
"64 157 OFFCURVE",
"77 127 OFFCURVE",
"102 102 CURVE SMOOTH",
"127 77 OFFCURVE",
"157 64 OFFCURVE",
"192 64 CURVE SMOOTH",
"220 64 OFFCURVE",
"245 72 OFFCURVE",
"267 88 CURVE",
"273 93 LINE",
"316 47 LINE",
"309 41 LINE",
"273 14 OFFCURVE",
"234 0 OFFCURVE",
"192 0 CURVE SMOOTH",
"147 0 OFFCURVE",
"108 14 OFFCURVE",
"73 42 CURVE SMOOTH",
"38 70 OFFCURVE",
"15 106 OFFCURVE",
"5 149 CURVE",
"5 150 OFFCURVE",
"5 151 OFFCURVE",
"4 152 CURVE",
"4 153 LINE",
"4 155 LINE SMOOTH",
"4 156 OFFCURVE",
"4 156 OFFCURVE",
"4 156 CURVE",
"3 158 LINE",
"3 159 LINE SMOOTH",
"3 160 OFFCURVE",
"3 160 OFFCURVE",
"3 161 CURVE",
"2 162 OFFCURVE",
"2 162 OFFCURVE",
"2 163 CURVE",
"1 171 OFFCURVE",
"0 177 OFFCURVE",
"0 182 CURVE SMOOTH",
"0 183 LINE",
"0 187 LINE",
"0 192 LINE",
"0 197 LINE",
"0 201 LINE",
"0 202 LINE SMOOTH",
"0 207 OFFCURVE",
"1 213 OFFCURVE",
"2 221 CURVE",
"2 222 OFFCURVE",
"2 222 OFFCURVE",
"3 223 CURVE",
"3 224 OFFCURVE",
"3 224 OFFCURVE",
"3 225 CURVE SMOOTH",
"3 226 LINE",
"4 227 LINE",
"4 228 LINE",
"4 231 LINE",
"4 232 LINE",
"4 233 LINE",
"5 234 OFFCURVE",
"5 234 OFFCURVE",
"5 235 CURVE",
"15 278 OFFCURVE",
"38 314 OFFCURVE",
"73 342 CURVE SMOOTH",
"108 370 OFFCURVE",
"147 384 OFFCURVE",
"192 384 CURVE",
"192 384 LINE",
"203 384 OFFCURVE",
"213 383 OFFCURVE",
"223 381 CURVE",
"225 381 LINE",
"227 381 LINE",
"286 370 OFFCURVE",
"331 338 OFFCURVE",
"360 285 CURVE SMOOTH",
"373 262 OFFCURVE",
"381 236 OFFCURVE",
"383 208 CURVE",
"448 208 LINE"
);
}
);
width = 448;
}
);
unicode = 00C1;
},
{
glyphname = "Acircumflex";
layers = (
{
layerId = "E8827009-6BC8-4B70-BCEC-AB542FFF6A4D";
name = "Regular";
paths = (
{
closed = 1;
nodes = (
"312 192 LINE",
"320 184 LINE",
"256 100 LINE",
"256 96 LINE SMOOTH",
"256 87 OFFCURVE",
"253 79 OFFCURVE",
"247 73 CURVE SMOOTH",
"241 67 OFFCURVE",
"233 64 OFFCURVE",
"224 64 CURVE SMOOTH",
"215 64 OFFCURVE",
"207 67 OFFCURVE",
"201 73 CURVE SMOOTH",
"195 79 OFFCURVE",
"192 87 OFFCURVE",
"192 96 CURVE SMOOTH",
"192 105 OFFCURVE",
"195 113 OFFCURVE",
"201 119 CURVE SMOOTH",
"207 125 OFFCURVE",
"215 128 OFFCURVE",
"224 128 CURVE SMOOTH",
"228 128 LINE"
);
},
{
closed = 1;
nodes = (
"448 95 OFFCURVE",
"441 63 OFFCURVE",
"426 32 CURVE",
"390 32 LINE",
"407 61 OFFCURVE",
"415 91 OFFCURVE",
"416 120 CURVE",
"384 120 LINE",
"384 136 LINE",
"416 136 LINE",
"415 163 OFFCURVE",
"408 190 OFFCURVE",
"394 217 CURVE",
"367 202 LINE",
"359 215 LINE",
"386 231 LINE",
"377 245 OFFCURVE",
"368 256 OFFCURVE",
"360 264 CURVE SMOOTH",
"352 272 OFFCURVE",
"341 281 OFFCURVE",
"327 290 CURVE",
"311 263 LINE",
"297 271 LINE",
"313 298 LINE",
"286 312 OFFCURVE",
"259 319 OFFCURVE",
"232 320 CURVE",
"232 288 LINE",
"216 288 LINE",
"216 320 LINE",
"189 319 OFFCURVE",
"162 312 OFFCURVE",
"135 298 CURVE",
"151 271 LINE",
"137 263 LINE",
"121 290 LINE",
"107 281 OFFCURVE",
"96 272 OFFCURVE",
"88 264 CURVE SMOOTH",
"77 253 OFFCURVE",
"69 242 OFFCURVE",
"62 231 CURVE",
"90 215 LINE",
"82 202 LINE",
"54 217 LINE",
"40 190 OFFCURVE",
"33 163 OFFCURVE",
"32 136 CURVE",
"64 136 LINE",
"64 120 LINE",
"32 120 LINE",
"33 91 OFFCURVE",
"41 61 OFFCURVE",
"58 32 CURVE",
"22 32 LINE",
"7 63 OFFCURVE",
"0 95 OFFCURVE",
"0 128 CURVE SMOOTH",
"0 190 OFFCURVE",
"22 243 OFFCURVE",
"66 287 CURVE SMOOTH",
"109 330 OFFCURVE",
"162 352 OFFCURVE",
"224 352 CURVE SMOOTH",
"286 352 OFFCURVE",
"339 330 OFFCURVE",
"383 287 CURVE SMOOTH",
"426 243 OFFCURVE",
"448 190 OFFCURVE",
"448 128 CURVE SMOOTH"
);
}
);
width = 448;
}
);
unicode = 00C2;
},
{
glyphname = "Adieresis";
layers = (
{
layerId = "E8827009-6BC8-4B70-BCEC-AB542FFF6A4D";
name = "Regular";
paths = (
{
closed = 1;
nodes = (
"166 -32 OFFCURVE",
"129 -25 OFFCURVE",
"92 -11 CURVE SMOOTH",
"32 12 OFFCURVE",
"0 73 OFFCURVE",
"8 143 CURVE SMOOTH",
"17 225 OFFCURVE",
"82 315 OFFCURVE",
"206 332 CURVE SMOOTH",
"218 334 OFFCURVE",
"229 326 OFFCURVE",
"230 314 CURVE SMOOTH",
"232 302 OFFCURVE",
"224 291 OFFCURVE",
"212 289 CURVE SMOOTH",
"111 275 OFFCURVE",
"59 203 OFFCURVE",
"51 138 CURVE SMOOTH",
"46 98 OFFCURVE",
"59 49 OFFCURVE",
"107 30 CURVE SMOOTH",
"188 -1 OFFCURVE",
"266 7 OFFCURVE",
"322 53 CURVE SMOOTH",
"377 98 OFFCURVE",
"402 171 OFFCURVE",
"389 249 CURVE SMOOTH",
"383 281 OFFCURVE",
"365 307 OFFCURVE",
"334 326 CURVE SMOOTH",
"259 373 OFFCURVE",
"137 370 OFFCURVE",
"79 353 CURVE SMOOTH",
"67 350 OFFCURVE",
"55 356 OFFCURVE",
"52 368 CURVE SMOOTH",
"48 379 OFFCURVE",
"55 392 OFFCURVE",
"67 395 CURVE SMOOTH",
"135 415 OFFCURVE",
"270 418 OFFCURVE",
"357 363 CURVE SMOOTH",
"399 337 OFFCURVE",
"424 301 OFFCURVE",
"432 256 CURVE SMOOTH",
"448 163 OFFCURVE",
"417 74 OFFCURVE",
"349 19 CURVE SMOOTH",
"308 -15 OFFCURVE",
"257 -32 OFFCURVE",
"202 -32 CURVE SMOOTH"
);
}
);
width = 436;
}
);
unicode = 00C4;
},
{
glyphname = "Agrave";
layers = (
{
layerId = "E8827009-6BC8-4B70-BCEC-AB542FFF6A4D";
name = "Regular";
paths = (
{
closed = 1;
nodes = (
"76 48 LINE SMOOTH",
"55 48 OFFCURVE",
"37 55 OFFCURVE",
"22 69 CURVE",
"7 82 OFFCURVE",
"0 99 OFFCURVE",
"0 119 CURVE SMOOTH",
"0 328 LINE SMOOTH",
"0 348 OFFCURVE",
"7 365 OFFCURVE",
"22 379 CURVE SMOOTH",
"37 393 OFFCURVE",
"55 400 OFFCURVE",
"76 400 CURVE SMOOTH",
"340 400 LINE SMOOTH",
"361 400 OFFCURVE",
"379 393 OFFCURVE",
"394 379 CURVE SMOOTH",
"409 365 OFFCURVE",
"416 348 OFFCURVE",
"416 328 CURVE SMOOTH",
"416 119 LINE SMOOTH",
"416 99 OFFCURVE",
"409 82 OFFCURVE",
"394 69 CURVE",
"379 55 OFFCURVE",
"361 48 OFFCURVE",
"340 48 CURVE SMOOTH",
"336 48 LINE",
"336 -16 LINE",
"283 20 OFFCURVE",
"255 40 OFFCURVE",
"250 43 CURVE SMOOTH",
"245 46 OFFCURVE",
"238 48 OFFCURVE",
"229 48 CURVE SMOOTH"
);
},
{
closed = 1;
nodes = (
"321 253 OFFCURVE",
"313 256 OFFCURVE",
"304 256 CURVE SMOOTH",
"295 256 OFFCURVE",
"287 253 OFFCURVE",
"281 247 CURVE SMOOTH",
"275 241 OFFCURVE",
"272 233 OFFCURVE",
"272 224 CURVE SMOOTH",
"272 215 OFFCURVE",
"275 207 OFFCURVE",
"281 201 CURVE SMOOTH",
"287 195 OFFCURVE",
"295 192 OFFCURVE",
"304 192 CURVE SMOOTH",
"313 192 OFFCURVE",
"321 195 OFFCURVE",
"327 201 CURVE SMOOTH",
"333 207 OFFCURVE",
"336 215 OFFCURVE",
"336 224 CURVE SMOOTH",
"336 233 OFFCURVE",
"333 241 OFFCURVE",
"327 247 CURVE SMOOTH"
);
},
{
closed = 1;
nodes = (
"225 253 OFFCURVE",
"217 256 OFFCURVE",
"208 256 CURVE SMOOTH",
"199 256 OFFCURVE",
"191 253 OFFCURVE",
"185 247 CURVE SMOOTH",
"179 241 OFFCURVE",
"176 233 OFFCURVE",
"176 224 CURVE SMOOTH",
"176 215 OFFCURVE",
"179 207 OFFCURVE",
"185 201 CURVE SMOOTH",
"191 195 OFFCURVE",
"199 192 OFFCURVE",
"208 192 CURVE SMOOTH",
"217 192 OFFCURVE",
"225 195 OFFCURVE",
"231 201 CURVE SMOOTH",
"237 207 OFFCURVE",
"240 215 OFFCURVE",
"240 224 CURVE SMOOTH",
"240 233 OFFCURVE",
"237 241 OFFCURVE",
"231 247 CURVE SMOOTH"
);
},
{
closed = 1;
nodes = (
"129 253 OFFCURVE",
"121 256 OFFCURVE",
"112 256 CURVE SMOOTH",
"103 256 OFFCURVE",
"95 253 OFFCURVE",
"89 247 CURVE SMOOTH",
"83 241 OFFCURVE",
"80 233 OFFCURVE",
"80 224 CURVE SMOOTH",
"80 215 OFFCURVE",
"83 207 OFFCURVE",
"89 201 CURVE SMOOTH",
"95 195 OFFCURVE",
"103 192 OFFCURVE",
"112 192 CURVE SMOOTH",
"121 192 OFFCURVE",
"129 195 OFFCURVE",
"135 201 CURVE SMOOTH",
"141 207 OFFCURVE",
"144 215 OFFCURVE",
"144 224 CURVE SMOOTH",
"144 233 OFFCURVE",
"141 241 OFFCURVE",
"135 247 CURVE SMOOTH"
);
}
);
width = 416;
}
);
unicode = 00C0;
},
{
glyphname = "Atilde";
layers = (
{
layerId = "E8827009-6BC8-4B70-BCEC-AB542FFF6A4D";
name = "Regular";
paths = (
{
closed = 1;
nodes = (
"381 259 LINE",
"131 8 LINE",
"40 99 LINE",
"291 349 LINE"
);
},
{
closed = 1;
nodes = (
"440 360 LINE SMOOTH",
"446 354 OFFCURVE",
"449 347 OFFCURVE",
"449 338 CURVE",
"448 329 OFFCURVE",
"445 322 OFFCURVE",
"438 315 CURVE SMOOTH",
"393 270 LINE",
"302 361 LINE",
"347 406 LINE SMOOTH",
"354 413 OFFCURVE",
"361 416 OFFCURVE",
"370 417 CURVE",
"379 417 OFFCURVE",
"386 414 OFFCURVE",
"392 408 CURVE SMOOTH"
);
},
{
closed = 1;
nodes = (
"32 85 LINE",
"117 0 LINE",
"0 -32 LINE"
);
}
);
width = 449;
}
);
unicode = 00C3;
},
{
glyphname = "Ccedilla";
layers = (
{
layerId = "E8827009-6BC8-4B70-BCEC-AB542FFF6A4D";
name = "Regular";
paths = (
{
closed = 1;
nodes = (
"109 394 OFFCURVE",
"162 416 OFFCURVE",
"224 416 CURVE SMOOTH",
"286 416 OFFCURVE",
"339 394 OFFCURVE",
"383 351 CURVE SMOOTH",
"426 307 OFFCURVE",
"448 254 OFFCURVE",
"448 192 CURVE SMOOTH",
"448 130 OFFCURVE",
"426 77 OFFCURVE",
"383 34 CURVE SMOOTH",
"339 -10 OFFCURVE",
"286 -32 OFFCURVE",
"224 -32 CURVE SMOOTH",
"162 -32 OFFCURVE",
"109 -10 OFFCURVE",
"66 34 CURVE SMOOTH",
"22 77 OFFCURVE",
"0 130 OFFCURVE",
"0 192 CURVE SMOOTH",
"0 254 OFFCURVE",
"22 307 OFFCURVE",
"66 351 CURVE SMOOTH"
);
},
{
closed = 1;
nodes = (
"339 267 LINE",
"340 268 OFFCURVE",
"340 269 OFFCURVE",
"340 270 CURVE SMOOTH",
"340 272 OFFCURVE",
"340 273 OFFCURVE",
"339 274 CURVE",
"308 298 LINE",
"307 299 OFFCURVE",
"306 299 OFFCURVE",
"304 299 CURVE SMOOTH",
"303 299 OFFCURVE",
"302 299 OFFCURVE",
"301 298 CURVE",
"190 155 LINE",
"161 183 OFFCURVE",
"146 197 OFFCURVE",
"145 198 CURVE SMOOTH",
"143 200 OFFCURVE",
"141 201 OFFCURVE",
"139 201 CURVE SMOOTH",
"138 201 OFFCURVE",
"137 200 OFFCURVE",
"135 198 CURVE SMOOTH",
"110 173 LINE",
"109 172 LINE SMOOTH",
"108 171 OFFCURVE",
"108 170 OFFCURVE",
"108 168 CURVE SMOOTH",
"108 167 OFFCURVE",
"108 166 OFFCURVE",
"109 165 CURVE",
"111 164 LINE",
"163 114 OFFCURVE",
"189 89 OFFCURVE",
"190 88 CURVE SMOOTH",
"192 86 OFFCURVE",
"194 85 OFFCURVE",
"195 85 CURVE SMOOTH",
"196 85 OFFCURVE",
"198 86 OFFCURVE",
"200 88 CURVE"
);
}
);
width = 448;
}
);
unicode = 00C7;
},
{
glyphname = "Eth";
layers = (
{
layerId = "E8827009-6BC8-4B70-BCEC-AB542FFF6A4D";
name = "Regular";
paths = (
{
closed = 1;
nodes = (
"0 175 LINE",
"0 207 LINE",
"320 207 LINE",
"320 175 LINE"
);
},
{
closed = 1;
nodes = (
"0 271 LINE",
"0 303 LINE",
"320 303 LINE",
"320 271 LINE"
);
},
{
closed = 1;
nodes = (
"0 79 LINE",
"0 111 LINE",
"320 111 LINE",
"320 79 LINE"
);
}
);
width = 320;
}
);
unicode = 00D0;
},
{
glyphname = "Eacute";
layers = (
{
layerId = "E8827009-6BC8-4B70-BCEC-AB542FFF6A4D";
name = "Regular";
paths = (
{
closed = 1;
nodes = (
"448 251 OFFCURVE",
"448 248 OFFCURVE",
"447 246 CURVE",
"442 235 OFFCURVE",
"434 233 OFFCURVE",
"424 239 CURVE",
"421 240 OFFCURVE",
"418 244 OFFCURVE",
"417 250 CURVE",
"416 251 OFFCURVE",
"416 254 OFFCURVE",
"416 257 CURVE SMOOTH",
"416 260 OFFCURVE",
"416 262 OFFCURVE",
"415 264 CURVE",
"411 283 OFFCURVE",
"404 303 OFFCURVE",
"393 322 CURVE SMOOTH",
"380 345 OFFCURVE",
"364 363 OFFCURVE",
"346 378 CURVE SMOOTH",
"329 392 OFFCURVE",
"308 403 OFFCURVE",
"284 411 CURVE",
"263 417 OFFCURVE",
"241 420 OFFCURVE",
"220 420 CURVE SMOOTH",
"216 420 LINE SMOOTH",
"215 420 OFFCURVE",
"213 420 OFFCURVE",
"211 420 CURVE",
"209 419 OFFCURVE",
"208 419 OFFCURVE",
"207 419 CURVE SMOOTH",
"202 419 OFFCURVE",
"195 418 OFFCURVE",
"187 417 CURVE",
"176 415 OFFCURVE",
"163 411 OFFCURVE",
"150 406 CURVE SMOOTH",
"129 398 OFFCURVE",
"110 386 OFFCURVE",
"93 371 CURVE SMOOTH",
"77 357 OFFCURVE",
"63 340 OFFCURVE",
"51 319 CURVE SMOOTH",
"39 297 OFFCURVE",
"31 274 OFFCURVE",
"27 249 CURVE SMOOTH",
"26 242 OFFCURVE",
"25 230 OFFCURVE",
"25 215 CURVE SMOOTH",
"25 208 OFFCURVE",
"25 202 OFFCURVE",
"26 199 CURVE",
"26 197 OFFCURVE",
"26 194 OFFCURVE",
"27 190 CURVE",
"28 185 OFFCURVE",
"28 182 OFFCURVE",
"29 180 CURVE",
"34 155 OFFCURVE",
"44 132 OFFCURVE",
"57 113 CURVE SMOOTH",
"71 92 OFFCURVE",
"87 74 OFFCURVE",
"105 61 CURVE SMOOTH",
"125 46 OFFCURVE",
"147 35 OFFCURVE",
"170 28 CURVE SMOOTH",
"194 21 OFFCURVE",
"219 19 OFFCURVE",
"246 21 CURVE SMOOTH",
"271 23 OFFCURVE",
"295 30 OFFCURVE",
"319 41 CURVE SMOOTH",
"328 45 OFFCURVE",
"339 51 OFFCURVE",
"351 60 CURVE SMOOTH",
"361 67 OFFCURVE",
"370 75 OFFCURVE",
"378 84 CURVE",
"381 87 OFFCURVE",
"385 91 OFFCURVE",
"390 98 CURVE",
"393 101 OFFCURVE",
"396 106 OFFCURVE",
"400 113 CURVE SMOOTH",
"408 126 OFFCURVE",
"414 137 OFFCURVE",
"417 144 CURVE SMOOTH",
"422 155 OFFCURVE",
"426 163 OFFCURVE",
"428 169 CURVE",
"429 171 OFFCURVE",
"431 175 OFFCURVE",
"432 182 CURVE",
"432 183 OFFCURVE",
"432 185 OFFCURVE",
"433 188 CURVE",
"434 190 OFFCURVE",
"434 192 OFFCURVE",
"434 193 CURVE",
"435 183 OFFCURVE",
"435 174 OFFCURVE",
"433 167 CURVE",
"432 159 OFFCURVE",
"430 154 OFFCURVE",
"429 151 CURVE SMOOTH",
"428 148 OFFCURVE",
"427 143 OFFCURVE",
"424 136 CURVE SMOOTH",
"419 125 OFFCURVE",
"415 116 OFFCURVE",
"411 108 CURVE SMOOTH",
"404 95 OFFCURVE",
"397 85 OFFCURVE",
"391 78 CURVE SMOOTH",
"380 66 OFFCURVE",
"372 57 OFFCURVE",
"366 52 CURVE SMOOTH",
"349 38 OFFCURVE",
"329 26 OFFCURVE",
"304 16 CURVE SMOOTH",
"281 7 OFFCURVE",
"257 2 OFFCURVE",
"231 1 CURVE SMOOTH",
"206 0 OFFCURVE",
"181 3 OFFCURVE",
"156 12 CURVE SMOOTH",
"135 19 OFFCURVE",
"113 30 OFFCURVE",
"91 45 CURVE",
"72 59 OFFCURVE",
"55 76 OFFCURVE",
"41 95 CURVE",
"34 106 OFFCURVE",
"28 116 OFFCURVE",
"23 126 CURVE",
"18 137 OFFCURVE",
"14 148 OFFCURVE",
"10 159 CURVE",
"5 176 OFFCURVE",
"1 194 OFFCURVE",
"0 215 CURVE SMOOTH",
"-1 234 OFFCURVE",
"1 253 OFFCURVE",
"5 273 CURVE SMOOTH",
"10 296 OFFCURVE",
"19 318 OFFCURVE",
"33 341 CURVE SMOOTH",
"44 358 OFFCURVE",
"58 375 OFFCURVE",
"75 391 CURVE SMOOTH",
"90 406 OFFCURVE",
"109 418 OFFCURVE",
"130 427 CURVE",
"155 439 OFFCURVE",
"180 446 OFFCURVE",
"204 448 CURVE",
"211 449 OFFCURVE",
"220 449 OFFCURVE",
"233 449 CURVE SMOOTH",
"242 449 OFFCURVE",
"255 448 OFFCURVE",
"271 445 CURVE SMOOTH",
"294 440 OFFCURVE",
"317 432 OFFCURVE",
"339 419 CURVE SMOOTH",
"360 407 OFFCURVE",
"379 391 OFFCURVE",
"396 371 CURVE",
"411 352 OFFCURVE",
"423 333 OFFCURVE",
"432 313 CURVE SMOOTH",
"435 306 OFFCURVE",
"438 296 OFFCURVE",
"442 281 CURVE SMOOTH",
"446 266 OFFCURVE",
"448 258 OFFCURVE",
"448 255 CURVE SMOOTH"
);
}
);
width = 448;
}
);
unicode = 00C9;
},
{
glyphname = "Ebreve";
layers = (
{
layerId = "E8827009-6BC8-4B70-BCEC-AB542FFF6A4D";
name = "Regular";
paths = (
{
closed = 1;
nodes = (
"100 149 OFFCURVE",
"105 158 OFFCURVE",
"109 170 CURVE SMOOTH",
"112 182 OFFCURVE",
"105 194 OFFCURVE",
"100 194 CURVE",
"90 197 OFFCURVE",
"85 188 OFFCURVE",
"81 176 CURVE SMOOTH",
"78 164 OFFCURVE",
"85 152 OFFCURVE",
"90 152 CURVE"
);
},
{
closed = 1;
nodes = (
"130 194 OFFCURVE",
"123 182 OFFCURVE",
"126 170 CURVE SMOOTH",
"130 158 OFFCURVE",
"135 149 OFFCURVE",
"145 152 CURVE",
"150 152 OFFCURVE",
"157 164 OFFCURVE",
"154 176 CURVE SMOOTH",
"150 188 OFFCURVE",
"145 197 OFFCURVE",
"135 194 CURVE"
);
},
{
closed = 1;
nodes = (
"66 38 OFFCURVE",
"24 80 OFFCURVE",
"24 134 CURVE SMOOTH",
"24 185 OFFCURVE",
"66 227 OFFCURVE",
"118 227 CURVE SMOOTH",
"169 227 OFFCURVE",
"214 185 OFFCURVE",
"214 134 CURVE SMOOTH",
"214 80 OFFCURVE",
"169 38 OFFCURVE",
"118 38 CURVE SMOOTH"
);
},
{
closed = 1;
nodes = (
"52 251 OFFCURVE",
"0 197 OFFCURVE",
"0 134 CURVE SMOOTH",
"0 68 OFFCURVE",
"52 17 OFFCURVE",
"118 17 CURVE SMOOTH",
"183 17 OFFCURVE",
"235 68 OFFCURVE",
"235 134 CURVE SMOOTH",
"235 197 OFFCURVE",
"183 251 OFFCURVE",
"118 251 CURVE SMOOTH"
);
},
{
closed = 1;
nodes = (
"76 119 OFFCURVE",
"73 116 OFFCURVE",
"73 110 CURVE SMOOTH",
"73 104 OFFCURVE",
"78 101 OFFCURVE",
"81 104 CURVE",
"105 107 OFFCURVE",
"126 95 OFFCURVE",
"135 77 CURVE",
"135 71 OFFCURVE",
"138 71 OFFCURVE",
"145 71 CURVE",
"145 71 OFFCURVE",
"145 71 OFFCURVE",
"147 71 CURVE",
"150 74 OFFCURVE",
"154 77 OFFCURVE",
"150 83 CURVE",
"138 110 OFFCURVE",
"109 128 OFFCURVE",
"78 122 CURVE"
);
},
{
closed = 1;
nodes = (
"364 262 OFFCURVE",
"373 268 OFFCURVE",
"373 277 CURVE SMOOTH",
"373 283 OFFCURVE",
"364 289 OFFCURVE",
"358 289 CURVE SMOOTH",
"352 289 OFFCURVE",
"346 283 OFFCURVE",
"346 277 CURVE SMOOTH",
"346 268 OFFCURVE",
"352 262 OFFCURVE",
"358 262 CURVE SMOOTH"
);
},
{
closed = 1;
nodes = (
"310 262 OFFCURVE",
"319 268 OFFCURVE",
"319 277 CURVE SMOOTH",
"319 283 OFFCURVE",
"310 289 OFFCURVE",
"304 289 CURVE SMOOTH",
"298 289 OFFCURVE",
"292 283 OFFCURVE",
"292 277 CURVE SMOOTH",
"292 268 OFFCURVE",
"298 262 OFFCURVE",
"304 262 CURVE SMOOTH"
);
},
{
closed = 1;
nodes = (
"280 154 OFFCURVE",
"238 196 OFFCURVE",
"238 250 CURVE SMOOTH",
"238 301 OFFCURVE",
"280 343 OFFCURVE",
"331 343 CURVE SMOOTH",
"382 343 OFFCURVE",
"427 301 OFFCURVE",
"427 250 CURVE SMOOTH",
"427 196 OFFCURVE",
"382 154 OFFCURVE",
"331 154 CURVE SMOOTH"
);
},
{
closed = 1;
nodes = (
"265 367 OFFCURVE",
"214 313 OFFCURVE",
"214 250 CURVE SMOOTH",
"214 184 OFFCURVE",
"265 133 OFFCURVE",
"331 133 CURVE SMOOTH",
"397 133 OFFCURVE",
"448 184 OFFCURVE",
"448 250 CURVE SMOOTH",
"448 313 OFFCURVE",
"397 367 OFFCURVE",
"331 367 CURVE SMOOTH"
);
},
{
closed = 1;
nodes = (
"391 250 OFFCURVE",
"385 247 OFFCURVE",
"385 241 CURVE",
"382 214 OFFCURVE",
"358 196 OFFCURVE",
"331 196 CURVE SMOOTH",
"304 196 OFFCURVE",
"280 214 OFFCURVE",
"277 241 CURVE",
"277 247 OFFCURVE",
"271 250 OFFCURVE",
"268 247 CURVE",
"262 247 OFFCURVE",
"259 244 OFFCURVE",
"259 238 CURVE",
"265 202 OFFCURVE",
"295 178 OFFCURVE",
"331 178 CURVE SMOOTH",
"367 178 OFFCURVE",
"397 202 OFFCURVE",
"403 238 CURVE",
"403 244 OFFCURVE",
"400 247 OFFCURVE",
"395 247 CURVE"
);
}
);
width = 448;
}
);
unicode = 0114;
},
{
glyphname = "Edieresis";
layers = (
{
layerId = "E8827009-6BC8-4B70-BCEC-AB542FFF6A4D";
name = "Regular";
paths = (
{
closed = 1;
nodes = (
"168 384 LINE SMOOTH",
"175 384 OFFCURVE",
"180 382 OFFCURVE",
"185 377 CURVE SMOOTH",
"190 372 OFFCURVE",
"192 367 OFFCURVE",
"192 360 CURVE SMOOTH",
"192 24 LINE SMOOTH",
"192 17 OFFCURVE",
"190 12 OFFCURVE",
"185 7 CURVE SMOOTH",
"180 2 OFFCURVE",
"175 0 OFFCURVE",
"168 0 CURVE SMOOTH",
"24 0 LINE SMOOTH",
"17 0 OFFCURVE",
"12 2 OFFCURVE",
"7 7 CURVE SMOOTH",
"2 12 OFFCURVE",
"0 17 OFFCURVE",
"0 24 CURVE SMOOTH",
"0 360 LINE SMOOTH",
"0 367 OFFCURVE",
"2 372 OFFCURVE",
"7 377 CURVE SMOOTH",
"12 382 OFFCURVE",
"17 384 OFFCURVE",
"24 384 CURVE SMOOTH"
);
},
{
closed = 1;
nodes = (
"108 344 LINE SMOOTH",
"111 344 OFFCURVE",
"112 345 OFFCURVE",
"112 348 CURVE SMOOTH",
"112 351 OFFCURVE",
"111 352 OFFCURVE",
"108 352 CURVE SMOOTH",
"84 352 LINE SMOOTH",
"81 352 OFFCURVE",
"80 351 OFFCURVE",
"80 348 CURVE SMOOTH",
"80 345 OFFCURVE",
"81 344 OFFCURVE",
"84 344 CURVE SMOOTH"
);
},
{
closed = 1;
nodes = (
"72 351 OFFCURVE",
"71 352 OFFCURVE",
"68 352 CURVE SMOOTH",
"65 352 OFFCURVE",
"64 351 OFFCURVE",
"64 348 CURVE SMOOTH",
"64 345 OFFCURVE",
"65 344 OFFCURVE",
"68 344 CURVE SMOOTH",
"71 344 OFFCURVE",
"72 345 OFFCURVE",
"72 348 CURVE SMOOTH"
);
},
{
closed = 1;
nodes = (
"80 21 OFFCURVE",
"85 16 OFFCURVE",
"96 16 CURVE SMOOTH",
"107 16 OFFCURVE",
"112 21 OFFCURVE",
"112 32 CURVE SMOOTH",
"112 43 OFFCURVE",
"107 48 OFFCURVE",
"96 48 CURVE SMOOTH",
"85 48 OFFCURVE",
"80 43 OFFCURVE",
"80 32 CURVE SMOOTH"
);
},
{
closed = 1;
nodes = (
"176 64 LINE",
"176 320 LINE",
"16 320 LINE",
"16 64 LINE"
);
}
);
width = 192;
}
);
unicode = 00CB;
},
{
glyphname = "Edotaccent";
layers = (
{
layerId = "E8827009-6BC8-4B70-BCEC-AB542FFF6A4D";
name = "Regular";
paths = (
{
closed = 1;
nodes = (
"328 60 LINE",
"328 -4 LINE SMOOTH",
"328 -7 OFFCURVE",
"326 -10 OFFCURVE",
"323 -11 CURVE SMOOTH",
"322 -12 OFFCURVE",
"321 -12 OFFCURVE",
"320 -12 CURVE SMOOTH",
"318 -12 OFFCURVE",
"316 -11 OFFCURVE",
"314 -10 CURVE SMOOTH",
"245 60 LINE",
"40 60 LINE SMOOTH",
"18 60 OFFCURVE",
"0 78 OFFCURVE",
"0 100 CURVE SMOOTH",
"0 356 LINE SMOOTH",
"0 378 OFFCURVE",
"18 396 OFFCURVE",
"40 396 CURVE SMOOTH",
"408 396 LINE SMOOTH",
"430 396 OFFCURVE",
"448 378 OFFCURVE",
"448 356 CURVE SMOOTH",
"448 100 LINE SMOOTH",
"448 78 OFFCURVE",
"430 60 OFFCURVE",
"408 60 CURVE SMOOTH"
);
},
{
closed = 1;
nodes = (
"432 369 OFFCURVE",
"421 380 OFFCURVE",
"408 380 CURVE SMOOTH",
"40 380 LINE SMOOTH",
"27 380 OFFCURVE",
"16 369 OFFCURVE",
"16 356 CURVE SMOOTH",
"16 100 LINE SMOOTH",
"16 87 OFFCURVE",
"27 76 OFFCURVE",
"40 76 CURVE SMOOTH",
"248 76 LINE SMOOTH",
"250 76 OFFCURVE",
"252 75 OFFCURVE",
"254 74 CURVE SMOOTH",
"312 15 LINE",
"312 68 LINE SMOOTH",
"312 72 OFFCURVE",
"316 76 OFFCURVE",
"320 76 CURVE SMOOTH",
"408 76 LINE SMOOTH",
"421 76 OFFCURVE",
"432 87 OFFCURVE",
"432 100 CURVE SMOOTH",
"432 356 LINE SMOOTH"
);
},
{
closed = 1;
nodes = (
"120 236 LINE SMOOTH",
"116 236 OFFCURVE",
"112 240 OFFCURVE",
"112 244 CURVE SMOOTH",
"112 248 OFFCURVE",
"116 252 OFFCURVE",
"120 252 CURVE SMOOTH",
"328 252 LINE SMOOTH",
"332 252 OFFCURVE",
"336 248 OFFCURVE",
"336 244 CURVE SMOOTH",
"336 240 OFFCURVE",
"332 236 OFFCURVE",
"328 236 CURVE SMOOTH"
);
},
{
closed = 1;
nodes = (
"120 284 LINE SMOOTH",
"116 284 OFFCURVE",
"112 288 OFFCURVE",
"112 292 CURVE SMOOTH",
"112 296 OFFCURVE",
"116 300 OFFCURVE",
"120 300 CURVE SMOOTH",
"328 300 LINE SMOOTH",
"332 300 OFFCURVE",
"336 296 OFFCURVE",
"336 292 CURVE SMOOTH",
"336 288 OFFCURVE",
"332 284 OFFCURVE",
"328 284 CURVE SMOOTH"
);
},
{
closed = 1;
nodes = (
"216 204 LINE SMOOTH",
"220 204 OFFCURVE",
"224 200 OFFCURVE",
"224 196 CURVE SMOOTH",
"224 192 OFFCURVE",
"220 188 OFFCURVE",
"216 188 CURVE SMOOTH",
"120 188 LINE SMOOTH",
"116 188 OFFCURVE",
"112 192 OFFCURVE",
"112 196 CURVE SMOOTH",
"112 200 OFFCURVE",
"116 204 OFFCURVE",
"120 204 CURVE SMOOTH"
);
}
);
width = 448;
}
);
unicode = 0116;
},
{
glyphname = "Egrave";
layers = (
{
layerId = "E8827009-6BC8-4B70-BCEC-AB542FFF6A4D";
name = "Regular";
paths = (
{
closed = 1;
nodes = (
"102 380 OFFCURVE",
"151 400 OFFCURVE",
"208 400 CURVE SMOOTH",
"265 400 OFFCURVE",
"314 380 OFFCURVE",
"355 339 CURVE SMOOTH",
"396 298 OFFCURVE",
"416 249 OFFCURVE",
"416 192 CURVE SMOOTH",
"416 135 OFFCURVE",
"396 86 OFFCURVE",
"355 45 CURVE SMOOTH",
"314 4 OFFCURVE",
"265 -16 OFFCURVE",
"208 -16 CURVE SMOOTH",
"151 -16 OFFCURVE",
"102 4 OFFCURVE",
"61 45 CURVE SMOOTH",
"20 86 OFFCURVE",
"0 135 OFFCURVE",
"0 192 CURVE SMOOTH",
"0 249 OFFCURVE",
"20 298 OFFCURVE",
"61 339 CURVE SMOOTH"
);
},
{
closed = 1;
nodes = (
"225 175 LINE",
"225 320 LINE",
"208 320 LINE",
"208 192 LINE",
"112 192 LINE",
"112 175 LINE"
);
}
);
width = 416;
}
);
unicode = 00C8;
},
{
glyphname = "Eogonek";
layers = (
{
layerId = "E8827009-6BC8-4B70-BCEC-AB542FFF6A4D";
name = "Regular";
paths = (
{
closed = 1;
nodes = (
"100 -32 OFFCURVE",
"0 68 OFFCURVE",
"0 192 CURVE SMOOTH",
"0 316 OFFCURVE",
"100 416 OFFCURVE",
"224 416 CURVE SMOOTH",
"348 416 OFFCURVE",
"448 316 OFFCURVE",
"448 192 CURVE SMOOTH",
"448 68 OFFCURVE",
"348 -32 OFFCURVE",
"224 -32 CURVE SMOOTH"
);
},
{
closed = 1;
nodes = (
"109 400 OFFCURVE",
"16 307 OFFCURVE",
"16 192 CURVE SMOOTH",
"16 77 OFFCURVE",
"109 -16 OFFCURVE",
"224 -16 CURVE SMOOTH",
"339 -16 OFFCURVE",
"432 77 OFFCURVE",
"432 192 CURVE SMOOTH",
"432 307 OFFCURVE",
"339 400 OFFCURVE",
"224 400 CURVE SMOOTH"
);
},
{
closed = 1;
nodes = (
"376 184 LINE SMOOTH",
"372 184 OFFCURVE",
"368 188 OFFCURVE",
"368 192 CURVE SMOOTH",
"368 196 OFFCURVE",
"372 200 OFFCURVE",
"376 200 CURVE SMOOTH",
"408 200 LINE SMOOTH",
"412 200 OFFCURVE",
"416 196 OFFCURVE",
"416 192 CURVE SMOOTH",
"416 188 OFFCURVE",
"412 184 OFFCURVE",
"408 184 CURVE SMOOTH"
);
},
{
closed = 1;
nodes = (
"360 261 LINE SMOOTH",
"358 260 OFFCURVE",
"357 260 OFFCURVE",
"356 260 CURVE SMOOTH",
"353 260 OFFCURVE",
"350 261 OFFCURVE",
"349 264 CURVE SMOOTH",
"346 268 OFFCURVE",
"348 273 OFFCURVE",
"352 275 CURVE SMOOTH",
"379 291 LINE SMOOTH",
"383 293 OFFCURVE",
"388 292 OFFCURVE",
"390 288 CURVE SMOOTH",
"392 284 OFFCURVE",
"391 279 OFFCURVE",
"387 277 CURVE SMOOTH"
);
},
{
closed = 1;
nodes = (
"305 317 OFFCURVE",
"303 316 OFFCURVE",
"300 316 CURVE SMOOTH",
"299 316 OFFCURVE",
"297 316 OFFCURVE",
"296 317 CURVE SMOOTH",
"292 319 OFFCURVE",
"291 324 OFFCURVE",
"293 328 CURVE SMOOTH",
"309 355 LINE SMOOTH",
"311 359 OFFCURVE",
"316 360 OFFCURVE",
"320 358 CURVE SMOOTH",
"324 356 OFFCURVE",
"325 351 OFFCURVE",
"323 347 CURVE SMOOTH",
"307 320 LINE SMOOTH"
);
},
{
closed = 1;
nodes = (
"314 276 OFFCURVE",
"314 271 OFFCURVE",
"311 268 CURVE SMOOTH",
"251 208 LINE",
"254 203 OFFCURVE",
"256 198 OFFCURVE",
"256 192 CURVE SMOOTH",
"256 174 OFFCURVE",
"242 160 OFFCURVE",
"224 160 CURVE SMOOTH",
"206 160 OFFCURVE",
"192 174 OFFCURVE",
"192 192 CURVE SMOOTH",
"192 210 OFFCURVE",
"206 224 OFFCURVE",
"224 224 CURVE SMOOTH",
"230 224 OFFCURVE",
"235 222 OFFCURVE",
"240 219 CURVE",
"300 279 LINE SMOOTH",
"303 282 OFFCURVE",
"308 282 OFFCURVE",
"311 279 CURVE SMOOTH"
);
},
{
closed = 1;
nodes = (
"215 208 OFFCURVE",
"208 201 OFFCURVE",
"208 192 CURVE SMOOTH",
"208 183 OFFCURVE",
"215 176 OFFCURVE",
"224 176 CURVE SMOOTH",
"233 176 OFFCURVE",
"240 183 OFFCURVE",
"240 192 CURVE SMOOTH",
"240 201 OFFCURVE",
"233 208 OFFCURVE",
"224 208 CURVE SMOOTH"
);
},
{
closed = 1;
nodes = (
"220 336 OFFCURVE",
"216 340 OFFCURVE",
"216 344 CURVE SMOOTH",
"216 376 LINE SMOOTH",
"216 380 OFFCURVE",
"220 384 OFFCURVE",
"224 384 CURVE SMOOTH",
"228 384 OFFCURVE",
"232 380 OFFCURVE",
"232 376 CURVE SMOOTH",
"232 344 LINE SMOOTH",
"232 340 OFFCURVE",
"228 336 OFFCURVE",
"224 336 CURVE SMOOTH"
);
},
{
closed = 1;
nodes = (
"304 56 LINE SMOOTH",
"304 43 OFFCURVE",
"293 32 OFFCURVE",
"280 32 CURVE SMOOTH",
"168 32 LINE SMOOTH",
"155 32 OFFCURVE",
"144 43 OFFCURVE",
"144 56 CURVE SMOOTH",
"144 88 LINE SMOOTH",
"144 101 OFFCURVE",
"155 112 OFFCURVE",
"168 112 CURVE SMOOTH",
"280 112 LINE SMOOTH",
"293 112 OFFCURVE",
"304 101 OFFCURVE",
"304 88 CURVE SMOOTH"
);
},
{
closed = 1;
nodes = (
"160 56 LINE SMOOTH",
"160 52 OFFCURVE",
"164 48 OFFCURVE",
"168 48 CURVE SMOOTH",
"280 48 LINE SMOOTH",
"284 48 OFFCURVE",
"288 52 OFFCURVE",
"288 56 CURVE SMOOTH",
"288 88 LINE SMOOTH",
"288 92 OFFCURVE",
"284 96 OFFCURVE",
"280 96 CURVE SMOOTH",
"168 96 LINE SMOOTH",
"164 96 OFFCURVE",
"160 92 OFFCURVE",
"160 88 CURVE SMOOTH"
);
},
{
closed = 1;
nodes = (
"151 316 OFFCURVE",
"149 316 OFFCURVE",
"148 316 CURVE SMOOTH",
"145 316 OFFCURVE",
"143 317 OFFCURVE",
"141 320 CURVE SMOOTH",
"125 347 LINE SMOOTH",
"123 351 OFFCURVE",
"124 356 OFFCURVE",
"128 358 CURVE SMOOTH",
"132 360 OFFCURVE",
"137 359 OFFCURVE",
"139 355 CURVE SMOOTH",
"155 328 LINE SMOOTH",
"157 324 OFFCURVE",
"156 319 OFFCURVE",
"152 317 CURVE SMOOTH"
);
},
{
closed = 1;
nodes = (
"69 93 LINE SMOOTH",
"67 92 OFFCURVE",
"66 92 OFFCURVE",
"65 92 CURVE SMOOTH",
"62 92 OFFCURVE",
"59 93 OFFCURVE",
"58 96 CURVE SMOOTH",
"56 100 OFFCURVE",
"57 105 OFFCURVE",
"61 107 CURVE SMOOTH",
"88 123 LINE SMOOTH",
"92 125 OFFCURVE",
"97 124 OFFCURVE",
"99 120 CURVE SMOOTH",
"102 116 OFFCURVE",
"100 111 OFFCURVE",
"96 109 CURVE SMOOTH"
);
},
{
closed = 1;
nodes = (
"91 260 OFFCURVE",
"90 260 OFFCURVE",
"88 261 CURVE SMOOTH",
"61 277 LINE SMOOTH",
"57 279 OFFCURVE",
"56 284 OFFCURVE",
"58 288 CURVE SMOOTH",
"60 292 OFFCURVE",
"65 293 OFFCURVE",
"69 291 CURVE SMOOTH",
"96 275 LINE SMOOTH",
"100 273 OFFCURVE",
"102 268 OFFCURVE",
"99 264 CURVE SMOOTH",
"98 261 OFFCURVE",
"95 260 OFFCURVE",
"92 260 CURVE SMOOTH"
);
},
{
closed = 1;
nodes = (
"80 188 OFFCURVE",
"76 184 OFFCURVE",
"72 184 CURVE SMOOTH",
"40 184 LINE SMOOTH",
"36 184 OFFCURVE",
"32 188 OFFCURVE",
"32 192 CURVE SMOOTH",
"32 196 OFFCURVE",
"36 200 OFFCURVE",
"40 200 CURVE SMOOTH",
"72 200 LINE SMOOTH",
"76 200 OFFCURVE",
"80 196 OFFCURVE",
"80 192 CURVE SMOOTH"
);
},
{
closed = 1;
nodes = (
"387 107 LINE SMOOTH",
"391 105 OFFCURVE",
"392 100 OFFCURVE",
"390 96 CURVE SMOOTH",
"389 93 OFFCURVE",
"386 92 OFFCURVE",
"383 92 CURVE SMOOTH",
"382 92 OFFCURVE",
"381 92 OFFCURVE",
"379 93 CURVE SMOOTH",
"352 109 LINE SMOOTH",
"348 111 OFFCURVE",
"346 116 OFFCURVE",
"349 120 CURVE SMOOTH",
"351 124 OFFCURVE",
"356 125 OFFCURVE",
"360 123 CURVE SMOOTH"
);
}
);
width = 448;
}
);
unicode = 0118;
},
{
glyphname = "Gbreve";
layers = (
{
layerId = "E8827009-6BC8-4B70-BCEC-AB542FFF6A4D";
name = "Regular";
paths = (
{
closed = 1;
nodes = (
"399 32 OFFCURVE",
"384 46 OFFCURVE",
"384 64 CURVE SMOOTH",
"384 73 OFFCURVE",
"388 80 OFFCURVE",
"393 86 CURVE",
"351 154 LINE SMOOTH",
"349 158 OFFCURVE",
"350 163 OFFCURVE",
"353 165 CURVE SMOOTH",
"357 167 OFFCURVE",
"362 166 OFFCURVE",
"364 162 CURVE SMOOTH",
"407 94 LINE",
"410 95 OFFCURVE",
"413 96 OFFCURVE",
"416 96 CURVE SMOOTH",
"434 96 OFFCURVE",
"448 82 OFFCURVE",
"448 64 CURVE SMOOTH",
"448 46 OFFCURVE",
"434 32 OFFCURVE",
"416 32 CURVE SMOOTH"
);
},
{
closed = 1;
nodes = (
"413 80 OFFCURVE",
"411 79 OFFCURVE",
"408 78 CURVE",
"408 78 OFFCURVE",
"408 78 OFFCURVE",
"408 78 CURVE",
"408 77 OFFCURVE",
"408 77 OFFCURVE",
"408 77 CURVE",
"403 75 OFFCURVE",
"400 70 OFFCURVE",
"400 64 CURVE SMOOTH",
"400 55 OFFCURVE",
"408 48 OFFCURVE",
"416 48 CURVE SMOOTH",
"425 48 OFFCURVE",
"432 55 OFFCURVE",
"432 64 CURVE SMOOTH",
"432 73 OFFCURVE",
"425 80 OFFCURVE",
"416 80 CURVE SMOOTH"
);
},
{
closed = 1;
nodes = (
"413 272 OFFCURVE",
"409 273 OFFCURVE",
"406 274 CURVE",
"280 85 LINE",
"285 80 OFFCURVE",
"288 72 OFFCURVE",
"288 64 CURVE SMOOTH",
"288 46 OFFCURVE",
"274 32 OFFCURVE",
"256 32 CURVE SMOOTH",
"239 32 OFFCURVE",
"224 46 OFFCURVE",
"224 64 CURVE SMOOTH",
"224 67 OFFCURVE",
"225 70 OFFCURVE",
"226 73 CURVE",
"119 137 LINE",
"113 132 OFFCURVE",
"105 128 OFFCURVE",
"96 128 CURVE SMOOTH",
"92 128 OFFCURVE",
"87 129 OFFCURVE",
"83 131 CURVE",
"33 69 LINE",
"33 0 LINE",
"440 0 LINE SMOOTH",
"445 0 OFFCURVE",
"448 -4 OFFCURVE",
"448 -8 CURVE SMOOTH",
"448 -12 OFFCURVE",
"445 -16 OFFCURVE",
"440 -16 CURVE SMOOTH",
"416 -16 LINE",
"416 -24 LINE SMOOTH",
"416 -28 OFFCURVE",
"413 -32 OFFCURVE",
"408 -32 CURVE SMOOTH",
"404 -32 OFFCURVE",
"400 -28 OFFCURVE",
"400 -24 CURVE SMOOTH",
"400 -16 LINE",
"368 -16 LINE",
"368 -24 LINE SMOOTH",
"368 -28 OFFCURVE",
"365 -32 OFFCURVE",
"360 -32 CURVE SMOOTH",
"356 -32 OFFCURVE",
"352 -28 OFFCURVE",
"352 -24 CURVE SMOOTH",
"352 -16 LINE",
"320 -16 LINE",
"320 -24 LINE SMOOTH",
"320 -28 OFFCURVE",
"317 -32 OFFCURVE",
"312 -32 CURVE SMOOTH",
"308 -32 OFFCURVE",
"304 -28 OFFCURVE",
"304 -24 CURVE SMOOTH",
"304 -16 LINE",
"273 -16 LINE",
"273 -24 LINE SMOOTH",
"273 -28 OFFCURVE",
"269 -32 OFFCURVE",
"264 -32 CURVE SMOOTH",
"260 -32 OFFCURVE",
"256 -28 OFFCURVE",
"256 -24 CURVE SMOOTH",
"256 -16 LINE",
"224 -16 LINE",
"224 -24 LINE SMOOTH",
"224 -28 OFFCURVE",
"221 -32 OFFCURVE",
"216 -32 CURVE SMOOTH",
"212 -32 OFFCURVE",
"208 -28 OFFCURVE",
"208 -24 CURVE SMOOTH",
"208 -16 LINE",
"176 -16 LINE",
"176 -24 LINE SMOOTH",
"176 -28 OFFCURVE",
"173 -32 OFFCURVE",
"168 -32 CURVE SMOOTH",
"164 -32 OFFCURVE",
"160 -28 OFFCURVE",
"160 -24 CURVE SMOOTH",
"160 -16 LINE",
"128 -16 LINE",
"128 -24 LINE SMOOTH",
"128 -28 OFFCURVE",
"125 -32 OFFCURVE",
"120 -32 CURVE SMOOTH",
"116 -32 OFFCURVE",
"112 -28 OFFCURVE",
"112 -24 CURVE SMOOTH",
"112 -16 LINE",
"80 -16 LINE",
"80 -24 LINE SMOOTH",
"80 -28 OFFCURVE",
"77 -32 OFFCURVE",
"72 -32 CURVE SMOOTH",
"68 -32 OFFCURVE",
"64 -28 OFFCURVE",
"64 -24 CURVE SMOOTH",
"64 -16 LINE",
"33 -16 LINE",
"33 -24 LINE SMOOTH",
"33 -28 OFFCURVE",
"29 -32 OFFCURVE",
"25 -32 CURVE SMOOTH",
"20 -32 OFFCURVE",
"16 -28 OFFCURVE",
"16 -24 CURVE SMOOTH",
"16 -16 LINE",
"8 -16 LINE SMOOTH",
"4 -16 OFFCURVE",
"0 -12 OFFCURVE",
"0 -8 CURVE SMOOTH",
"0 -4 OFFCURVE",
"4 0 OFFCURVE",
"8 0 CURVE SMOOTH",
"16 0 LINE",
"16 32 LINE",
"8 32 LINE SMOOTH",
"4 32 OFFCURVE",
"0 36 OFFCURVE",
"0 40 CURVE SMOOTH",
"0 44 OFFCURVE",
"4 48 OFFCURVE",
"8 48 CURVE SMOOTH",
"16 48 LINE",
"16 80 LINE",
"8 80 LINE SMOOTH",
"4 80 OFFCURVE",
"0 84 OFFCURVE",
"0 88 CURVE SMOOTH",
"0 92 OFFCURVE",
"4 96 OFFCURVE",
"8 96 CURVE SMOOTH",
"16 96 LINE",
"16 128 LINE",
"8 128 LINE SMOOTH",
"4 128 OFFCURVE",
"0 132 OFFCURVE",
"0 136 CURVE SMOOTH",
"0 140 OFFCURVE",
"4 144 OFFCURVE",
"8 144 CURVE SMOOTH",
"16 144 LINE",
"16 176 LINE",
"8 176 LINE SMOOTH",
"4 176 OFFCURVE",
"0 180 OFFCURVE",
"0 184 CURVE SMOOTH",
"0 188 OFFCURVE",
"4 192 OFFCURVE",
"8 192 CURVE SMOOTH",
"16 192 LINE",
"16 224 LINE",
"8 224 LINE SMOOTH",
"4 224 OFFCURVE",
"0 228 OFFCURVE",
"0 232 CURVE SMOOTH",
"0 236 OFFCURVE",
"4 240 OFFCURVE",
"8 240 CURVE SMOOTH",
"16 240 LINE",
"16 272 LINE",
"8 272 LINE SMOOTH",
"4 272 OFFCURVE",
"0 276 OFFCURVE",
"0 280 CURVE SMOOTH",
"0 284 OFFCURVE",
"4 288 OFFCURVE",
"8 288 CURVE SMOOTH",
"16 288 LINE",
"16 320 LINE",
"8 320 LINE SMOOTH",
"4 320 OFFCURVE",
"0 324 OFFCURVE",
"0 328 CURVE SMOOTH",
"0 332 OFFCURVE",
"4 336 OFFCURVE",
"8 336 CURVE SMOOTH",
"16 336 LINE",
"16 384 LINE",
"8 384 LINE SMOOTH",
"4 384 OFFCURVE",
"0 388 OFFCURVE",
"0 392 CURVE SMOOTH",
"0 396 OFFCURVE",
"4 400 OFFCURVE",
"8 400 CURVE SMOOTH",
"16 400 LINE",
"16 408 LINE SMOOTH",
"16 412 OFFCURVE",
"20 416 OFFCURVE",
"25 416 CURVE SMOOTH",
"29 416 OFFCURVE",
"33 412 OFFCURVE",
"33 408 CURVE SMOOTH",
"33 254 LINE",
"71 301 LINE",
"67 306 OFFCURVE",
"64 313 OFFCURVE",
"64 320 CURVE SMOOTH",
"64 338 OFFCURVE",
"79 352 OFFCURVE",
"96 352 CURVE SMOOTH",
"111 352 OFFCURVE",
"124 342 OFFCURVE",
"127 328 CURVE",
"226 328 LINE",
"229 342 OFFCURVE",
"242 352 OFFCURVE",
"256 352 CURVE SMOOTH",
"274 352 OFFCURVE",
"288 338 OFFCURVE",
"288 320 CURVE SMOOTH",
"288 311 OFFCURVE",
"285 304 OFFCURVE",
"280 298 CURVE",
"327 222 LINE SMOOTH",
"330 218 OFFCURVE",
"328 213 OFFCURVE",
"325 211 CURVE SMOOTH",
"323 210 OFFCURVE",
"322 210 OFFCURVE",
"320 210 CURVE SMOOTH",
"318 210 OFFCURVE",
"315 211 OFFCURVE",
"314 213 CURVE SMOOTH",
"266 290 LINE",
"263 289 OFFCURVE",
"260 288 OFFCURVE",
"256 288 CURVE SMOOTH",
"242 288 OFFCURVE",
"229 298 OFFCURVE",
"226 312 CURVE",
"127 312 LINE",
"124 298 OFFCURVE",
"111 288 OFFCURVE",
"96 288 CURVE SMOOTH",
"92 288 OFFCURVE",
"87 289 OFFCURVE",
"83 291 CURVE",
"33 229 LINE",
"33 94 LINE",
"71 141 LINE",
"67 146 OFFCURVE",
"64 153 OFFCURVE",
"64 160 CURVE SMOOTH",
"64 178 OFFCURVE",
"79 192 OFFCURVE",
"96 192 CURVE SMOOTH",
"114 192 OFFCURVE",
"128 178 OFFCURVE",
"128 160 CURVE SMOOTH",
"128 157 OFFCURVE",
"128 154 OFFCURVE",
"127 151 CURVE",
"234 87 LINE",
"240 92 OFFCURVE",
"248 96 OFFCURVE",
"256 96 CURVE SMOOTH",
"260 96 OFFCURVE",
"264 95 OFFCURVE",
"267 94 CURVE",
"393 283 LINE",
"388 288 OFFCURVE",
"384 296 OFFCURVE",
"384 304 CURVE SMOOTH",
"384 322 OFFCURVE",
"399 336 OFFCURVE",
"416 336 CURVE SMOOTH",
"434 336 OFFCURVE",
"448 322 OFFCURVE",
"448 304 CURVE SMOOTH",
"448 286 OFFCURVE",
"434 272 OFFCURVE",
"416 272 CURVE SMOOTH"
);
},
{
closed = 1;
nodes = (
"260 304 OFFCURVE",
"262 305 OFFCURVE",
"265 306 CURVE",
"265 306 OFFCURVE",
"265 306 OFFCURVE",
"265 306 CURVE",
"265 307 OFFCURVE",
"265 307 OFFCURVE",
"265 307 CURVE",
"270 309 OFFCURVE",
"273 314 OFFCURVE",
"273 320 CURVE SMOOTH",
"273 329 OFFCURVE",
"265 336 OFFCURVE",
"256 336 CURVE SMOOTH",
"248 336 OFFCURVE",
"241 329 OFFCURVE",
"241 320 CURVE SMOOTH",
"241 311 OFFCURVE",
"248 304 OFFCURVE",
"256 304 CURVE SMOOTH"
);
},
{
closed = 1;
nodes = (
"86 308 OFFCURVE",
"86 308 OFFCURVE",
"86 308 CURVE",
"86 308 OFFCURVE",
"86 308 OFFCURVE",
"87 308 CURVE",
"89 305 OFFCURVE",
"93 304 OFFCURVE",
"96 304 CURVE SMOOTH",
"105 304 OFFCURVE",
"112 311 OFFCURVE",
"112 320 CURVE SMOOTH",
"112 329 OFFCURVE",
"105 336 OFFCURVE",
"96 336 CURVE SMOOTH",
"88 336 OFFCURVE",
"80 329 OFFCURVE",
"80 320 CURVE SMOOTH",
"80 315 OFFCURVE",
"83 311 OFFCURVE",
"86 308 CURVE SMOOTH"
);
},
{
closed = 1;
nodes = (
"88 176 OFFCURVE",
"80 169 OFFCURVE",
"80 160 CURVE SMOOTH",
"80 155 OFFCURVE",
"83 151 OFFCURVE",
"86 148 CURVE SMOOTH",
"86 148 OFFCURVE",
"86 148 OFFCURVE",
"86 148 CURVE",
"86 148 OFFCURVE",
"86 148 OFFCURVE",
"87 148 CURVE",
"89 145 OFFCURVE",
"93 144 OFFCURVE",
"96 144 CURVE SMOOTH",
"102 144 OFFCURVE",
"107 147 OFFCURVE",
"110 152 CURVE SMOOTH",
"110 152 OFFCURVE",
"110 152 OFFCURVE",
"110 152 CURVE SMOOTH",
"110 152 OFFCURVE",
"110 152 OFFCURVE",
"110 152 CURVE",
"112 154 OFFCURVE",
"112 157 OFFCURVE",
"112 160 CURVE SMOOTH",
"112 169 OFFCURVE",
"105 176 OFFCURVE",
"96 176 CURVE SMOOTH"
);
},
{
closed = 1;
nodes = (
"251 80 OFFCURVE",
"246 77 OFFCURVE",
"243 72 CURVE",
"243 72 OFFCURVE",
"243 72 OFFCURVE",
"243 72 CURVE",
"243 72 OFFCURVE",
"243 72 OFFCURVE",
"243 72 CURVE",
"241 70 OFFCURVE",
"241 67 OFFCURVE",
"241 64 CURVE SMOOTH",
"241 55 OFFCURVE",
"248 48 OFFCURVE",
"256 48 CURVE SMOOTH",
"265 48 OFFCURVE",
"273 55 OFFCURVE",
"273 64 CURVE SMOOTH",
"273 73 OFFCURVE",
"265 80 OFFCURVE",
"256 80 CURVE SMOOTH"
);
},
{
closed = 1;
nodes = (
"408 320 OFFCURVE",
"400 313 OFFCURVE",
"400 304 CURVE SMOOTH",
"400 295 OFFCURVE",
"408 288 OFFCURVE",
"416 288 CURVE SMOOTH",
"425 288 OFFCURVE",
"432 295 OFFCURVE",
"432 304 CURVE SMOOTH",
"432 313 OFFCURVE",
"425 320 OFFCURVE",
"416 320 CURVE SMOOTH"
);
}
);
width = 448;
}
);
unicode = 011E;
},
{
glyphname = "Gcommaaccent";
layers = (
{
layerId = "E8827009-6BC8-4B70-BCEC-AB542FFF6A4D";
name = "Regular";
paths = (
{
closed = 1;
nodes = (
"100 -32 OFFCURVE",
"0 68 OFFCURVE",
"0 192 CURVE SMOOTH",
"0 316 OFFCURVE",
"100 416 OFFCURVE",
"224 416 CURVE SMOOTH",
"348 416 OFFCURVE",
"448 316 OFFCURVE",
"448 192 CURVE SMOOTH",
"448 68 OFFCURVE",
"348 -32 OFFCURVE",
"224 -32 CURVE SMOOTH"
);
},
{
closed = 1;
nodes = (
"110 399 OFFCURVE",
"17 306 OFFCURVE",
"17 192 CURVE SMOOTH",
"17 78 OFFCURVE",
"110 -15 OFFCURVE",
"224 -15 CURVE SMOOTH",
"338 -15 OFFCURVE",
"431 78 OFFCURVE",
"431 192 CURVE SMOOTH",
"431 306 OFFCURVE",
"338 399 OFFCURVE",
"224 399 CURVE SMOOTH"
);
},
{
closed = 1;
nodes = (
"204 107 OFFCURVE",
"201 106 OFFCURVE",
"199 106 CURVE",
"199 106 OFFCURVE",
"198 106 OFFCURVE",
"198 106 CURVE SMOOTH",
"196 106 OFFCURVE",
"193 107 OFFCURVE",
"192 109 CURVE SMOOTH",
"140 169 LINE SMOOTH",
"137 173 OFFCURVE",
"137 178 OFFCURVE",
"141 181 CURVE SMOOTH",
"144 184 OFFCURVE",
"150 184 OFFCURVE",
"153 180 CURVE SMOOTH",
"197 129 LINE",
"294 274 LINE SMOOTH",
"297 278 OFFCURVE",
"302 279 OFFCURVE",
"306 277 CURVE SMOOTH",
"310 274 OFFCURVE",
"311 269 OFFCURVE",
"309 265 CURVE SMOOTH",
"205 110 LINE SMOOTH"
);
}
);
width = 448;
}
);
unicode = 0122;
},
{
glyphname = "Gdotaccent";
layers = (
{
layerId = "E8827009-6BC8-4B70-BCEC-AB542FFF6A4D";
name = "Regular";
paths = (
{
closed = 1;
nodes = (
"180 207 LINE SMOOTH",
"175 207 OFFCURVE",
"172 203 OFFCURVE",
"172 199 CURVE SMOOTH",
"172 147 LINE",
"217 147 LINE SMOOTH",
"221 147 OFFCURVE",
"224 144 OFFCURVE",
"224 140 CURVE SMOOTH",
"224 110 LINE SMOOTH",
"224 106 OFFCURVE",
"221 102 OFFCURVE",
"217 102 CURVE SMOOTH",
"209 102 LINE",
"209 -10 LINE SMOOTH",
"209 -22 OFFCURVE",
"199 -32 OFFCURVE",
"187 -32 CURVE SMOOTH",
"142 -32 LINE SMOOTH",
"130 -32 OFFCURVE",
"120 -22 OFFCURVE",
"120 -10 CURVE SMOOTH",
"120 102 LINE",
"112 102 LINE SMOOTH",
"108 102 OFFCURVE",
"105 106 OFFCURVE",
"105 110 CURVE SMOOTH",
"105 140 LINE SMOOTH",
"105 144 OFFCURVE",
"108 147 OFFCURVE",
"112 147 CURVE SMOOTH",
"157 147 LINE",
"157 199 LINE SMOOTH",
"157 212 OFFCURVE",
"167 222 OFFCURVE",
"180 222 CURVE SMOOTH",
"351 222 LINE SMOOTH",
"355 222 OFFCURVE",
"359 225 OFFCURVE",
"359 229 CURVE SMOOTH",
"359 319 LINE SMOOTH",
"359 323 OFFCURVE",
"355 326 OFFCURVE",
"351 326 CURVE SMOOTH",
"344 326 LINE",
"344 289 LINE SMOOTH",
"344 269 OFFCURVE",
"327 252 OFFCURVE",
"306 252 CURVE SMOOTH",
"38 252 LINE SMOOTH",
"17 252 OFFCURVE",
"0 269 OFFCURVE",
"0 289 CURVE SMOOTH",
"0 379 LINE SMOOTH",
"0 399 OFFCURVE",
"17 416 OFFCURVE",
"38 416 CURVE SMOOTH",
"306 416 LINE SMOOTH",
"327 416 OFFCURVE",
"344 399 OFFCURVE",
"344 379 CURVE SMOOTH",
"344 341 LINE",
"351 341 LINE SMOOTH",
"364 341 OFFCURVE",
"374 331 OFFCURVE",
"374 319 CURVE SMOOTH",
"374 229 LINE SMOOTH",
"374 217 OFFCURVE",
"364 207 OFFCURVE",
"351 207 CURVE SMOOTH"
);
},
{
closed = 1;
nodes = (
"135 -14 OFFCURVE",
"138 -17 OFFCURVE",
"142 -17 CURVE SMOOTH",
"187 -17 LINE SMOOTH",
"191 -17 OFFCURVE",
"194 -14 OFFCURVE",
"194 -10 CURVE SMOOTH",
"194 -2 LINE",
"135 -2 LINE",
"135 -10 LINE SMOOTH"
);
},
{
closed = 1;
nodes = (
"194 13 LINE",
"194 102 LINE",
"135 102 LINE",
"135 13 LINE"
);
},
{
closed = 1;
nodes = (
"127 117 LINE",
"202 117 LINE",
"209 117 LINE",
"209 132 LINE",
"120 132 LINE",
"120 117 LINE"
);
},
{
closed = 1;
nodes = (
"329 391 OFFCURVE",
"319 401 OFFCURVE",
"306 401 CURVE SMOOTH",
"38 401 LINE SMOOTH",
"25 401 OFFCURVE",
"15 391 OFFCURVE",
"15 379 CURVE SMOOTH",
"15 289 LINE SMOOTH",
"15 277 OFFCURVE",
"25 267 OFFCURVE",
"38 267 CURVE SMOOTH",
"306 267 LINE SMOOTH",
"319 267 OFFCURVE",
"329 277 OFFCURVE",
"329 289 CURVE SMOOTH",
"329 379 LINE SMOOTH"
);
}
);
width = 374;
}
);
unicode = 0120;
},
{
glyphname = "Hbar";
lastChange = "2015-10-23 13:26:01 +0100";
layers = (
{
layerId = "E8827009-6BC8-4B70-BCEC-AB542FFF6A4D";
name = "Regular";
paths = (
{
closed = 1;
nodes = (
"401 310 LINE",
"412 303 OFFCURVE",
"416 291 OFFCURVE",
"415 274 CURVE SMOOTH",
"414 253 OFFCURVE",
"405 235 OFFCURVE",
"390 220 CURVE",
"389 220 OFFCURVE",
"389 220 OFFCURVE",
"389 219 CURVE",
"387 218 LINE",
"361 193 OFFCURVE",
"330 187 OFFCURVE",
"293 198 CURVE",
"292 199 OFFCURVE",
"290 200 OFFCURVE",
"289 200 CURVE",
"283 201 OFFCURVE",
"279 200 OFFCURVE",
"276 196 CURVE",
"240 157 LINE",
"347 61 LINE",
"350 59 OFFCURVE",
"350 57 OFFCURVE",
"347 54 CURVE SMOOTH",
"297 3 LINE",
"294 1 OFFCURVE",
"292 1 OFFCURVE",
"290 3 CURVE",
"261 40 OFFCURVE",
"230 75 OFFCURVE",
"197 110 CURVE",
"105 12 LINE",
"98 4 OFFCURVE",
"89 -1 OFFCURVE",
"78 1 CURVE",
"67 1 OFFCURVE",
"57 5 OFFCURVE",
"50 12 CURVE",
"43 20 OFFCURVE",
"39 30 OFFCURVE",
"39 41 CURVE SMOOTH",
"39 52 OFFCURVE",
"43 61 OFFCURVE",
"51 68 CURVE",
"148 161 LINE",
"136 173 LINE SMOOTH",
"133 176 OFFCURVE",
"132 180 OFFCURVE",
"135 183 CURVE",
"137 188 LINE",
"124 201 OFFCURVE",
"114 210 OFFCURVE",
"107 215 CURVE",
"100 219 OFFCURVE",
"91 221 OFFCURVE",
"81 220 CURVE",
"63 219 OFFCURVE",
"47 210 OFFCURVE",
"33 192 CURVE",
"22 179 OFFCURVE",
"20 158 OFFCURVE",
"25 130 CURVE",
"26 126 OFFCURVE",
"25 124 OFFCURVE",
"23 124 CURVE SMOOTH",
"20 124 OFFCURVE",
"16 126 OFFCURVE",
"13 130 CURVE",
"7 137 OFFCURVE",
"3 148 OFFCURVE",
"1 164 CURVE",
"-2 180 OFFCURVE",
"0 200 OFFCURVE",
"7 223 CURVE",
"19 253 OFFCURVE",
"35 278 OFFCURVE",
"55 298 CURVE SMOOTH",
"63 306 OFFCURVE",
"71 313 OFFCURVE",
"79 319 CURVE",
"82 321 OFFCURVE",
"86 322 OFFCURVE",
"93 322 CURVE",
"100 321 OFFCURVE",
"104 322 OFFCURVE",
"106 324 CURVE SMOOTH",
"109 327 OFFCURVE",
"111 333 OFFCURVE",
"111 340 CURVE",
"107 344 LINE SMOOTH",
"104 347 OFFCURVE",
"104 349 OFFCURVE",
"107 351 CURVE",
"138 382 LINE",
"140 385 OFFCURVE",
"142 385 OFFCURVE",
"145 382 CURVE SMOOTH",
"195 332 LINE SMOOTH",
"198 329 OFFCURVE",
"198 327 OFFCURVE",
"195 324 CURVE SMOOTH",
"164 293 LINE SMOOTH",
"162 291 OFFCURVE",
"160 291 OFFCURVE",
"157 293 CURVE",
"149 302 LINE",
"140 302 OFFCURVE",
"135 299 OFFCURVE",
"132 292 CURVE",
"127 282 OFFCURVE",
"126 271 OFFCURVE",
"129 259 CURVE SMOOTH",
"131 252 OFFCURVE",
"143 238 OFFCURVE",
"165 216 CURVE",
"170 219 LINE",
"174 221 OFFCURVE",
"177 221 OFFCURVE",
"180 218 CURVE SMOOTH",
"181 217 OFFCURVE",
"185 212 OFFCURVE",
"193 204 CURVE",
"231 241 LINE SMOOTH",
"234 244 OFFCURVE",
"236 248 OFFCURVE",
"235 254 CURVE",
"235 257 OFFCURVE",
"235 258 OFFCURVE",
"234 259 CURVE",
"223 297 OFFCURVE",
"229 329 OFFCURVE",
"253 355 CURVE",
"255 357 LINE SMOOTH",
"271 373 OFFCURVE",
"289 382 OFFCURVE",
"308 383 CURVE",
"313 384 OFFCURVE",
"320 383 OFFCURVE",
"328 380 CURVE SMOOTH",
"336 377 OFFCURVE",
"341 373 OFFCURVE",
"343 368 CURVE",
"295 320 LINE",
"293 317 LINE",
"292 316 LINE SMOOTH",
"291 315 OFFCURVE",
"291 314 OFFCURVE",
"291 312 CURVE SMOOTH",
"291 310 OFFCURVE",
"291 308 OFFCURVE",
"292 307 CURVE SMOOTH",
"294 305 LINE",
"296 303 LINE",
"337 261 LINE",
"340 258 LINE",
"341 257 LINE SMOOTH",
"342 256 OFFCURVE",
"343 256 OFFCURVE",
"345 256 CURVE SMOOTH",
"347 256 OFFCURVE",
"348 256 OFFCURVE",
"349 257 CURVE",
"351 258 LINE",
"353 261 LINE"
);
}
);
width = 415;
}
);
unicode = 0126;
},
{
glyphname = "Iacute";
layers = (
{
layerId = "E8827009-6BC8-4B70-BCEC-AB542FFF6A4D";
name = "Regular";
paths = (
{
closed = 1;
nodes = (
"405 329 OFFCURVE",
"416 300 OFFCURVE",
"416 267 CURVE SMOOTH",
"416 233 OFFCURVE",
"405 204 OFFCURVE",
"382 181 CURVE SMOOTH",
"208 0 LINE",
"34 181 LINE SMOOTH",
"11 204 OFFCURVE",
"0 233 OFFCURVE",
"0 267 CURVE SMOOTH",
"0 300 OFFCURVE",
"11 329 OFFCURVE",
"34 352 CURVE SMOOTH",
"54 373 OFFCURVE",
"79 384 OFFCURVE",
"108 384 CURVE SMOOTH",
"137 384 OFFCURVE",
"161 373 OFFCURVE",
"181 352 CURVE SMOOTH",
"208 324 LINE",
"236 352 LINE SMOOTH",
"256 373 OFFCURVE",
"280 384 OFFCURVE",
"309 384 CURVE SMOOTH",
"338 384 OFFCURVE",
"362 373 OFFCURVE",
"382 352 CURVE SMOOTH"
);
}
);
width = 416;
}
);
unicode = 00CD;
},
{
glyphname = "Igrave";
layers = (
{
layerId = "E8827009-6BC8-4B70-BCEC-AB542FFF6A4D";
name = "Regular";
paths = (
{
closed = 1;
nodes = (
"265 400 OFFCURVE",
"314 380 OFFCURVE",
"355 339 CURVE SMOOTH",
"396 298 OFFCURVE",
"416 249 OFFCURVE",
"416 192 CURVE SMOOTH",
"416 135 OFFCURVE",
"396 86 OFFCURVE",
"355 45 CURVE SMOOTH",
"314 4 OFFCURVE",
"265 -16 OFFCURVE",
"208 -16 CURVE SMOOTH",
"208 -16 LINE SMOOTH",
"151 -16 OFFCURVE",
"102 4 OFFCURVE",
"61 45 CURVE SMOOTH",
"20 86 OFFCURVE",
"0 135 OFFCURVE",
"0 192 CURVE SMOOTH",
"0 249 OFFCURVE",
"20 298 OFFCURVE",
"61 339 CURVE SMOOTH",
"102 380 OFFCURVE",
"151 400 OFFCURVE",
"208 400 CURVE SMOOTH"
);
},
{
closed = 1;
nodes = (
"216 200 LINE",
"291 200 LINE",
"290 231 OFFCURVE",
"287 259 OFFCURVE",
"280 284 CURVE",
"263 280 OFFCURVE",
"241 277 OFFCURVE",
"216 276 CURVE"
);
},
{
closed = 1;
nodes = (
"216 292 LINE",
"241 293 OFFCURVE",
"261 296 OFFCURVE",
"276 300 CURVE",
"269 323 OFFCURVE",
"261 341 OFFCURVE",
"250 356 CURVE SMOOTH",
"239 370 OFFCURVE",
"227 379 OFFCURVE",
"216 382 CURVE"
);
},
{
closed = 1;
nodes = (
"200 382 LINE",
"176 376 OFFCURVE",
"156 349 OFFCURVE",
"140 300 CURVE",
"156 296 OFFCURVE",
"176 293 OFFCURVE",
"200 292 CURVE"
);
},
{
closed = 1;
nodes = (
"200 276 LINE",
"174 277 OFFCURVE",
"152 280 OFFCURVE",
"135 284 CURVE",
"128 259 OFFCURVE",
"125 231 OFFCURVE",
"124 200 CURVE",
"200 200 LINE"
);
},
{
closed = 1;
nodes = (
"108 200 LINE",
"109 235 OFFCURVE",
"113 265 OFFCURVE",
"119 288 CURVE",
"100 293 OFFCURVE",
"80 302 OFFCURVE",
"60 313 CURVE",
"33 281 OFFCURVE",
"19 243 OFFCURVE",
"17 200 CURVE"
);
},
{
closed = 1;
nodes = (
"17 184 LINE",
"19 141 OFFCURVE",
"33 103 OFFCURVE",
"60 71 CURVE",
"83 83 OFFCURVE",
"102 91 OFFCURVE",
"119 96 CURVE",
"113 119 OFFCURVE",
"109 149 OFFCURVE",
"108 184 CURVE"
);
},
{
closed = 1;
nodes = (
"124 184 LINE",
"125 153 OFFCURVE",
"128 125 OFFCURVE",
"135 100 CURVE",
"156 105 OFFCURVE",
"177 108 OFFCURVE",
"200 109 CURVE",
"200 184 LINE"
);
},
{
closed = 1;
nodes = (
"200 92 LINE",
"176 91 OFFCURVE",
"156 88 OFFCURVE",
"140 84 CURVE",
"156 35 OFFCURVE",
"176 8 OFFCURVE",
"200 2 CURVE"
);
},
{
closed = 1;
nodes = (
"216 2 LINE",
"227 5 OFFCURVE",
"239 14 OFFCURVE",
"250 29 CURVE SMOOTH",
"261 43 OFFCURVE",
"269 61 OFFCURVE",
"276 84 CURVE",
"261 88 OFFCURVE",
"241 91 OFFCURVE",
"216 92 CURVE"
);
},
{
closed = 1;
nodes = (
"216 109 LINE",
"237 108 OFFCURVE",
"259 105 OFFCURVE",
"280 100 CURVE",
"287 125 OFFCURVE",
"290 153 OFFCURVE",
"291 184 CURVE",
"216 184 LINE"
);
},
{
closed = 1;
nodes = (
"308 184 LINE",
"307 151 OFFCURVE",
"303 122 OFFCURVE",
"296 96 CURVE",
"314 91 OFFCURVE",
"334 82 OFFCURVE",
"356 71 CURVE",
"383 103 OFFCURVE",
"397 141 OFFCURVE",
"399 184 CURVE"
);
},
{
closed = 1;
nodes = (
"399 200 LINE",
"397 243 OFFCURVE",
"383 281 OFFCURVE",
"356 313 CURVE",
"333 301 OFFCURVE",
"314 293 OFFCURVE",
"297 288 CURVE",
"303 265 OFFCURVE",
"307 235 OFFCURVE",
"308 200 CURVE"
);
},
{
closed = 1;
nodes = (
"317 353 OFFCURVE",
"287 370 OFFCURVE",
"253 378 CURVE",
"268 362 OFFCURVE",
"281 337 OFFCURVE",
"292 304 CURVE",
"311 310 OFFCURVE",
"328 317 OFFCURVE",
"344 326 CURVE"
);
},
{
closed = 1;
nodes = (
"128 370 OFFCURVE",
"97 353 OFFCURVE",
"72 326 CURVE",
"83 320 OFFCURVE",
"100 313 OFFCURVE",
"124 305 CURVE",
"134 337 OFFCURVE",
"147 361 OFFCURVE",
"163 378 CURVE"
);
},
{
closed = 1;
nodes = (
"99 31 OFFCURVE",
"129 14 OFFCURVE",
"163 6 CURVE",
"146 23 OFFCURVE",
"133 48 OFFCURVE",
"123 80 CURVE",
"104 73 OFFCURVE",
"87 66 OFFCURVE",
"72 58 CURVE"
);
},
{
closed = 1;
nodes = (
"287 14 OFFCURVE",
"317 31 OFFCURVE",
"344 58 CURVE",
"328 67 OFFCURVE",
"311 74 OFFCURVE",
"292 80 CURVE",
"281 47 OFFCURVE",
"268 22 OFFCURVE",
"253 6 CURVE"
);
}
);
width = 416;
}
);
unicode = 00CC;
},
{
glyphname = "Ldot";
layers = (
{
layerId = "E8827009-6BC8-4B70-BCEC-AB542FFF6A4D";
name = "Regular";
paths = (
{
closed = 1;
nodes = (
"460 319 OFFCURVE",
"444 303 OFFCURVE",
"424 288 CURVE",
"424 276 LINE SMOOTH",
"424 206 OFFCURVE",
"399 143 OFFCURVE",
"349 86 CURVE SMOOTH",
"298 29 OFFCURVE",
"231 0 OFFCURVE",
"148 0 CURVE SMOOTH",
"95 0 OFFCURVE",
"45 15 OFFCURVE",
"0 44 CURVE",
"11 43 OFFCURVE",
"18 42 OFFCURVE",
"23 42 CURVE SMOOTH",
"68 42 OFFCURVE",
"108 56 OFFCURVE",
"143 84 CURVE",
"122 85 OFFCURVE",
"104 91 OFFCURVE",
"87 104 CURVE",
"70 116 OFFCURVE",
"59 132 OFFCURVE",
"53 151 CURVE",
"61 150 OFFCURVE",
"67 149 OFFCURVE",
"71 149 CURVE SMOOTH",
"78 149 OFFCURVE",
"86 150 OFFCURVE",
"97 153 CURVE",
"75 158 OFFCURVE",
"57 169 OFFCURVE",
"42 187 CURVE SMOOTH",
"27 204 OFFCURVE",
"19 225 OFFCURVE",
"19 248 CURVE SMOOTH",
"19 249 LINE",
"34 241 OFFCURVE",
"48 237 OFFCURVE",
"63 237 CURVE",
"34 256 OFFCURVE",
"20 283 OFFCURVE",
"20 318 CURVE SMOOTH",
"20 335 OFFCURVE",
"24 351 OFFCURVE",
"33 366 CURVE",
"84 303 OFFCURVE",
"151 269 OFFCURVE",
"232 265 CURVE",
"231 270 OFFCURVE",
"230 277 OFFCURVE",
"230 287 CURVE SMOOTH",
"230 314 OFFCURVE",
"239 337 OFFCURVE",
"258 356 CURVE SMOOTH",
"277 375 OFFCURVE",
"300 384 OFFCURVE",
"327 384 CURVE SMOOTH",
"354 384 OFFCURVE",
"378 374 OFFCURVE",
"397 353 CURVE",
"417 356 OFFCURVE",
"438 364 OFFCURVE",
"459 377 CURVE",
"452 354 OFFCURVE",
"438 336 OFFCURVE",
"416 323 CURVE",
"437 325 OFFCURVE",
"455 330 OFFCURVE",
"472 338 CURVE"
);
}
);
width = 472;
}
);
unicode = 013F;
},
{
glyphname = "Lslash";
lastChange = "2015-08-25 12:28:13 +0100";
layers = (
{
layerId = "E8827009-6BC8-4B70-BCEC-AB542FFF6A4D";
name = "Regular";
paths = (
{
closed = 1;
nodes = (
"164 17 OFFCURVE",
"176 14 OFFCURVE",
"188 14 CURVE SMOOTH",
"257 14 OFFCURVE",
"290 44 OFFCURVE",
"290 105 CURVE SMOOTH",
"290 125 OFFCURVE",
"286 142 OFFCURVE",
"279 154 CURVE SMOOTH",
"270 169 OFFCURVE",
"256 180 OFFCURVE",
"244 187 CURVE SMOOTH",
"232 192 OFFCURVE",
"213 195 OFFCURVE",
"200 196 CURVE SMOOTH",
"193 196 OFFCURVE",
"185 197 OFFCURVE",
"175 197 CURVE SMOOTH",
"161 197 OFFCURVE",
"152 196 OFFCURVE",
"147 194 CURVE",
"147 184 OFFCURVE",
"147 170 OFFCURVE",
"147 151 CURVE SMOOTH",
"147 132 OFFCURVE",
"147 117 OFFCURVE",
"147 108 CURVE SMOOTH",
"147 107 OFFCURVE",
"147 100 OFFCURVE",
"146 89 CURVE SMOOTH",
"146 68 OFFCURVE",
"146 57 OFFCURVE",
"147 41 CURVE SMOOTH",
"148 33 OFFCURVE",
"150 26 OFFCURVE",
"151 22 CURVE"
);
},
{
closed = 1;
nodes = (
"154 223 OFFCURVE",
"164 223 OFFCURVE",
"176 223 CURVE SMOOTH",
"206 223 OFFCURVE",
"228 227 OFFCURVE",
"245 239 CURVE SMOOTH",
"262 250 OFFCURVE",
"272 271 OFFCURVE",
"272 301 CURVE SMOOTH",
"272 327 OFFCURVE",
"261 346 OFFCURVE",
"242 357 CURVE SMOOTH",
"225 367 OFFCURVE",
"204 372 OFFCURVE",
"180 372 CURVE SMOOTH",
"171 372 OFFCURVE",
"159 371 OFFCURVE",
"144 369 CURVE",
"144 360 OFFCURVE",
"145 346 OFFCURVE",
"146 328 CURVE SMOOTH",
"147 309 OFFCURVE",
"147 296 OFFCURVE",
"147 286 CURVE SMOOTH",
"147 282 OFFCURVE",
"147 274 OFFCURVE",
"147 264 CURVE SMOOTH",
"147 255 OFFCURVE",
"147 248 OFFCURVE",
"147 243 CURVE SMOOTH",
"147 235 OFFCURVE",
"147 229 OFFCURVE",
"147 225 CURVE"
);
},
{
closed = 1;
nodes = (
"1 10 LINE",
"4 11 OFFCURVE",
"11 11 OFFCURVE",
"24 14 CURVE SMOOTH",
"37 16 OFFCURVE",
"46 19 OFFCURVE",
"53 22 CURVE",
"55 25 OFFCURVE",
"57 31 OFFCURVE",
"58 38 CURVE SMOOTH",
"59 41 OFFCURVE",
"59 44 OFFCURVE",
"60 46 CURVE",
"61 52 OFFCURVE",
"61 62 OFFCURVE",
"61 66 CURVE SMOOTH",
"61 67 OFFCURVE",
"61 71 OFFCURVE",
"61 76 CURVE SMOOTH",
"61 80 OFFCURVE",
"61 83 OFFCURVE",
"61 84 CURVE SMOOTH",
"61 261 OFFCURVE",
"59 353 OFFCURVE",
"54 361 CURVE",
"54 362 OFFCURVE",
"52 363 OFFCURVE",
"49 365 CURVE",
"43 367 OFFCURVE",
"32 369 OFFCURVE",
"23 370 CURVE",
"20 370 OFFCURVE",
"15 371 OFFCURVE",
"10 371 CURVE SMOOTH",
"6 372 OFFCURVE",
"3 372 OFFCURVE",
"2 372 CURVE",
"1 395 LINE",
"19 395 OFFCURVE",
"49 395 OFFCURVE",
"93 397 CURVE SMOOTH",
"137 399 OFFCURVE",
"171 400 OFFCURVE",
"194 400 CURVE SMOOTH",
"198 400 OFFCURVE",
"204 400 OFFCURVE",
"213 400 CURVE SMOOTH",
"221 400 OFFCURVE",
"227 400 OFFCURVE",
"230 400 CURVE SMOOTH",
"256 400 OFFCURVE",
"280 395 OFFCURVE",
"303 384 CURVE SMOOTH",
"325 374 OFFCURVE",
"342 360 OFFCURVE",
"352 338 CURVE SMOOTH",
"357 326 OFFCURVE",
"360 314 OFFCURVE",
"360 300 CURVE SMOOTH",
"360 282 OFFCURVE",
"352 265 OFFCURVE",
"345 255 CURVE SMOOTH",
"337 244 OFFCURVE",
"318 232 OFFCURVE",
"307 227 CURVE SMOOTH",
"302 224 OFFCURVE",
"294 220 OFFCURVE",
"284 216 CURVE",
"340 203 OFFCURVE",
"382 166 OFFCURVE",
"382 112 CURVE SMOOTH",
"382 77 OFFCURVE",
"368 47 OFFCURVE",
"347 29 CURVE SMOOTH",
"326 11 OFFCURVE",
"295 -2 OFFCURVE",
"265 -8 CURVE SMOOTH",
"250 -10 OFFCURVE",
"234 -11 OFFCURVE",
"218 -11 CURVE SMOOTH",
"209 -11 OFFCURVE",
"197 -11 OFFCURVE",
"182 -11 CURVE SMOOTH",
"166 -10 OFFCURVE",
"154 -10 OFFCURVE",
"146 -10 CURVE SMOOTH",
"127 -10 OFFCURVE",
"99 -11 OFFCURVE",
"63 -12 CURVE SMOOTH",
"27 -14 OFFCURVE",
"6 -16 OFFCURVE",
"0 -16 CURVE"
);
}
);
width = 382;
}
);
unicode = 0141;
},
{
glyphname = "Nacute";
layers = (
{
layerId = "E8827009-6BC8-4B70-BCEC-AB542FFF6A4D";
name = "Regular";
paths = (
{
closed = 1;
nodes = (
"5 8 LINE",
"6 8 OFFCURVE",
"13 10 OFFCURVE",
"27 14 CURVE SMOOTH",
"41 17 OFFCURVE",
"51 20 OFFCURVE",
"57 24 CURVE",
"62 30 OFFCURVE",
"66 39 OFFCURVE",
"68 51 CURVE SMOOTH",
"69 52 OFFCURVE",
"74 78 OFFCURVE",
"85 129 CURVE SMOOTH",
"96 180 OFFCURVE",
"107 229 OFFCURVE",
"116 277 CURVE SMOOTH",
"125 324 OFFCURVE",
"130 350 OFFCURVE",
"130 357 CURVE",
"130 363 LINE",
"121 368 OFFCURVE",
"111 370 OFFCURVE",
"96 371 CURVE",
"89 371 OFFCURVE",
"84 372 OFFCURVE",
"81 372 CURVE",
"86 400 LINE",
"98 399 OFFCURVE",
"136 397 OFFCURVE",
"159 396 CURVE SMOOTH",
"170 396 OFFCURVE",
"181 396 OFFCURVE",
"192 396 CURVE SMOOTH",
"209 396 OFFCURVE",
"226 397 OFFCURVE",
"251 398 CURVE SMOOTH",
"264 399 OFFCURVE",
"273 400 OFFCURVE",
"278 400 CURVE",
"277 393 OFFCURVE",
"275 385 OFFCURVE",
"273 376 CURVE",
"267 374 OFFCURVE",
"258 372 OFFCURVE",
"245 368 CURVE SMOOTH",
"232 365 OFFCURVE",
"222 362 OFFCURVE",
"216 359 CURVE",
"213 352 OFFCURVE",
"211 343 OFFCURVE",
"209 337 CURVE SMOOTH",
"208 331 OFFCURVE",
"206 318 OFFCURVE",
"206 313 CURVE SMOOTH",
"201 286 OFFCURVE",
"193 249 OFFCURVE",
"182 200 CURVE SMOOTH",
"171 151 OFFCURVE",
"164 118 OFFCURVE",
"161 103 CURVE SMOOTH",
"161 102 OFFCURVE",
"159 96 OFFCURVE",
"157 87 CURVE SMOOTH",
"153 70 OFFCURVE",
"150 56 OFFCURVE",
"148 41 CURVE SMOOTH",
"146 33 OFFCURVE",
"146 28 OFFCURVE",
"146 25 CURVE",
"146 20 LINE",
"149 19 OFFCURVE",
"166 17 OFFCURVE",
"196 12 CURVE",
"196 4 OFFCURVE",
"195 -5 OFFCURVE",
"192 -15 CURVE",
"190 -15 OFFCURVE",
"187 -15 OFFCURVE",
"183 -15 CURVE SMOOTH",
"179 -16 OFFCURVE",
"176 -16 OFFCURVE",
"174 -16 CURVE SMOOTH",
"169 -16 OFFCURVE",
"161 -15 OFFCURVE",
"151 -13 CURVE SMOOTH",
"140 -11 OFFCURVE",
"133 -11 OFFCURVE",
"128 -11 CURVE SMOOTH",
"103 -10 OFFCURVE",
"84 -10 OFFCURVE",
"72 -10 CURVE SMOOTH",
"63 -10 OFFCURVE",
"50 -11 OFFCURVE",
"33 -12 CURVE SMOOTH",
"17 -14 OFFCURVE",
"5 -15 OFFCURVE",
"0 -15 CURVE"
);
}
);
width = 278;
}
);
unicode = 0143;
},
{
glyphname = "Ncommaaccent";
layers = (
{
layerId = "E8827009-6BC8-4B70-BCEC-AB542FFF6A4D";
name = "Regular";
paths = (
{
closed = 1;
nodes = (
"108 70 OFFCURVE",
"114 56 OFFCURVE",
"114 41 CURVE SMOOTH",
"114 9 OFFCURVE",
"89 -16 OFFCURVE",
"57 -16 CURVE SMOOTH",
"25 -16 OFFCURVE",
"0 9 OFFCURVE",
"0 41 CURVE SMOOTH",
"0 72 OFFCURVE",
"25 97 OFFCURVE",
"57 97 CURVE SMOOTH",
"73 97 OFFCURVE",
"86 92 OFFCURVE",
"97 81 CURVE SMOOTH"
);
},
{
closed = 1;
nodes = (
"108 221 OFFCURVE",
"114 208 OFFCURVE",
"114 192 CURVE SMOOTH",
"114 160 OFFCURVE",
"89 135 OFFCURVE",
"57 135 CURVE SMOOTH",
"25 135 OFFCURVE",
"0 160 OFFCURVE",
"0 192 CURVE SMOOTH",
"0 224 OFFCURVE",
"25 249 OFFCURVE",
"57 249 CURVE SMOOTH",
"73 249 OFFCURVE",
"86 243 OFFCURVE",
"97 232 CURVE SMOOTH"
);
},
{
closed = 1;
nodes = (
"530 12 LINE SMOOTH",
"530 7 OFFCURVE",
"525 3 OFFCURVE",
"520 3 CURVE SMOOTH",
"161 3 LINE SMOOTH",
"156 3 OFFCURVE",
"152 7 OFFCURVE",
"152 12 CURVE SMOOTH",
"152 69 LINE SMOOTH",
"152 74 OFFCURVE",
"156 79 OFFCURVE",
"161 79 CURVE SMOOTH",
"520 79 LINE SMOOTH",
"525 79 OFFCURVE",
"530 74 OFFCURVE",
"530 69 CURVE SMOOTH"
);
},
{
closed = 1;
nodes = (
"108 373 OFFCURVE",
"114 359 OFFCURVE",
"114 343 CURVE SMOOTH",
"114 312 OFFCURVE",
"89 287 OFFCURVE",
"57 287 CURVE SMOOTH",
"25 287 OFFCURVE",
"0 312 OFFCURVE",
"0 343 CURVE SMOOTH",
"0 375 OFFCURVE",
"25 400 OFFCURVE",
"57 400 CURVE SMOOTH",
"73 400 OFFCURVE",
"86 394 OFFCURVE",
"97 383 CURVE SMOOTH"
);
},
{
closed = 1;
nodes = (
"530 164 LINE SMOOTH",
"530 159 OFFCURVE",
"525 154 OFFCURVE",
"520 154 CURVE SMOOTH",
"161 154 LINE SMOOTH",
"156 154 OFFCURVE",
"152 159 OFFCURVE",
"152 164 CURVE SMOOTH",
"152 220 LINE SMOOTH",
"152 225 OFFCURVE",
"156 230 OFFCURVE",
"161 230 CURVE SMOOTH",
"520 230 LINE SMOOTH",
"525 230 OFFCURVE",
"530 225 OFFCURVE",
"530 220 CURVE SMOOTH"
);
},
{
closed = 1;
nodes = (
"530 315 LINE SMOOTH",
"530 310 OFFCURVE",
"525 305 OFFCURVE",
"520 305 CURVE SMOOTH",
"161 305 LINE SMOOTH",
"156 305 OFFCURVE",
"152 310 OFFCURVE",
"152 315 CURVE SMOOTH",
"152 372 LINE SMOOTH",
"152 377 OFFCURVE",
"156 381 OFFCURVE",
"161 381 CURVE SMOOTH",
"520 381 LINE SMOOTH",
"525 381 OFFCURVE",
"530 377 OFFCURVE",
"530 372 CURVE SMOOTH"
);
}
);
width = 530;
}
);
unicode = 0145;
},
{
glyphname = "Ntilde";
layers = (
{
layerId = "E8827009-6BC8-4B70-BCEC-AB542FFF6A4D";
name = "Regular";
paths = (
{
closed = 1;
nodes = (
"366 215 LINE",
"389 215 OFFCURVE",
"408 207 OFFCURVE",
"424 191 CURVE SMOOTH",
"440 174 OFFCURVE",
"448 155 OFFCURVE",
"448 132 CURVE SMOOTH",
"448 109 OFFCURVE",
"440 89 OFFCURVE",
"424 73 CURVE SMOOTH",
"408 56 OFFCURVE",
"389 48 OFFCURVE",
"366 48 CURVE SMOOTH",
"256 48 LINE",
"256 128 LINE",
"304 128 LINE",
"224 212 LINE",
"144 128 LINE",
"192 128 LINE",
"192 48 LINE",
"90 48 LINE SMOOTH",
"65 48 OFFCURVE",
"44 57 OFFCURVE",
"27 75 CURVE SMOOTH",
"9 93 OFFCURVE",
"0 114 OFFCURVE",
"0 139 CURVE SMOOTH",
"0 159 OFFCURVE",
"6 177 OFFCURVE",
"17 193 CURVE SMOOTH",
"28 208 OFFCURVE",
"43 219 OFFCURVE",
"61 225 CURVE",
"64 240 OFFCURVE",
"71 252 OFFCURVE",
"82 262 CURVE",
"93 271 OFFCURVE",
"105 276 OFFCURVE",
"120 276 CURVE SMOOTH",
"128 276 OFFCURVE",
"137 274 OFFCURVE",
"146 269 CURVE",
"155 289 OFFCURVE",
"170 305 OFFCURVE",
"189 318 CURVE",
"208 330 OFFCURVE",
"228 336 OFFCURVE",
"251 336 CURVE SMOOTH",
"283 336 OFFCURVE",
"310 325 OFFCURVE",
"333 302 CURVE SMOOTH",
"355 279 OFFCURVE",
"366 251 OFFCURVE",
"366 218 CURVE SMOOTH"
);
}
);
width = 448;
}
);
unicode = 00D1;
},
{
glyphname = "Thorn";
lastChange = "2015-08-05 10:08:58 +0100";
layers = (
{
layerId = "E8827009-6BC8-4B70-BCEC-AB542FFF6A4D";
name = "Regular";
paths = (
{
closed = 1;
nodes = (
"346 297 LINE SMOOTH",
"345 296 OFFCURVE",
"343 296 OFFCURVE",
"342 296 CURVE SMOOTH",
"340 296 OFFCURVE",
"337 297 OFFCURVE",
"336 299 CURVE SMOOTH",
"334 303 OFFCURVE",
"335 307 OFFCURVE",
"338 310 CURVE SMOOTH",
"387 338 LINE SMOOTH",
"391 340 OFFCURVE",
"395 339 OFFCURVE",
"397 335 CURVE SMOOTH",
"399 331 OFFCURVE",
"398 327 OFFCURVE",
"395 325 CURVE SMOOTH"
);
},
{
closed = 1;
nodes = (
"360 26 OFFCURVE",
"360 26 OFFCURVE",
"360 25 CURVE SMOOTH",
"361 24 OFFCURVE",
"362 22 OFFCURVE",
"362 21 CURVE SMOOTH",
"362 20 OFFCURVE",
"362 20 OFFCURVE",
"362 20 CURVE",
"362 -24 LINE SMOOTH",
"362 -29 OFFCURVE",
"358 -32 OFFCURVE",
"354 -32 CURVE SMOOTH",
"39 -32 LINE SMOOTH",
"35 -32 OFFCURVE",
"32 -29 OFFCURVE",
"32 -24 CURVE SMOOTH",
"32 21 LINE SMOOTH",
"32 21 OFFCURVE",
"32 21 OFFCURVE",
"32 21 CURVE SMOOTH",
"32 22 OFFCURVE",
"32 22 OFFCURVE",
"32 23 CURVE SMOOTH",
"32 23 OFFCURVE",
"32 23 OFFCURVE",
"33 24 CURVE SMOOTH",
"33 24 OFFCURVE",
"33 25 OFFCURVE",
"34 26 CURVE",
"34 26 OFFCURVE",
"34 26 OFFCURVE",
"34 26 CURVE",
"62 54 LINE",
"62 178 LINE SMOOTH",
"62 252 OFFCURVE",
"122 313 OFFCURVE",
"197 313 CURVE SMOOTH",
"271 313 OFFCURVE",
"332 252 OFFCURVE",
"332 178 CURVE SMOOTH",
"332 54 LINE",
"359 27 LINE",
"359 26 OFFCURVE",
"359 26 OFFCURVE",
"359 26 CURVE SMOOTH"
);
},
{
closed = 1;
nodes = (
"317 244 OFFCURVE",
"263 298 OFFCURVE",
"197 298 CURVE SMOOTH",
"131 298 OFFCURVE",
"77 244 OFFCURVE",
"77 178 CURVE SMOOTH",
"77 58 LINE",
"317 58 LINE",
"317 178 LINE SMOOTH"
);
},
{
closed = 1;
nodes = (
"72 43 LINE",
"57 28 LINE",
"336 28 LINE",
"321 43 LINE"
);
},
{
closed = 1;
nodes = (
"47 13 LINE",
"47 -17 LINE",
"347 -17 LINE",
"347 13 LINE"
);
},
{
closed = 1;
nodes = (
"147 270 OFFCURVE",
"152 269 OFFCURVE",
"154 266 CURVE SMOOTH",
"156 262 OFFCURVE",
"155 258 OFFCURVE",
"151 255 CURVE SMOOTH",
"124 239 OFFCURVE",
"107 210 OFFCURVE",
"107 178 CURVE SMOOTH",
"107 174 OFFCURVE",
"103 171 OFFCURVE",
"99 171 CURVE SMOOTH",
"95 171 OFFCURVE",
"92 174 OFFCURVE",
"92 178 CURVE SMOOTH",
"92 215 OFFCURVE",
"112 250 OFFCURVE",
"143 268 CURVE SMOOTH"
);
},
{
closed = 1;
nodes = (
"183 282 OFFCURVE",
"190 283 OFFCURVE",
"197 283 CURVE SMOOTH",
"201 283 OFFCURVE",
"204 280 OFFCURVE",
"204 276 CURVE SMOOTH",
"204 271 OFFCURVE",
"201 268 OFFCURVE",
"197 268 CURVE SMOOTH",
"191 268 OFFCURVE",
"185 267 OFFCURVE",
"179 266 CURVE SMOOTH",
"179 266 OFFCURVE",
"178 266 OFFCURVE",
"178 266 CURVE SMOOTH",
"174 266 OFFCURVE",
"171 269 OFFCURVE",
"171 272 CURVE SMOOTH",
"170 276 OFFCURVE",
"172 280 OFFCURVE",
"176 281 CURVE SMOOTH"
);
},
{
closed = 1;
nodes = (
"285 337 OFFCURVE",
"283 336 OFFCURVE",
"280 336 CURVE SMOOTH",
"279 336 OFFCURVE",
"277 336 OFFCURVE",
"276 337 CURVE SMOOTH",
"273 339 OFFCURVE",
"271 343 OFFCURVE",
"273 347 CURVE SMOOTH",
"302 396 LINE SMOOTH",
"304 399 OFFCURVE",
"308 400 OFFCURVE",
"312 398 CURVE SMOOTH",
"315 396 OFFCURVE",
"317 392 OFFCURVE",
"315 388 CURVE SMOOTH",
"286 339 LINE SMOOTH"
);
},
{
closed = 1;
nodes = (
"194 345 OFFCURVE",
"191 348 OFFCURVE",
"191 352 CURVE SMOOTH",
"191 408 LINE SMOOTH",
"191 413 OFFCURVE",
"194 416 OFFCURVE",
"198 416 CURVE SMOOTH",
"202 416 OFFCURVE",
"206 413 OFFCURVE",
"206 408 CURVE SMOOTH",
"206 352 LINE SMOOTH",
"206 348 OFFCURVE",
"202 345 OFFCURVE",
"198 345 CURVE SMOOTH"
);
},
{
closed = 1;
nodes = (
"121 333 OFFCURVE",
"120 332 OFFCURVE",
"119 332 CURVE SMOOTH",
"116 332 OFFCURVE",
"114 334 OFFCURVE",
"112 336 CURVE SMOOTH",
"84 385 LINE SMOOTH",
"82 388 OFFCURVE",
"83 393 OFFCURVE",
"87 395 CURVE SMOOTH",
"90 397 OFFCURVE",
"95 396 OFFCURVE",
"97 392 CURVE SMOOTH",
"125 344 LINE SMOOTH",
"127 340 OFFCURVE",
"126 335 OFFCURVE",
"122 333 CURVE SMOOTH"
);
},
{
closed = 1;
nodes = (
"55 299 OFFCURVE",
"54 299 OFFCURVE",
"53 300 CURVE SMOOTH",
"4 328 LINE SMOOTH",
"0 330 OFFCURVE",
"-1 335 OFFCURVE",
"1 338 CURVE SMOOTH",
"3 342 OFFCURVE",
"8 343 OFFCURVE",
"12 341 CURVE SMOOTH",
"60 313 LINE SMOOTH",
"64 311 OFFCURVE",
"65 306 OFFCURVE",
"63 303 CURVE SMOOTH",
"62 300 OFFCURVE",
"59 299 OFFCURVE",
"56 299 CURVE SMOOTH"
);
}
);
width = 398;
}
);
unicode = 00DE;
},
{
glyphname = "Germandbls";
lastChange = "2015-08-05 10:09:41 +0100";
layers = (
{
layerId = "E8827009-6BC8-4B70-BCEC-AB542FFF6A4D";
name = "Regular";
paths = (
{
closed = 1;
nodes = (
"347 4 OFFCURVE",
"345 4 OFFCURVE",
"344 4 CURVE SMOOTH",
"341 4 OFFCURVE",
"339 5 OFFCURVE",
"337 7 CURVE SMOOTH",
"335 11 OFFCURVE",
"336 16 OFFCURVE",
"339 18 CURVE SMOOTH",
"397 57 OFFCURVE",
"432 122 OFFCURVE",
"432 191 CURVE SMOOTH",
"432 261 OFFCURVE",
"397 326 OFFCURVE",
"339 364 CURVE SMOOTH",
"336 367 OFFCURVE",
"335 372 OFFCURVE",
"337 375 CURVE SMOOTH",
"340 379 OFFCURVE",
"345 380 OFFCURVE",
"348 378 CURVE SMOOTH",
"411 336 OFFCURVE",
"448 266 OFFCURVE",
"448 191 CURVE SMOOTH",
"448 116 OFFCURVE",
"411 47 OFFCURVE",
"348 5 CURVE SMOOTH"
);
},
{
closed = 1;
nodes = (
"311 57 OFFCURVE",
"310 57 OFFCURVE",
"308 57 CURVE SMOOTH",
"306 57 OFFCURVE",
"303 58 OFFCURVE",
"302 60 CURVE SMOOTH",
"299 64 OFFCURVE",
"300 69 OFFCURVE",
"304 71 CURVE SMOOTH",
"344 98 OFFCURVE",
"368 143 OFFCURVE",
"368 191 CURVE SMOOTH",
"368 239 OFFCURVE",
"344 284 OFFCURVE",
"304 311 CURVE SMOOTH",
"300 314 OFFCURVE",
"299 318 OFFCURVE",
"302 322 CURVE SMOOTH",
"304 326 OFFCURVE",
"309 327 OFFCURVE",
"313 324 CURVE SMOOTH",
"357 295 OFFCURVE",
"384 245 OFFCURVE",
"384 191 CURVE SMOOTH",
"384 138 OFFCURVE",
"357 88 OFFCURVE",
"313 58 CURVE SMOOTH"
);
},
{
closed = 1;
nodes = (
"276 110 OFFCURVE",
"274 110 OFFCURVE",
"273 110 CURVE SMOOTH",
"270 110 OFFCURVE",
"268 111 OFFCURVE",
"266 114 CURVE SMOOTH",
"264 117 OFFCURVE",
"265 122 OFFCURVE",
"268 125 CURVE SMOOTH",
"291 140 OFFCURVE",
"304 164 OFFCURVE",
"304 191 CURVE SMOOTH",
"304 218 OFFCURVE",
"291 243 OFFCURVE",
"268 258 CURVE SMOOTH",
"265 260 OFFCURVE",
"264 265 OFFCURVE",
"266 269 CURVE SMOOTH",
"269 273 OFFCURVE",
"274 274 OFFCURVE",
"277 271 CURVE SMOOTH",
"304 253 OFFCURVE",
"320 223 OFFCURVE",
"320 191 CURVE SMOOTH",
"320 159 OFFCURVE",
"304 129 OFFCURVE",
"277 111 CURVE SMOOTH"
);
},
{
closed = 1;
nodes = (
"206 159 OFFCURVE",
"192 174 OFFCURVE",
"192 191 CURVE SMOOTH",
"192 209 OFFCURVE",
"206 223 OFFCURVE",
"224 223 CURVE SMOOTH",
"242 223 OFFCURVE",
"256 209 OFFCURVE",
"256 191 CURVE SMOOTH",
"256 174 OFFCURVE",
"242 159 OFFCURVE",
"224 159 CURVE SMOOTH"
);
},
{
closed = 1;
nodes = (
"215 207 OFFCURVE",
"208 200 OFFCURVE",
"208 191 CURVE SMOOTH",
"208 182 OFFCURVE",
"215 175 OFFCURVE",
"224 175 CURVE SMOOTH",
"233 175 OFFCURVE",
"240 182 OFFCURVE",
"240 191 CURVE SMOOTH",
"240 200 OFFCURVE",
"233 207 OFFCURVE",
"224 207 CURVE SMOOTH"
);
},
{
closed = 1;
nodes = (
"183 122 OFFCURVE",
"184 117 OFFCURVE",
"182 114 CURVE SMOOTH",
"180 111 OFFCURVE",
"178 110 OFFCURVE",
"175 110 CURVE SMOOTH",
"174 110 OFFCURVE",
"172 110 OFFCURVE",
"171 111 CURVE SMOOTH",
"144 129 OFFCURVE",
"128 159 OFFCURVE",
"128 191 CURVE SMOOTH",
"128 223 OFFCURVE",
"144 253 OFFCURVE",
"171 271 CURVE SMOOTH",
"174 274 OFFCURVE",
"179 273 OFFCURVE",
"182 269 CURVE SMOOTH",
"184 265 OFFCURVE",
"183 260 OFFCURVE",
"180 258 CURVE SMOOTH",
"157 243 OFFCURVE",
"144 218 OFFCURVE",
"144 191 CURVE SMOOTH",
"144 164 OFFCURVE",
"157 140 OFFCURVE",
"180 125 CURVE SMOOTH"
);
},
{
closed = 1;
nodes = (
"80 143 OFFCURVE",
"104 98 OFFCURVE",
"144 71 CURVE SMOOTH",
"148 69 OFFCURVE",
"149 64 OFFCURVE",
"146 60 CURVE SMOOTH",
"145 58 OFFCURVE",
"142 57 OFFCURVE",
"140 57 CURVE SMOOTH",
"138 57 OFFCURVE",
"137 57 OFFCURVE",
"135 58 CURVE SMOOTH",
"91 88 OFFCURVE",
"64 138 OFFCURVE",
"64 191 CURVE SMOOTH",
"64 245 OFFCURVE",
"91 295 OFFCURVE",
"135 324 CURVE SMOOTH",
"139 327 OFFCURVE",
"144 326 OFFCURVE",
"146 322 CURVE SMOOTH",
"149 318 OFFCURVE",
"148 314 OFFCURVE",
"144 311 CURVE SMOOTH",
"104 284 OFFCURVE",
"80 239 OFFCURVE",
"80 191 CURVE SMOOTH"
);
},
{
closed = 1;
nodes = (
"16 122 OFFCURVE",
"51 57 OFFCURVE",
"109 18 CURVE SMOOTH",
"112 16 OFFCURVE",
"113 11 OFFCURVE",
"111 7 CURVE SMOOTH",
"109 5 OFFCURVE",
"107 4 OFFCURVE",
"104 4 CURVE SMOOTH",
"103 4 OFFCURVE",
"101 4 OFFCURVE",
"100 5 CURVE SMOOTH",
"37 47 OFFCURVE",
"0 116 OFFCURVE",
"0 191 CURVE SMOOTH",
"0 266 OFFCURVE",
"37 336 OFFCURVE",
"100 378 CURVE SMOOTH",
"103 380 OFFCURVE",
"108 379 OFFCURVE",
"111 375 CURVE SMOOTH",
"113 372 OFFCURVE",
"112 367 OFFCURVE",
"109 364 CURVE SMOOTH",
"51 326 OFFCURVE",
"16 261 OFFCURVE",
"16 191 CURVE SMOOTH"
);
}
);
width = 448;
}
);
unicode = 1E9E;
},
{
glyphname = "Uacute";
layers = (
{
layerId = "E8827009-6BC8-4B70-BCEC-AB542FFF6A4D";
name = "Regular";
paths = (
{
closed = 1;
nodes = (
"306 -32 LINE",
"276 -32 LINE",
"52 -32 LINE",
"22 -32 LINE",
"7 -32 LINE SMOOTH",
"3 -32 OFFCURVE",
"0 -29 OFFCURVE",
"0 -25 CURVE SMOOTH",
"0 -20 OFFCURVE",
"3 -17 OFFCURVE",
"7 -17 CURVE SMOOTH",
"15 -17 LINE",
"15 349 LINE SMOOTH",
"15 353 OFFCURVE",
"18 356 OFFCURVE",
"22 356 CURVE SMOOTH",
"60 356 LINE",
"60 379 LINE SMOOTH",
"60 383 OFFCURVE",
"63 386 OFFCURVE",
"67 386 CURVE SMOOTH",
"157 386 LINE",
"157 409 LINE SMOOTH",
"157 413 OFFCURVE",
"160 416 OFFCURVE",
"164 416 CURVE SMOOTH",
"168 416 OFFCURVE",
"172 413 OFFCURVE",
"172 409 CURVE SMOOTH",
"172 386 LINE",
"261 386 LINE SMOOTH",
"265 386 OFFCURVE",
"269 383 OFFCURVE",
"269 379 CURVE SMOOTH",
"269 356 LINE",
"306 356 LINE SMOOTH",
"310 356 OFFCURVE",
"314 353 OFFCURVE",
"314 349 CURVE SMOOTH",
"314 -17 LINE",
"373 -17 LINE",
"373 43 LINE",
"348 47 OFFCURVE",
"329 69 OFFCURVE",
"329 95 CURVE SMOOTH",
"329 116 OFFCURVE",
"347 222 OFFCURVE",
"381 222 CURVE SMOOTH",
"415 222 OFFCURVE",
"433 116 OFFCURVE",
"433 95 CURVE SMOOTH",
"433 69 OFFCURVE",
"414 47 OFFCURVE",
"388 43 CURVE",
"388 -17 LINE",
"441 -17 LINE SMOOTH",
"445 -17 OFFCURVE",
"448 -20 OFFCURVE",
"448 -25 CURVE SMOOTH",
"448 -29 OFFCURVE",
"445 -32 OFFCURVE",
"441 -32 CURVE SMOOTH"
);
},
{
closed = 1;
nodes = (
"269 -17 LINE",
"269 87 LINE",
"224 87 LINE",
"224 -17 LINE"
);
},
{
closed = 1;
nodes = (
"239 237 LINE",
"269 237 LINE",
"269 267 LINE",
"239 267 LINE"
);
},
{
closed = 1;
nodes = (
"269 311 LINE",
"239 311 LINE",
"239 282 LINE",
"269 282 LINE"
);
},
{
closed = 1;
nodes = (
"239 192 LINE",
"269 192 LINE",
"269 222 LINE",
"239 222 LINE"
);
},
{
closed = 1;
nodes = (
"239 147 LINE",
"269 147 LINE",
"269 177 LINE",
"239 177 LINE"
);
},
{
closed = 1;
nodes = (
"239 102 LINE",
"269 102 LINE",
"269 132 LINE",
"239 132 LINE"
);
},
{
closed = 1;
nodes = (
"194 237 LINE",
"224 237 LINE",
"224 267 LINE",
"194 267 LINE"
);
},
{
closed = 1;
nodes = (
"224 311 LINE",
"194 311 LINE",
"194 282 LINE",
"224 282 LINE"
);
},
{
closed = 1;
nodes = (
"194 192 LINE",
"224 192 LINE",
"224 222 LINE",
"194 222 LINE"
);
},
{
closed = 1;
nodes = (
"194 147 LINE",
"224 147 LINE",
"224 177 LINE",
"194 177 LINE"
);
},
{
closed = 1;
nodes = (
"194 102 LINE",
"224 102 LINE",
"224 132 LINE",
"194 132 LINE"
);
},
{
closed = 1;
nodes = (
"209 -17 LINE",
"209 87 LINE",
"172 87 LINE",
"172 -17 LINE"
);
},
{
closed = 1;
nodes = (
"149 237 LINE",
"179 237 LINE",
"179 267 LINE",
"149 267 LINE"
);
},
{
closed = 1;
nodes = (
"179 311 LINE",
"149 311 LINE",
"149 282 LINE",
"179 282 LINE"
);
},
{
closed = 1;
nodes = (
"149 192 LINE",
"179 192 LINE",
"179 222 LINE",
"149 222 LINE"
);
},
{
closed = 1;
nodes = (
"149 147 LINE",
"179 147 LINE",
"179 177 LINE",
"149 177 LINE"
);
},
{
closed = 1;
nodes = (
"149 102 LINE",
"179 102 LINE",
"179 132 LINE",
"149 132 LINE"
);
},
{
closed = 1;
nodes = (
"157 -17 LINE",
"157 87 LINE",
"119 87 LINE",
"119 -17 LINE"
);
},
{
closed = 1;
nodes = (
"105 237 LINE",
"134 237 LINE",
"134 267 LINE",
"105 267 LINE"
);
},
{
closed = 1;
nodes = (
"134 311 LINE",
"105 311 LINE",
"105 282 LINE",
"134 282 LINE"
);
},
{
closed = 1;
nodes = (
"105 192 LINE",
"134 192 LINE",
"134 222 LINE",
"105 222 LINE"
);
},
{
closed = 1;
nodes = (
"105 147 LINE",
"134 147 LINE",
"134 177 LINE",
"105 177 LINE"
);
},
{
closed = 1;
nodes = (
"105 102 LINE",
"134 102 LINE",
"134 132 LINE",
"105 132 LINE"
);
},
{
closed = 1;
nodes = (
"105 -17 LINE",
"105 87 LINE",
"60 87 LINE",
"60 -17 LINE"
);
},
{
closed = 1;
nodes = (
"90 102 LINE",
"90 132 LINE",
"60 132 LINE",
"60 102 LINE"
);
},
{
closed = 1;
nodes = (
"90 147 LINE",
"90 177 LINE",
"60 177 LINE",
"60 147 LINE"
);
},
{
closed = 1;
nodes = (
"90 192 LINE",
"90 222 LINE",
"60 222 LINE",
"60 192 LINE"
);
},
{
closed = 1;
nodes = (
"90 237 LINE",
"90 267 LINE",
"60 267 LINE",
"60 237 LINE"
);
},
{
closed = 1;
nodes = (
"90 282 LINE",
"90 311 LINE",
"60 311 LINE",
"60 282 LINE"
);
},
{
closed = 1;
nodes = (
"75 371 LINE",
"75 356 LINE",
"254 356 LINE",
"254 371 LINE"
);
},
{
closed = 1;
nodes = (
"261 341 LINE",
"67 341 LINE",
"30 341 LINE",
"30 -17 LINE",
"45 -17 LINE",
"45 319 LINE SMOOTH",
"45 323 OFFCURVE",
"48 326 OFFCURVE",
"52 326 CURVE SMOOTH",
"276 326 LINE SMOOTH",
"280 326 OFFCURVE",
"284 323 OFFCURVE",
"284 319 CURVE SMOOTH",
"284 -17 LINE",
"299 -17 LINE",
"299 341 LINE"
);
},
{
closed = 1;
nodes = (
"418 139 OFFCURVE",
"392 207 OFFCURVE",
"381 207 CURVE SMOOTH",
"370 207 OFFCURVE",
"343 139 OFFCURVE",
"343 95 CURVE SMOOTH",
"343 74 OFFCURVE",
"360 58 OFFCURVE",
"381 58 CURVE SMOOTH",
"401 58 OFFCURVE",
"418 74 OFFCURVE",
"418 95 CURVE SMOOTH"
);
},
{
closed = 1;
nodes = (
"371 150 OFFCURVE",
"367 152 OFFCURVE",
"366 156 CURVE SMOOTH",
"365 160 OFFCURVE",
"367 164 OFFCURVE",
"371 165 CURVE SMOOTH",
"381 167 OFFCURVE",
"389 164 OFFCURVE",
"395 155 CURVE SMOOTH",
"397 152 OFFCURVE",
"396 147 OFFCURVE",
"393 145 CURVE SMOOTH",
"391 144 OFFCURVE",
"390 144 OFFCURVE",
"388 144 CURVE SMOOTH",
"386 144 OFFCURVE",
"384 145 OFFCURVE",
"382 147 CURVE SMOOTH",
"380 151 OFFCURVE",
"378 151 OFFCURVE",
"375 151 CURVE SMOOTH"
);
},
{
closed = 1;
nodes = (
"377 87 OFFCURVE",
"380 83 OFFCURVE",
"379 79 CURVE SMOOTH",
"378 76 OFFCURVE",
"375 74 OFFCURVE",
"371 74 CURVE SMOOTH",
"371 74 OFFCURVE",
"370 74 OFFCURVE",
"369 74 CURVE SMOOTH",
"363 75 OFFCURVE",
"355 80 OFFCURVE",
"353 93 CURVE SMOOTH",
"353 97 OFFCURVE",
"356 101 OFFCURVE",
"360 101 CURVE SMOOTH",
"364 102 OFFCURVE",
"367 99 OFFCURVE",
"368 95 CURVE SMOOTH",
"369 90 OFFCURVE",
"370 89 OFFCURVE",
"373 88 CURVE SMOOTH"
);
}
);
width = 448;
}
);
unicode = 00DA;
},
{
glyphname = "Ucircumflex";
layers = (
{
layerId = "E8827009-6BC8-4B70-BCEC-AB542FFF6A4D";
name = "Regular";
paths = (
{
closed = 1;
nodes = (
"42 -32 LINE SMOOTH",
"19 -32 OFFCURVE",
"0 -13 OFFCURVE",
"0 9 CURVE SMOOTH",
"0 192 LINE SMOOTH",
"0 215 OFFCURVE",
"19 233 OFFCURVE",
"42 233 CURVE SMOOTH",
"67 233 LINE",
"67 283 LINE SMOOTH",
"67 356 OFFCURVE",
"126 416 OFFCURVE",
"200 416 CURVE SMOOTH",
"273 416 OFFCURVE",
"332 356 OFFCURVE",
"332 283 CURVE SMOOTH",
"332 233 LINE",
"357 233 LINE SMOOTH",
"380 233 OFFCURVE",
"399 215 OFFCURVE",
"399 192 CURVE SMOOTH",
"399 9 LINE SMOOTH",
"399 -13 OFFCURVE",
"380 -32 OFFCURVE",
"357 -32 CURVE SMOOTH"
);
},
{
closed = 1;
nodes = (
"316 347 OFFCURVE",
"264 399 OFFCURVE",
"200 399 CURVE SMOOTH",
"135 399 OFFCURVE",
"83 347 OFFCURVE",
"83 283 CURVE SMOOTH",
"83 233 LINE",
"117 233 LINE",
"117 283 LINE SMOOTH",
"117 329 OFFCURVE",
"154 366 OFFCURVE",
"200 366 CURVE SMOOTH",
"245 366 OFFCURVE",
"282 329 OFFCURVE",
"282 283 CURVE SMOOTH",
"282 233 LINE",
"316 233 LINE",
"316 283 LINE SMOOTH"
);
},
{
closed = 1;
nodes = (
"133 233 LINE",
"266 233 LINE",
"266 283 LINE SMOOTH",
"266 320 OFFCURVE",
"236 350 OFFCURVE",
"200 350 CURVE SMOOTH",
"163 350 OFFCURVE",
"133 320 OFFCURVE",
"133 283 CURVE SMOOTH"
);
},
{
closed = 1;
nodes = (
"382 206 OFFCURVE",
"371 217 OFFCURVE",
"357 217 CURVE SMOOTH",
"324 217 LINE",
"274 217 LINE",
"125 217 LINE",
"75 217 LINE",
"42 217 LINE SMOOTH",
"28 217 OFFCURVE",
"17 206 OFFCURVE",
"17 192 CURVE SMOOTH",
"17 9 LINE SMOOTH",
"17 -4 OFFCURVE",
"28 -15 OFFCURVE",
"42 -15 CURVE SMOOTH",
"357 -15 LINE SMOOTH",
"371 -15 OFFCURVE",
"382 -4 OFFCURVE",
"382 9 CURVE SMOOTH",
"382 192 LINE SMOOTH"
);
},
{
closed = 1;
nodes = (
"232 61 LINE SMOOTH",
"233 59 OFFCURVE",
"233 56 OFFCURVE",
"231 54 CURVE SMOOTH",
"229 52 OFFCURVE",
"227 51 OFFCURVE",
"224 51 CURVE SMOOTH",
"175 51 LINE SMOOTH",
"172 51 OFFCURVE",
"170 52 OFFCURVE",
"168 54 CURVE SMOOTH",
"166 56 OFFCURVE",
"166 59 OFFCURVE",
"167 61 CURVE SMOOTH",
"178 108 LINE",
"171 115 OFFCURVE",
"166 124 OFFCURVE",
"166 134 CURVE SMOOTH",
"166 152 OFFCURVE",
"181 167 OFFCURVE",
"200 167 CURVE SMOOTH",
"218 167 OFFCURVE",
"233 152 OFFCURVE",
"233 134 CURVE SMOOTH",
"233 124 OFFCURVE",
"228 115 OFFCURVE",
"221 108 CURVE"
);
},
{
closed = 1;
nodes = (
"190 151 OFFCURVE",
"183 143 OFFCURVE",
"183 134 CURVE SMOOTH",
"183 128 OFFCURVE",
"186 122 OFFCURVE",
"192 119 CURVE SMOOTH",
"195 118 OFFCURVE",
"197 114 OFFCURVE",
"196 110 CURVE SMOOTH",
"185 68 LINE",
"214 68 LINE",
"203 110 LINE SMOOTH",
"202 114 OFFCURVE",
"204 118 OFFCURVE",
"207 119 CURVE SMOOTH",
"213 122 OFFCURVE",
"216 128 OFFCURVE",
"216 134 CURVE SMOOTH",
"216 143 OFFCURVE",
"209 151 OFFCURVE",
"200 151 CURVE SMOOTH"
);
}
);
width = 399;
}
);
unicode = 00DB;
},
{
glyphname = "Udieresis";
layers = (
{
layerId = "E8827009-6BC8-4B70-BCEC-AB542FFF6A4D";
name = "Regular";
paths = (
{
closed = 1;
nodes = (
"328 -24 LINE SMOOTH",
"315 -24 OFFCURVE",
"304 -13 OFFCURVE",
"304 0 CURVE SMOOTH",
"304 96 LINE SMOOTH",
"304 109 OFFCURVE",
"315 120 OFFCURVE",
"328 120 CURVE SMOOTH",
"424 120 LINE SMOOTH",
"437 120 OFFCURVE",
"448 109 OFFCURVE",
"448 96 CURVE SMOOTH",
"448 0 LINE SMOOTH",
"448 -13 OFFCURVE",
"437 -24 OFFCURVE",
"424 -24 CURVE SMOOTH"
);
},
{
closed = 1;
nodes = (
"432 100 OFFCURVE",
"428 104 OFFCURVE",
"424 104 CURVE SMOOTH",
"328 104 LINE SMOOTH",
"324 104 OFFCURVE",
"320 100 OFFCURVE",
"320 96 CURVE SMOOTH",
"320 0 LINE SMOOTH",
"320 -4 OFFCURVE",
"324 -8 OFFCURVE",
"328 -8 CURVE SMOOTH",
"424 -8 LINE SMOOTH",
"428 -8 OFFCURVE",
"432 -4 OFFCURVE",
"432 0 CURVE SMOOTH",
"432 96 LINE SMOOTH"
);
},
{
closed = 1;
nodes = (
"24 232 LINE SMOOTH",
"11 232 OFFCURVE",
"0 243 OFFCURVE",
"0 256 CURVE SMOOTH",
"0 384 LINE SMOOTH",
"0 397 OFFCURVE",
"11 408 OFFCURVE",
"24 408 CURVE SMOOTH",
"424 408 LINE SMOOTH",
"437 408 OFFCURVE",
"448 397 OFFCURVE",
"448 384 CURVE SMOOTH",
"448 256 LINE SMOOTH",
"448 243 OFFCURVE",
"437 232 OFFCURVE",
"424 232 CURVE SMOOTH"
);
},
{
closed = 1;
nodes = (
"432 388 OFFCURVE",
"428 392 OFFCURVE",
"424 392 CURVE SMOOTH",
"24 392 LINE SMOOTH",
"20 392 OFFCURVE",
"16 388 OFFCURVE",
"16 384 CURVE SMOOTH",
"16 256 LINE SMOOTH",
"16 252 OFFCURVE",
"20 248 OFFCURVE",
"24 248 CURVE SMOOTH",
"424 248 LINE SMOOTH",
"428 248 OFFCURVE",
"432 252 OFFCURVE",
"432 256 CURVE SMOOTH",
"432 384 LINE SMOOTH"
);
},
{
closed = 1;
nodes = (
"120 120 LINE SMOOTH",
"133 120 OFFCURVE",
"144 109 OFFCURVE",
"144 96 CURVE SMOOTH",
"144 0 LINE SMOOTH",
"144 -13 OFFCURVE",
"133 -24 OFFCURVE",
"120 -24 CURVE SMOOTH",
"24 -24 LINE SMOOTH",
"11 -24 OFFCURVE",
"0 -13 OFFCURVE",
"0 0 CURVE SMOOTH",
"0 96 LINE SMOOTH",
"0 109 OFFCURVE",
"11 120 OFFCURVE",
"24 120 CURVE SMOOTH"
);
},
{
closed = 1;
nodes = (
"16 -4 OFFCURVE",
"20 -8 OFFCURVE",
"24 -8 CURVE SMOOTH",
"120 -8 LINE SMOOTH",
"124 -8 OFFCURVE",
"128 -4 OFFCURVE",
"128 0 CURVE SMOOTH",
"128 96 LINE SMOOTH",
"128 100 OFFCURVE",
"124 104 OFFCURVE",
"120 104 CURVE SMOOTH",
"24 104 LINE SMOOTH",
"20 104 OFFCURVE",
"16 100 OFFCURVE",
"16 96 CURVE SMOOTH",
"16 0 LINE SMOOTH"
);
},
{
closed = 1;
nodes = (
"164 56 OFFCURVE",
"168 52 OFFCURVE",
"168 48 CURVE SMOOTH",
"168 44 OFFCURVE",
"164 40 OFFCURVE",
"160 40 CURVE SMOOTH",
"156 40 OFFCURVE",
"152 44 OFFCURVE",
"152 48 CURVE SMOOTH",
"152 52 OFFCURVE",
"156 56 OFFCURVE",
"160 56 CURVE SMOOTH"
);
},
{
closed = 1;
nodes = (
"196 56 OFFCURVE",
"200 52 OFFCURVE",
"200 48 CURVE SMOOTH",
"200 44 OFFCURVE",
"196 40 OFFCURVE",
"192 40 CURVE SMOOTH",
"188 40 OFFCURVE",
"184 44 OFFCURVE",
"184 48 CURVE SMOOTH",
"184 52 OFFCURVE",
"188 56 OFFCURVE",
"192 56 CURVE SMOOTH"
);
},
{
closed = 1;
nodes = (
"228 216 OFFCURVE",
"232 212 OFFCURVE",
"232 208 CURVE SMOOTH",
"232 204 OFFCURVE",
"228 200 OFFCURVE",
"224 200 CURVE SMOOTH",
"220 200 OFFCURVE",
"216 204 OFFCURVE",
"216 208 CURVE SMOOTH",
"216 212 OFFCURVE",
"220 216 OFFCURVE",
"224 216 CURVE SMOOTH"
);
},
{
closed = 1;
nodes = (
"228 184 OFFCURVE",
"232 180 OFFCURVE",
"232 176 CURVE SMOOTH",
"232 172 OFFCURVE",
"228 168 OFFCURVE",
"224 168 CURVE SMOOTH",
"220 168 OFFCURVE",
"216 172 OFFCURVE",
"216 176 CURVE SMOOTH",
"216 180 OFFCURVE",
"220 184 OFFCURVE",
"224 184 CURVE SMOOTH"
);
},
{
closed = 1;
nodes = (
"228 152 OFFCURVE",
"232 148 OFFCURVE",
"232 144 CURVE SMOOTH",
"232 140 OFFCURVE",
"228 136 OFFCURVE",
"224 136 CURVE SMOOTH",
"220 136 OFFCURVE",
"216 140 OFFCURVE",
"216 144 CURVE SMOOTH",
"216 148 OFFCURVE",
"220 152 OFFCURVE",
"224 152 CURVE SMOOTH"
);
},
{
closed = 1;
nodes = (
"228 120 OFFCURVE",
"232 116 OFFCURVE",
"232 112 CURVE SMOOTH",
"232 108 OFFCURVE",
"228 104 OFFCURVE",
"224 104 CURVE SMOOTH",
"220 104 OFFCURVE",
"216 108 OFFCURVE",
"216 112 CURVE SMOOTH",
"216 116 OFFCURVE",
"220 120 OFFCURVE",
"224 120 CURVE SMOOTH"
);
},
{
closed = 1;
nodes = (
"228 88 OFFCURVE",
"232 84 OFFCURVE",
"232 80 CURVE SMOOTH",
"232 76 OFFCURVE",
"228 72 OFFCURVE",
"224 72 CURVE SMOOTH",
"220 72 OFFCURVE",
"216 76 OFFCURVE",
"216 80 CURVE SMOOTH",
"216 84 OFFCURVE",
"220 88 OFFCURVE",
"224 88 CURVE SMOOTH"
);
},
{
closed = 1;
nodes = (
"228 56 OFFCURVE",
"232 52 OFFCURVE",
"232 48 CURVE SMOOTH",
"232 44 OFFCURVE",
"228 40 OFFCURVE",
"224 40 CURVE SMOOTH",
"220 40 OFFCURVE",
"216 44 OFFCURVE",
"216 48 CURVE SMOOTH",
"216 52 OFFCURVE",
"220 56 OFFCURVE",
"224 56 CURVE SMOOTH"
);
},
{
closed = 1;
nodes = (
"260 56 OFFCURVE",
"264 52 OFFCURVE",
"264 48 CURVE SMOOTH",
"264 44 OFFCURVE",
"260 40 OFFCURVE",
"256 40 CURVE SMOOTH",
"252 40 OFFCURVE",
"248 44 OFFCURVE",
"248 48 CURVE SMOOTH",
"248 52 OFFCURVE",
"252 56 OFFCURVE",
"256 56 CURVE SMOOTH"
);
},
{
closed = 1;
nodes = (
"292 56 OFFCURVE",
"296 52 OFFCURVE",
"296 48 CURVE SMOOTH",
"296 44 OFFCURVE",
"292 40 OFFCURVE",
"288 40 CURVE SMOOTH",
"284 40 OFFCURVE",
"280 44 OFFCURVE",
"280 48 CURVE SMOOTH",
"280 52 OFFCURVE",
"284 56 OFFCURVE",
"288 56 CURVE SMOOTH"
);
}
);
width = 449;
}
);
unicode = 00DC;
},
{
glyphname = "Ugrave";
layers = (
{
layerId = "E8827009-6BC8-4B70-BCEC-AB542FFF6A4D";
name = "Regular";
paths = (
{
closed = 1;
nodes = (
"404 224 OFFCURVE",
"400 228 OFFCURVE",
"400 232 CURVE SMOOTH",
"400 357 LINE",
"247 210 LINE SMOOTH",
"236 200 OFFCURVE",
"222 194 OFFCURVE",
"208 194 CURVE SMOOTH",
"194 194 OFFCURVE",
"180 200 OFFCURVE",
"169 210 CURVE SMOOTH",
"150 229 LINE",
"28 112 LINE",
"200 112 LINE SMOOTH",
"204 112 OFFCURVE",
"208 108 OFFCURVE",
"208 104 CURVE SMOOTH",
"208 100 OFFCURVE",
"204 96 OFFCURVE",
"200 96 CURVE SMOOTH",
"24 96 LINE SMOOTH",
"17 96 OFFCURVE",
"11 99 OFFCURVE",
"7 103 CURVE SMOOTH",
"7 103 OFFCURVE",
"7 103 OFFCURVE",
"7 103 CURVE",
"7 103 OFFCURVE",
"7 103 OFFCURVE",
"7 103 CURVE SMOOTH",
"3 108 OFFCURVE",
"0 114 OFFCURVE",
"0 120 CURVE SMOOTH",
"0 360 LINE SMOOTH",
"0 367 OFFCURVE",
"3 372 OFFCURVE",
"7 377 CURVE",
"7 377 OFFCURVE",
"7 377 OFFCURVE",
"7 377 CURVE",
"7 377 OFFCURVE",
"7 377 OFFCURVE",
"7 377 CURVE SMOOTH",
"11 381 OFFCURVE",
"17 384 OFFCURVE",
"24 384 CURVE SMOOTH",
"392 384 LINE SMOOTH",
"399 384 OFFCURVE",
"405 381 OFFCURVE",
"409 377 CURVE SMOOTH",
"409 377 OFFCURVE",
"409 377 OFFCURVE",
"409 377 CURVE",
"409 377 OFFCURVE",
"409 377 OFFCURVE",
"409 377 CURVE SMOOTH",
"413 372 OFFCURVE",
"416 367 OFFCURVE",
"416 360 CURVE SMOOTH",
"416 232 LINE SMOOTH",
"416 228 OFFCURVE",
"412 224 OFFCURVE",
"408 224 CURVE SMOOTH"
);
},
{
closed = 1;
nodes = (
"16 123 LINE",
"138 240 LINE",
"16 357 LINE"
);
},
{
closed = 1;
nodes = (
"180 222 LINE SMOOTH",
"196 207 OFFCURVE",
"220 207 OFFCURVE",
"236 222 CURVE SMOOTH",
"388 368 LINE",
"28 368 LINE"
);
},
{
closed = 1;
nodes = (
"401 208 OFFCURVE",
"448 161 OFFCURVE",
"448 104 CURVE SMOOTH",
"448 47 OFFCURVE",
"401 0 OFFCURVE",
"344 0 CURVE SMOOTH",
"287 0 OFFCURVE",
"240 47 OFFCURVE",
"240 104 CURVE SMOOTH",
"240 161 OFFCURVE",
"287 208 OFFCURVE",
"344 208 CURVE SMOOTH"
);
},
{
closed = 1;
nodes = (
"393 16 OFFCURVE",
"432 55 OFFCURVE",
"432 104 CURVE SMOOTH",
"432 153 OFFCURVE",
"393 192 OFFCURVE",
"344 192 CURVE SMOOTH",
"295 192 OFFCURVE",
"256 153 OFFCURVE",
"256 104 CURVE SMOOTH",
"256 55 OFFCURVE",
"295 16 OFFCURVE",
"344 16 CURVE SMOOTH"
);
},
{
closed = 1;
nodes = (
"392 112 LINE SMOOTH",
"396 112 OFFCURVE",
"400 108 OFFCURVE",
"400 104 CURVE SMOOTH",
"400 100 OFFCURVE",
"396 96 OFFCURVE",
"392 96 CURVE SMOOTH",
"296 96 LINE SMOOTH",
"292 96 OFFCURVE",
"288 100 OFFCURVE",
"288 104 CURVE SMOOTH",
"288 108 OFFCURVE",
"292 112 OFFCURVE",
"296 112 CURVE SMOOTH"
);
}
);
width = 448;
}
);
unicode = 00D9;
},
{
glyphname = "Yacute";
layers = (
{
layerId = "E8827009-6BC8-4B70-BCEC-AB542FFF6A4D";
name = "Regular";
paths = (
{
closed = 1;
nodes = (
"402 47 OFFCURVE",
"362 16 OFFCURVE",
"334 -7 CURVE SMOOTH",
"323 -15 OFFCURVE",
"313 -23 OFFCURVE",
"309 -29 CURVE SMOOTH",
"308 -31 OFFCURVE",
"306 -32 OFFCURVE",
"303 -32 CURVE SMOOTH",
"303 -32 OFFCURVE",
"303 -32 OFFCURVE",
"303 -32 CURVE SMOOTH",
"300 -32 OFFCURVE",
"298 -31 OFFCURVE",
"297 -28 CURVE SMOOTH",
"293 -23 OFFCURVE",
"283 -15 OFFCURVE",
"272 -7 CURVE SMOOTH",
"244 16 OFFCURVE",
"205 46 OFFCURVE",
"202 87 CURVE SMOOTH",
"201 104 OFFCURVE",
"206 119 OFFCURVE",
"217 131 CURVE SMOOTH",
"228 143 OFFCURVE",
"243 149 OFFCURVE",
"259 149 CURVE SMOOTH",
"277 149 OFFCURVE",
"292 140 OFFCURVE",
"303 125 CURVE",
"315 140 OFFCURVE",
"331 149 OFFCURVE",
"349 149 CURVE SMOOTH",
"363 149 OFFCURVE",
"378 143 OFFCURVE",
"388 132 CURVE SMOOTH",
"399 120 OFFCURVE",
"405 104 OFFCURVE",
"404 88 CURVE SMOOTH"
);
},
{
closed = 1;
nodes = (
"369 129 OFFCURVE",
"359 134 OFFCURVE",
"349 134 CURVE SMOOTH",
"333 134 OFFCURVE",
"319 124 OFFCURVE",
"310 106 CURVE SMOOTH",
"309 103 OFFCURVE",
"306 102 OFFCURVE",
"303 102 CURVE",
"300 102 OFFCURVE",
"297 103 OFFCURVE",
"296 106 CURVE SMOOTH",
"288 124 OFFCURVE",
"275 134 OFFCURVE",
"259 134 CURVE SMOOTH",
"247 134 OFFCURVE",
"237 129 OFFCURVE",
"229 120 CURVE SMOOTH",
"221 112 OFFCURVE",
"217 101 OFFCURVE",
"218 89 CURVE SMOOTH",
"220 54 OFFCURVE",
"256 26 OFFCURVE",
"282 6 CURVE SMOOTH",
"290 -1 OFFCURVE",
"298 -7 OFFCURVE",
"303 -12 CURVE",
"308 -7 OFFCURVE",
"316 -1 OFFCURVE",
"324 5 CURVE SMOOTH",
"351 26 OFFCURVE",
"386 55 OFFCURVE",
"388 89 CURVE SMOOTH",
"389 101 OFFCURVE",
"385 113 OFFCURVE",
"377 121 CURVE SMOOTH"
);
},
{
closed = 1;
nodes = (
"330 183 OFFCURVE",
"326 186 OFFCURVE",
"326 191 CURVE SMOOTH",
"326 323 LINE",
"256 323 LINE SMOOTH",
"252 323 OFFCURVE",
"249 326 OFFCURVE",
"249 331 CURVE SMOOTH",
"249 400 LINE",
"16 400 LINE",
"16 -4 LINE",
"194 -4 LINE SMOOTH",
"199 -4 OFFCURVE",
"202 -7 OFFCURVE",
"202 -11 CURVE SMOOTH",
"202 -16 OFFCURVE",
"199 -19 OFFCURVE",
"194 -19 CURVE SMOOTH",
"8 -19 LINE SMOOTH",
"3 -19 OFFCURVE",
"0 -16 OFFCURVE",
"0 -11 CURVE SMOOTH",
"0 408 LINE SMOOTH",
"0 413 OFFCURVE",
"3 416 OFFCURVE",
"8 416 CURVE SMOOTH",
"256 416 LINE SMOOTH",
"257 416 OFFCURVE",
"258 416 OFFCURVE",
"259 415 CURVE SMOOTH",
"260 415 OFFCURVE",
"261 414 OFFCURVE",
"262 414 CURVE SMOOTH",
"340 336 LINE SMOOTH",
"340 335 OFFCURVE",
"341 334 OFFCURVE",
"341 334 CURVE SMOOTH",
"342 333 OFFCURVE",
"342 332 OFFCURVE",
"342 331 CURVE SMOOTH",
"342 191 LINE SMOOTH",
"342 186 OFFCURVE",
"338 183 OFFCURVE",
"334 183 CURVE SMOOTH"
);
},
{
closed = 1;
nodes = (
"264 338 LINE",
"315 338 LINE",
"264 389 LINE"
);
}
);
width = 404;
}
);
unicode = 00DD;
},
{
glyphname = "aacute";
lastChange = "2015-08-04 07:52:08 +0100";
layers = (
{
layerId = "E8827009-6BC8-4B70-BCEC-AB542FFF6A4D";
name = "Regular";
paths = (
{
closed = 1;
nodes = (
"267 223 LINE",
"344 223 LINE SMOOTH",
"348 223 OFFCURVE",
"352 219 OFFCURVE",
"352 215 CURVE SMOOTH",
"352 211 OFFCURVE",
"348 207 OFFCURVE",
"344 207 CURVE SMOOTH",
"248 207 LINE SMOOTH",
"247 207 OFFCURVE",
"246 207 OFFCURVE",
"245 208 CURVE SMOOTH",
"243 208 OFFCURVE",
"241 210 OFFCURVE",
"240 212 CURVE SMOOTH",
"240 213 OFFCURVE",
"240 214 OFFCURVE",
"240 215 CURVE",
"240 215 OFFCURVE",
"240 215 OFFCURVE",
"240 215 CURVE SMOOTH",
"240 311 LINE SMOOTH",
"240 315 OFFCURVE",
"243 319 OFFCURVE",
"248 319 CURVE SMOOTH",
"252 319 OFFCURVE",
"256 315 OFFCURVE",
"256 311 CURVE SMOOTH",
"256 234 LINE",
"434 413 LINE SMOOTH",
"437 416 OFFCURVE",
"443 416 OFFCURVE",
"446 413 CURVE SMOOTH",
"449 410 OFFCURVE",
"449 405 OFFCURVE",
"446 402 CURVE SMOOTH"
);
},
{
closed = 1;
nodes = (
"246 101 OFFCURVE",
"260 100 OFFCURVE",
"270 107 CURVE SMOOTH",
"282 117 LINE SMOOTH",
"296 128 OFFCURVE",
"317 128 OFFCURVE",
"331 117 CURVE SMOOTH",
"385 75 LINE SMOOTH",
"394 68 OFFCURVE",
"399 58 OFFCURVE",
"400 46 CURVE SMOOTH",
"401 35 OFFCURVE",
"396 23 OFFCURVE",
"388 15 CURVE SMOOTH",
"354 -19 LINE SMOOTH",
"348 -25 OFFCURVE",
"337 -32 OFFCURVE",
"317 -32 CURVE SMOOTH",
"317 -32 LINE SMOOTH",
"283 -32 OFFCURVE",
"222 -11 OFFCURVE",
"122 89 CURVE SMOOTH",
"62 149 OFFCURVE",
"24 200 OFFCURVE",
"8 243 CURVE SMOOTH",
"-9 288 OFFCURVE",
"5 311 OFFCURVE",
"14 321 CURVE SMOOTH",
"48 355 LINE SMOOTH",
"56 363 OFFCURVE",
"66 367 OFFCURVE",
"77 367 CURVE SMOOTH",
"89 367 OFFCURVE",
"101 361 OFFCURVE",
"108 352 CURVE SMOOTH",
"150 298 LINE SMOOTH",
"161 283 OFFCURVE",
"161 263 OFFCURVE",
"150 249 CURVE SMOOTH",
"140 237 LINE SMOOTH",
"133 227 OFFCURVE",
"134 213 OFFCURVE",
"142 205 CURVE SMOOTH",
"238 109 LINE SMOOTH"
);
},
{
closed = 1;
nodes = (
"137 259 LINE SMOOTH",
"144 267 OFFCURVE",
"144 279 OFFCURVE",
"137 288 CURVE SMOOTH",
"96 342 LINE SMOOTH",
"91 348 OFFCURVE",
"84 351 OFFCURVE",
"77 351 CURVE SMOOTH",
"70 351 OFFCURVE",
"64 348 OFFCURVE",
"60 344 CURVE SMOOTH",
"26 310 LINE SMOOTH",
"14 298 OFFCURVE",
"13 276 OFFCURVE",
"23 248 CURVE SMOOTH",
"38 208 OFFCURVE",
"75 158 OFFCURVE",
"133 100 CURVE SMOOTH",
"235 -1 OFFCURVE",
"292 -16 OFFCURVE",
"317 -16 CURVE",
"317 -16 LINE",
"331 -16 OFFCURVE",
"339 -11 OFFCURVE",
"343 -7 CURVE SMOOTH",
"377 27 LINE SMOOTH",
"382 32 OFFCURVE",
"384 38 OFFCURVE",
"384 45 CURVE SMOOTH",
"384 52 OFFCURVE",
"380 58 OFFCURVE",
"375 63 CURVE SMOOTH",
"321 104 LINE SMOOTH",
"313 111 OFFCURVE",
"300 111 OFFCURVE",
"292 104 CURVE SMOOTH",
"280 95 LINE SMOOTH",
"273 89 OFFCURVE",
"264 86 OFFCURVE",
"255 86 CURVE SMOOTH",
"244 86 OFFCURVE",
"234 90 OFFCURVE",
"227 98 CURVE SMOOTH",
"131 194 LINE SMOOTH",
"117 208 OFFCURVE",
"115 231 OFFCURVE",
"128 247 CURVE SMOOTH"
);
}
);
width = 448;
}
);
unicode = 00E1;
},
{
glyphname = "acircumflex";
lastChange = "2015-08-04 07:53:00 +0100";
layers = (
{
layerId = "E8827009-6BC8-4B70-BCEC-AB542FFF6A4D";
name = "Regular";
paths = (
{
closed = 1;
nodes = (
"480 32 OFFCURVE",
"480 32 OFFCURVE",
"480 32 CURVE",
"480 32 OFFCURVE",
"480 32 OFFCURVE",
"480 32 CURVE",
"475 26 OFFCURVE",
"468 23 OFFCURVE",
"460 23 CURVE SMOOTH",
"28 23 LINE SMOOTH",
"20 23 OFFCURVE",
"13 26 OFFCURVE",
"8 32 CURVE SMOOTH",
"8 32 OFFCURVE",
"8 32 OFFCURVE",
"8 32 CURVE",
"8 32 OFFCURVE",
"8 32 OFFCURVE",
"8 32 CURVE SMOOTH",
"3 37 OFFCURVE",
"0 44 OFFCURVE",
"0 51 CURVE SMOOTH",
"0 333 LINE SMOOTH",
"0 340 OFFCURVE",
"3 347 OFFCURVE",
"8 352 CURVE SMOOTH",
"8 352 OFFCURVE",
"8 353 OFFCURVE",
"8 353 CURVE",
"8 353 OFFCURVE",
"8 353 OFFCURVE",
"8 353 CURVE SMOOTH",
"13 358 OFFCURVE",
"20 361 OFFCURVE",
"28 361 CURVE SMOOTH",
"460 361 LINE SMOOTH",
"468 361 OFFCURVE",
"475 358 OFFCURVE",
"480 353 CURVE",
"480 353 OFFCURVE",
"480 353 OFFCURVE",
"480 353 CURVE",
"480 353 OFFCURVE",
"480 353 OFFCURVE",
"480 352 CURVE SMOOTH",
"485 347 OFFCURVE",
"488 340 OFFCURVE",
"488 333 CURVE SMOOTH",
"488 51 LINE SMOOTH",
"488 44 OFFCURVE",
"485 37 OFFCURVE",
"480 32 CURVE"
);
},
{
closed = 1;
nodes = (
"32 42 LINE",
"456 42 LINE",
"312 179 LINE",
"289 157 LINE SMOOTH",
"277 145 OFFCURVE",
"260 139 OFFCURVE",
"244 139 CURVE SMOOTH",
"228 139 OFFCURVE",
"211 145 OFFCURVE",
"198 157 CURVE SMOOTH",
"176 179 LINE"
);
},
{
closed = 1;
nodes = (
"19 55 LINE",
"162 192 LINE",
"19 329 LINE"
);
},
{
closed = 1;
nodes = (
"211 171 LINE SMOOTH",
"230 153 OFFCURVE",
"258 153 OFFCURVE",
"276 171 CURVE SMOOTH",
"456 342 LINE",
"32 342 LINE"
);
},
{
closed = 1;
nodes = (
"326 192 LINE",
"469 55 LINE",
"469 329 LINE"
);
}
);
width = 488;
}
);
unicode = 00E2;
},
{
glyphname = "adieresis";
lastChange = "2015-08-04 07:53:33 +0100";
layers = (
{
layerId = "E8827009-6BC8-4B70-BCEC-AB542FFF6A4D";
name = "Regular";
paths = (
{
closed = 1;
nodes = (
"24 -24 LINE SMOOTH",
"11 -24 OFFCURVE",
"0 -13 OFFCURVE",
"0 0 CURVE SMOOTH",
"0 192 LINE SMOOTH",
"0 205 OFFCURVE",
"11 216 OFFCURVE",
"24 216 CURVE SMOOTH",
"208 216 LINE",
"208 272 LINE SMOOTH",
"208 294 OFFCURVE",
"226 312 OFFCURVE",
"248 312 CURVE SMOOTH",
"296 312 LINE SMOOTH",
"309 312 OFFCURVE",
"320 323 OFFCURVE",
"320 336 CURVE SMOOTH",
"320 400 LINE SMOOTH",
"320 404 OFFCURVE",
"324 408 OFFCURVE",
"328 408 CURVE SMOOTH",
"332 408 OFFCURVE",
"336 404 OFFCURVE",
"336 400 CURVE SMOOTH",
"336 336 LINE SMOOTH",
"336 314 OFFCURVE",
"318 296 OFFCURVE",
"296 296 CURVE SMOOTH",
"248 296 LINE SMOOTH",
"235 296 OFFCURVE",
"224 285 OFFCURVE",
"224 272 CURVE SMOOTH",
"224 216 LINE",
"424 216 LINE SMOOTH",
"437 216 OFFCURVE",
"448 205 OFFCURVE",
"448 192 CURVE SMOOTH",
"448 0 LINE SMOOTH",
"448 -13 OFFCURVE",
"437 -24 OFFCURVE",
"424 -24 CURVE SMOOTH"
);
},
{
closed = 1;
nodes = (
"432 196 OFFCURVE",
"428 200 OFFCURVE",
"424 200 CURVE SMOOTH",
"24 200 LINE SMOOTH",
"20 200 OFFCURVE",
"16 196 OFFCURVE",
"16 192 CURVE SMOOTH",
"16 0 LINE SMOOTH",
"16 -4 OFFCURVE",
"20 -8 OFFCURVE",
"24 -8 CURVE SMOOTH",
"424 -8 LINE SMOOTH",
"428 -8 OFFCURVE",
"432 -4 OFFCURVE",
"432 0 CURVE SMOOTH",
"432 192 LINE SMOOTH"
);
},
{
closed = 1;
nodes = (
"390 40 OFFCURVE",
"388 41 OFFCURVE",
"386 42 CURVE",
"385 44 OFFCURVE",
"384 46 OFFCURVE",
"384 48 CURVE SMOOTH",
"384 50 OFFCURVE",
"385 52 OFFCURVE",
"386 54 CURVE",
"389 57 OFFCURVE",
"395 57 OFFCURVE",
"398 54 CURVE SMOOTH",
"399 52 OFFCURVE",
"400 50 OFFCURVE",
"400 48 CURVE SMOOTH",
"400 46 OFFCURVE",
"399 44 OFFCURVE",
"398 42 CURVE",
"396 41 OFFCURVE",
"394 40 OFFCURVE",
"392 40 CURVE SMOOTH"
);
},
{
closed = 1;
nodes = (
"390 88 OFFCURVE",
"388 89 OFFCURVE",
"386 90 CURVE",
"385 92 OFFCURVE",
"384 94 OFFCURVE",
"384 96 CURVE SMOOTH",
"384 98 OFFCURVE",
"385 100 OFFCURVE",
"386 102 CURVE SMOOTH",
"389 105 OFFCURVE",
"395 105 OFFCURVE",
"398 102 CURVE SMOOTH",
"399 100 OFFCURVE",
"400 98 OFFCURVE",
"400 96 CURVE SMOOTH",
"400 94 OFFCURVE",
"399 92 OFFCURVE",
"398 90 CURVE",
"396 89 OFFCURVE",
"394 88 OFFCURVE",
"392 88 CURVE SMOOTH"
);
},
{
closed = 1;
nodes = (
"390 136 OFFCURVE",
"388 137 OFFCURVE",
"386 138 CURVE",
"385 140 OFFCURVE",
"384 142 OFFCURVE",
"384 144 CURVE SMOOTH",
"384 146 OFFCURVE",
"385 148 OFFCURVE",
"386 150 CURVE SMOOTH",
"389 153 OFFCURVE",
"395 153 OFFCURVE",
"398 150 CURVE SMOOTH",
"399 148 OFFCURVE",
"400 146 OFFCURVE",
"400 144 CURVE SMOOTH",
"400 142 OFFCURVE",
"399 140 OFFCURVE",
"398 138 CURVE",
"396 137 OFFCURVE",
"394 136 OFFCURVE",
"392 136 CURVE SMOOTH"
);
},
{
closed = 1;
nodes = (
"342 40 OFFCURVE",
"340 41 OFFCURVE",
"338 42 CURVE",
"337 44 OFFCURVE",
"336 46 OFFCURVE",
"336 48 CURVE SMOOTH",
"336 50 OFFCURVE",
"337 52 OFFCURVE",
"338 54 CURVE",
"341 57 OFFCURVE",
"347 57 OFFCURVE",
"350 54 CURVE",
"351 52 OFFCURVE",
"352 50 OFFCURVE",
"352 48 CURVE SMOOTH",
"352 46 OFFCURVE",
"351 44 OFFCURVE",
"350 42 CURVE",
"348 41 OFFCURVE",
"346 40 OFFCURVE",
"344 40 CURVE SMOOTH"
);
},
{
closed = 1;
nodes = (
"342 88 OFFCURVE",
"340 89 OFFCURVE",
"338 90 CURVE",
"337 92 OFFCURVE",
"336 94 OFFCURVE",
"336 96 CURVE SMOOTH",
"336 98 OFFCURVE",
"337 100 OFFCURVE",
"338 102 CURVE",
"341 105 OFFCURVE",
"347 105 OFFCURVE",
"350 102 CURVE SMOOTH",
"351 100 OFFCURVE",
"352 98 OFFCURVE",
"352 96 CURVE SMOOTH",
"352 94 OFFCURVE",
"351 92 OFFCURVE",
"350 90 CURVE",
"348 89 OFFCURVE",
"346 88 OFFCURVE",
"344 88 CURVE SMOOTH"
);
},
{
closed = 1;
nodes = (
"342 136 OFFCURVE",
"340 137 OFFCURVE",
"338 138 CURVE",
"337 140 OFFCURVE",
"336 142 OFFCURVE",
"336 144 CURVE SMOOTH",
"336 146 OFFCURVE",
"337 148 OFFCURVE",
"338 150 CURVE",
"341 153 OFFCURVE",
"347 153 OFFCURVE",
"350 150 CURVE SMOOTH",
"351 148 OFFCURVE",
"352 146 OFFCURVE",
"352 144 CURVE SMOOTH",
"352 142 OFFCURVE",
"351 140 OFFCURVE",
"350 138 CURVE",
"348 137 OFFCURVE",
"346 136 OFFCURVE",
"344 136 CURVE SMOOTH"
);
},
{
closed = 1;
nodes = (
"152 40 LINE SMOOTH",
"148 40 OFFCURVE",
"144 44 OFFCURVE",
"144 48 CURVE SMOOTH",
"144 52 OFFCURVE",
"148 56 OFFCURVE",
"152 56 CURVE SMOOTH",
"296 56 LINE SMOOTH",
"300 56 OFFCURVE",
"304 52 OFFCURVE",
"304 48 CURVE SMOOTH",
"304 44 OFFCURVE",
"300 40 OFFCURVE",
"296 40 CURVE SMOOTH"
);
},
{
closed = 1;
nodes = (
"294 88 OFFCURVE",
"292 89 OFFCURVE",
"290 90 CURVE",
"289 92 OFFCURVE",
"288 94 OFFCURVE",
"288 96 CURVE SMOOTH",
"288 98 OFFCURVE",
"289 100 OFFCURVE",
"290 102 CURVE SMOOTH",
"293 105 OFFCURVE",
"299 105 OFFCURVE",
"302 102 CURVE",
"303 100 OFFCURVE",
"304 98 OFFCURVE",
"304 96 CURVE SMOOTH",
"304 94 OFFCURVE",
"303 92 OFFCURVE",
"302 90 CURVE",
"300 89 OFFCURVE",
"298 88 OFFCURVE",
"296 88 CURVE SMOOTH"
);
},
{
closed = 1;
nodes = (
"294 136 OFFCURVE",
"292 137 OFFCURVE",
"290 138 CURVE",
"289 140 OFFCURVE",
"288 142 OFFCURVE",
"288 144 CURVE SMOOTH",
"288 146 OFFCURVE",
"289 148 OFFCURVE",
"290 150 CURVE SMOOTH",
"293 153 OFFCURVE",
"299 153 OFFCURVE",
"302 150 CURVE",
"303 148 OFFCURVE",
"304 146 OFFCURVE",
"304 144 CURVE SMOOTH",
"304 142 OFFCURVE",
"303 140 OFFCURVE",
"302 138 CURVE",
"300 137 OFFCURVE",
"298 136 OFFCURVE",
"296 136 CURVE SMOOTH"
);
},
{
closed = 1;
nodes = (
"246 88 OFFCURVE",
"244 89 OFFCURVE",
"242 90 CURVE",
"241 92 OFFCURVE",
"240 94 OFFCURVE",
"240 96 CURVE SMOOTH",
"240 98 OFFCURVE",
"241 100 OFFCURVE",
"242 102 CURVE",
"245 105 OFFCURVE",
"251 105 OFFCURVE",
"254 102 CURVE SMOOTH",
"255 100 OFFCURVE",
"256 98 OFFCURVE",
"256 96 CURVE SMOOTH",
"256 94 OFFCURVE",
"255 92 OFFCURVE",
"254 90 CURVE",
"252 89 OFFCURVE",
"250 88 OFFCURVE",
"248 88 CURVE SMOOTH"
);
},
{
closed = 1;
nodes = (
"246 136 OFFCURVE",
"244 137 OFFCURVE",
"242 138 CURVE",
"241 140 OFFCURVE",
"240 142 OFFCURVE",
"240 144 CURVE SMOOTH",
"240 146 OFFCURVE",
"241 148 OFFCURVE",
"242 150 CURVE SMOOTH",
"245 153 OFFCURVE",
"251 153 OFFCURVE",
"254 150 CURVE SMOOTH",
"255 148 OFFCURVE",
"256 146 OFFCURVE",
"256 144 CURVE SMOOTH",
"256 142 OFFCURVE",
"255 140 OFFCURVE",
"254 138 CURVE",
"252 137 OFFCURVE",
"250 136 OFFCURVE",
"248 136 CURVE SMOOTH"
);
},
{
closed = 1;
nodes = (
"198 88 OFFCURVE",
"196 89 OFFCURVE",
"194 90 CURVE",
"193 92 OFFCURVE",
"192 94 OFFCURVE",
"192 96 CURVE SMOOTH",
"192 98 OFFCURVE",
"193 100 OFFCURVE",
"194 102 CURVE SMOOTH",
"197 105 OFFCURVE",
"203 105 OFFCURVE",
"206 102 CURVE SMOOTH",
"207 100 OFFCURVE",
"208 98 OFFCURVE",
"208 96 CURVE SMOOTH",
"208 94 OFFCURVE",
"207 92 OFFCURVE",
"206 90 CURVE",
"204 89 OFFCURVE",
"202 88 OFFCURVE",
"200 88 CURVE SMOOTH"
);
},
{
closed = 1;
nodes = (
"198 136 OFFCURVE",
"196 137 OFFCURVE",
"194 138 CURVE",
"193 140 OFFCURVE",
"192 142 OFFCURVE",
"192 144 CURVE SMOOTH",
"192 146 OFFCURVE",
"193 148 OFFCURVE",
"194 150 CURVE SMOOTH",
"197 153 OFFCURVE",
"203 153 OFFCURVE",
"206 150 CURVE SMOOTH",
"207 148 OFFCURVE",
"208 146 OFFCURVE",
"208 144 CURVE SMOOTH",
"208 142 OFFCURVE",
"207 140 OFFCURVE",
"206 138 CURVE",
"204 137 OFFCURVE",
"202 136 OFFCURVE",
"200 136 CURVE SMOOTH"
);
},
{
closed = 1;
nodes = (
"150 88 OFFCURVE",
"148 89 OFFCURVE",
"146 90 CURVE",
"145 92 OFFCURVE",
"144 94 OFFCURVE",
"144 96 CURVE SMOOTH",
"144 98 OFFCURVE",
"145 100 OFFCURVE",
"146 102 CURVE SMOOTH",
"149 105 OFFCURVE",
"155 105 OFFCURVE",
"158 102 CURVE",
"159 100 OFFCURVE",
"160 98 OFFCURVE",
"160 96 CURVE SMOOTH",
"160 94 OFFCURVE",
"159 92 OFFCURVE",
"158 90 CURVE",
"156 89 OFFCURVE",
"154 88 OFFCURVE",
"152 88 CURVE SMOOTH"
);
},
{
closed = 1;
nodes = (
"150 136 OFFCURVE",
"148 137 OFFCURVE",
"146 138 CURVE",
"145 140 OFFCURVE",
"144 142 OFFCURVE",
"144 144 CURVE SMOOTH",
"144 146 OFFCURVE",
"145 148 OFFCURVE",
"146 150 CURVE SMOOTH",
"149 153 OFFCURVE",
"155 153 OFFCURVE",
"158 150 CURVE SMOOTH",
"159 148 OFFCURVE",
"160 146 OFFCURVE",
"160 144 CURVE SMOOTH",
"160 142 OFFCURVE",
"159 140 OFFCURVE",
"158 138 CURVE",
"156 137 OFFCURVE",
"154 136 OFFCURVE",
"152 136 CURVE SMOOTH"
);
},
{
closed = 1;
nodes = (
"102 40 OFFCURVE",
"100 41 OFFCURVE",
"98 42 CURVE",
"97 44 OFFCURVE",
"96 46 OFFCURVE",
"96 48 CURVE SMOOTH",
"96 50 OFFCURVE",
"97 52 OFFCURVE",
"98 54 CURVE SMOOTH",
"101 57 OFFCURVE",
"107 57 OFFCURVE",
"110 54 CURVE",
"111 52 OFFCURVE",
"112 50 OFFCURVE",
"112 48 CURVE SMOOTH",
"112 46 OFFCURVE",
"111 44 OFFCURVE",
"110 42 CURVE",
"108 41 OFFCURVE",
"106 40 OFFCURVE",
"104 40 CURVE SMOOTH"
);
},
{
closed = 1;
nodes = (
"102 88 OFFCURVE",
"100 89 OFFCURVE",
"98 90 CURVE",
"97 92 OFFCURVE",
"96 94 OFFCURVE",
"96 96 CURVE SMOOTH",
"96 98 OFFCURVE",
"97 100 OFFCURVE",
"98 102 CURVE",
"101 105 OFFCURVE",
"107 105 OFFCURVE",
"110 102 CURVE SMOOTH",
"111 100 OFFCURVE",
"112 98 OFFCURVE",
"112 96 CURVE SMOOTH",
"112 94 OFFCURVE",
"111 92 OFFCURVE",
"110 90 CURVE",
"108 89 OFFCURVE",
"106 88 OFFCURVE",
"104 88 CURVE SMOOTH"
);
},
{
closed = 1;
nodes = (
"102 136 OFFCURVE",
"100 137 OFFCURVE",
"98 138 CURVE",
"97 140 OFFCURVE",
"96 142 OFFCURVE",
"96 144 CURVE SMOOTH",
"96 146 OFFCURVE",
"97 148 OFFCURVE",
"98 150 CURVE",
"101 153 OFFCURVE",
"107 153 OFFCURVE",
"110 150 CURVE SMOOTH",
"111 148 OFFCURVE",
"112 146 OFFCURVE",
"112 144 CURVE SMOOTH",
"112 142 OFFCURVE",
"111 140 OFFCURVE",
"110 138 CURVE SMOOTH",
"108 137 OFFCURVE",
"106 136 OFFCURVE",
"104 136 CURVE SMOOTH"
);
},
{
closed = 1;
nodes = (
"54 40 OFFCURVE",
"52 41 OFFCURVE",
"50 42 CURVE",
"49 44 OFFCURVE",
"48 46 OFFCURVE",
"48 48 CURVE SMOOTH",
"48 50 OFFCURVE",
"49 52 OFFCURVE",
"50 54 CURVE",
"53 57 OFFCURVE",
"59 57 OFFCURVE",
"62 54 CURVE SMOOTH",
"63 52 OFFCURVE",
"64 50 OFFCURVE",
"64 48 CURVE SMOOTH",
"64 46 OFFCURVE",
"63 44 OFFCURVE",
"62 42 CURVE",
"60 41 OFFCURVE",
"58 40 OFFCURVE",
"56 40 CURVE SMOOTH"
);
},
{
closed = 1;
nodes = (
"54 88 OFFCURVE",
"52 89 OFFCURVE",
"50 90 CURVE",
"49 92 OFFCURVE",
"48 94 OFFCURVE",
"48 96 CURVE SMOOTH",
"48 98 OFFCURVE",
"49 100 OFFCURVE",
"50 102 CURVE SMOOTH",
"53 105 OFFCURVE",
"59 105 OFFCURVE",
"62 102 CURVE SMOOTH",
"63 100 OFFCURVE",
"64 98 OFFCURVE",
"64 96 CURVE SMOOTH",
"64 94 OFFCURVE",
"63 92 OFFCURVE",
"62 90 CURVE",
"60 89 OFFCURVE",
"58 88 OFFCURVE",
"56 88 CURVE SMOOTH"
);
},
{
closed = 1;
nodes = (
"54 136 OFFCURVE",
"52 137 OFFCURVE",
"50 138 CURVE",
"49 140 OFFCURVE",
"48 142 OFFCURVE",
"48 144 CURVE SMOOTH",
"48 146 OFFCURVE",
"49 148 OFFCURVE",
"50 150 CURVE SMOOTH",
"53 153 OFFCURVE",
"59 153 OFFCURVE",
"62 150 CURVE SMOOTH",
"63 148 OFFCURVE",
"64 146 OFFCURVE",
"64 144 CURVE SMOOTH",
"64 142 OFFCURVE",
"63 140 OFFCURVE",
"62 138 CURVE",
"60 137 OFFCURVE",
"58 136 OFFCURVE",
"56 136 CURVE SMOOTH"
);
}
);
width = 448;
}
);
unicode = 00E4;
},
